<?xml version="1.0" encoding="utf-8"?>
<svg xmlns="http://www.w3.org/2000/svg" xmlns:xlink="http://www.w3.org/1999/xlink" width="600" height="340" viewBox="0 0 2400 1360">
<defs>
  <clipPath id="clip920">
    <rect x="0" y="0" width="2400" height="1360"/>
  </clipPath>
</defs>
<path clip-path="url(#clip920)" d="
M0 1360 L2400 1360 L2400 0 L0 0  Z
  " fill="#ffffff" fill-rule="evenodd" fill-opacity="1"/>
<defs>
  <clipPath id="clip921">
    <rect x="480" y="0" width="1681" height="1360"/>
  </clipPath>
</defs>
<path clip-path="url(#clip920)" d="
M228.211 1197.89 L2352.76 1197.89 L2352.76 114.4 L228.211 114.4  Z
  " fill="#ffffff" fill-rule="evenodd" fill-opacity="1"/>
<defs>
  <clipPath id="clip922">
    <rect x="228" y="114" width="2126" height="1084"/>
  </clipPath>
</defs>
<polyline clip-path="url(#clip922)" style="stroke:#000000; stroke-linecap:butt; stroke-linejoin:round; stroke-width:2; stroke-opacity:0.1; fill:none" points="
  228.211,1197.89 228.211,114.4 
  "/>
<polyline clip-path="url(#clip922)" style="stroke:#000000; stroke-linecap:butt; stroke-linejoin:round; stroke-width:2; stroke-opacity:0.1; fill:none" points="
  653.12,1197.89 653.12,114.4 
  "/>
<polyline clip-path="url(#clip922)" style="stroke:#000000; stroke-linecap:butt; stroke-linejoin:round; stroke-width:2; stroke-opacity:0.1; fill:none" points="
  1078.03,1197.89 1078.03,114.4 
  "/>
<polyline clip-path="url(#clip922)" style="stroke:#000000; stroke-linecap:butt; stroke-linejoin:round; stroke-width:2; stroke-opacity:0.1; fill:none" points="
  1502.94,1197.89 1502.94,114.4 
  "/>
<polyline clip-path="url(#clip922)" style="stroke:#000000; stroke-linecap:butt; stroke-linejoin:round; stroke-width:2; stroke-opacity:0.1; fill:none" points="
  1927.85,1197.89 1927.85,114.4 
  "/>
<polyline clip-path="url(#clip922)" style="stroke:#000000; stroke-linecap:butt; stroke-linejoin:round; stroke-width:2; stroke-opacity:0.1; fill:none" points="
  2352.76,1197.89 2352.76,114.4 
  "/>
<polyline clip-path="url(#clip920)" style="stroke:#000000; stroke-linecap:butt; stroke-linejoin:round; stroke-width:4; stroke-opacity:1; fill:none" points="
  228.211,1197.89 2352.76,1197.89 
  "/>
<polyline clip-path="url(#clip920)" style="stroke:#000000; stroke-linecap:butt; stroke-linejoin:round; stroke-width:4; stroke-opacity:1; fill:none" points="
  228.211,114.4 2352.76,114.4 
  "/>
<polyline clip-path="url(#clip920)" style="stroke:#000000; stroke-linecap:butt; stroke-linejoin:round; stroke-width:4; stroke-opacity:1; fill:none" points="
  228.211,1197.89 228.211,1178.99 
  "/>
<polyline clip-path="url(#clip920)" style="stroke:#000000; stroke-linecap:butt; stroke-linejoin:round; stroke-width:4; stroke-opacity:1; fill:none" points="
  653.12,1197.89 653.12,1178.99 
  "/>
<polyline clip-path="url(#clip920)" style="stroke:#000000; stroke-linecap:butt; stroke-linejoin:round; stroke-width:4; stroke-opacity:1; fill:none" points="
  1078.03,1197.89 1078.03,1178.99 
  "/>
<polyline clip-path="url(#clip920)" style="stroke:#000000; stroke-linecap:butt; stroke-linejoin:round; stroke-width:4; stroke-opacity:1; fill:none" points="
  1502.94,1197.89 1502.94,1178.99 
  "/>
<polyline clip-path="url(#clip920)" style="stroke:#000000; stroke-linecap:butt; stroke-linejoin:round; stroke-width:4; stroke-opacity:1; fill:none" points="
  1927.85,1197.89 1927.85,1178.99 
  "/>
<polyline clip-path="url(#clip920)" style="stroke:#000000; stroke-linecap:butt; stroke-linejoin:round; stroke-width:4; stroke-opacity:1; fill:none" points="
  2352.76,1197.89 2352.76,1178.99 
  "/>
<path clip-path="url(#clip920)" d="M197.887 1242.38 Q197.887 1234.95 199.765 1230.9 Q202.383 1224.87 208.559 1224.87 Q209.868 1224.87 211.227 1225.24 Q212.61 1225.58 214.34 1226.94 Q216.094 1228.3 217.156 1230.53 Q219.181 1234.82 219.181 1242.38 Q219.181 1249.77 217.304 1253.8 Q214.562 1259.68 208.51 1259.68 Q206.237 1259.68 203.915 1258.51 Q201.617 1257.35 200.16 1254.56 Q197.887 1250.39 197.887 1242.38 M202.087 1241.77 Q202.087 1249.4 202.63 1252.44 Q203.248 1255.72 204.928 1257.16 Q206.632 1258.56 208.51 1258.56 Q210.535 1258.56 212.215 1257.06 Q213.92 1255.53 214.438 1252.24 Q215.007 1249 214.982 1241.77 Q214.982 1234.73 214.488 1231.91 Q213.821 1228.62 212.042 1227.31 Q210.288 1225.98 208.51 1225.98 Q207.843 1225.98 207.126 1226.18 Q206.435 1226.38 205.422 1226.94 Q204.409 1227.51 203.618 1228.92 Q202.853 1230.33 202.482 1232.45 Q202.087 1235.19 202.087 1241.77 Z" fill="#000000" fill-rule="evenodd" fill-opacity="1" /><path clip-path="url(#clip920)" d="M226.271 1257.75 Q225.506 1256.93 225.506 1255.87 Q225.506 1254.81 226.271 1254.04 Q227.037 1253.25 228.198 1253.25 Q229.31 1253.25 230.051 1253.99 Q230.817 1254.71 230.817 1255.9 Q230.817 1257.06 230.002 1257.82 Q229.211 1258.56 228.198 1258.56 Q227.037 1258.56 226.271 1257.75 Z" fill="#000000" fill-rule="evenodd" fill-opacity="1" /><path clip-path="url(#clip920)" d="M237.24 1242.38 Q237.24 1234.95 239.117 1230.9 Q241.736 1224.87 247.911 1224.87 Q249.221 1224.87 250.579 1225.24 Q251.963 1225.58 253.692 1226.94 Q255.446 1228.3 256.508 1230.53 Q258.534 1234.82 258.534 1242.38 Q258.534 1249.77 256.656 1253.8 Q253.914 1259.68 247.862 1259.68 Q245.589 1259.68 243.267 1258.51 Q240.97 1257.35 239.512 1254.56 Q237.24 1250.39 237.24 1242.38 M241.439 1241.77 Q241.439 1249.4 241.983 1252.44 Q242.6 1255.72 244.28 1257.16 Q245.985 1258.56 247.862 1258.56 Q249.888 1258.56 251.568 1257.06 Q253.272 1255.53 253.791 1252.24 Q254.359 1249 254.334 1241.77 Q254.334 1234.73 253.84 1231.91 Q253.173 1228.62 251.395 1227.31 Q249.641 1225.98 247.862 1225.98 Q247.195 1225.98 246.479 1226.18 Q245.787 1226.38 244.774 1226.94 Q243.761 1227.51 242.971 1228.92 Q242.205 1230.33 241.834 1232.45 Q241.439 1235.19 241.439 1241.77 Z" fill="#000000" fill-rule="evenodd" fill-opacity="1" /><path clip-path="url(#clip920)" d="M623.068 1242.38 Q623.068 1234.95 624.945 1230.9 Q627.564 1224.87 633.74 1224.87 Q635.049 1224.87 636.408 1225.24 Q637.791 1225.58 639.52 1226.94 Q641.274 1228.3 642.337 1230.53 Q644.362 1234.82 644.362 1242.38 Q644.362 1249.77 642.485 1253.8 Q639.743 1259.68 633.69 1259.68 Q631.418 1259.68 629.096 1258.51 Q626.798 1257.35 625.341 1254.56 Q623.068 1250.39 623.068 1242.38 M627.268 1241.77 Q627.268 1249.4 627.811 1252.44 Q628.429 1255.72 630.108 1257.16 Q631.813 1258.56 633.69 1258.56 Q635.716 1258.56 637.396 1257.06 Q639.1 1255.53 639.619 1252.24 Q640.187 1249 640.163 1241.77 Q640.163 1234.73 639.669 1231.91 Q639.002 1228.62 637.223 1227.31 Q635.469 1225.98 633.69 1225.98 Q633.023 1225.98 632.307 1226.18 Q631.615 1226.38 630.602 1226.94 Q629.59 1227.51 628.799 1228.92 Q628.033 1230.33 627.663 1232.45 Q627.268 1235.19 627.268 1241.77 Z" fill="#000000" fill-rule="evenodd" fill-opacity="1" /><path clip-path="url(#clip920)" d="M651.452 1257.75 Q650.686 1256.93 650.686 1255.87 Q650.686 1254.81 651.452 1254.04 Q652.218 1253.25 653.379 1253.25 Q654.491 1253.25 655.232 1253.99 Q655.998 1254.71 655.998 1255.9 Q655.998 1257.06 655.182 1257.82 Q654.392 1258.56 653.379 1258.56 Q652.218 1258.56 651.452 1257.75 Z" fill="#000000" fill-rule="evenodd" fill-opacity="1" /><path clip-path="url(#clip920)" d="M662.964 1258.56 Q662.964 1257.65 663.038 1257.38 Q663.137 1257.11 663.532 1256.69 L673.24 1245.87 Q678.552 1239.89 678.552 1234.68 Q678.552 1231.29 676.773 1228.87 Q675.019 1226.45 671.783 1226.45 Q669.56 1226.45 667.682 1227.81 Q665.805 1229.17 664.94 1231.59 Q665.088 1231.54 665.607 1231.54 Q666.867 1231.54 667.559 1232.33 Q668.275 1233.12 668.275 1234.18 Q668.275 1235.54 667.386 1236.21 Q666.521 1236.85 665.657 1236.85 Q665.311 1236.85 664.841 1236.78 Q664.397 1236.7 663.68 1236.01 Q662.964 1235.29 662.964 1234.03 Q662.964 1230.5 665.632 1227.68 Q668.325 1224.87 672.425 1224.87 Q677.07 1224.87 680.108 1227.64 Q683.171 1230.38 683.171 1234.68 Q683.171 1236.18 682.702 1237.57 Q682.257 1238.92 681.64 1239.99 Q681.047 1241.05 679.416 1242.75 Q677.786 1244.46 676.477 1245.67 Q675.167 1246.88 672.228 1249.45 L666.867 1254.66 L675.983 1254.66 Q680.429 1254.66 680.775 1254.27 Q681.269 1253.55 681.887 1249.77 L683.171 1249.77 L681.738 1258.56 L662.964 1258.56 Z" fill="#000000" fill-rule="evenodd" fill-opacity="1" /><path clip-path="url(#clip920)" d="M1047.42 1242.38 Q1047.42 1234.95 1049.3 1230.9 Q1051.92 1224.87 1058.09 1224.87 Q1059.4 1224.87 1060.76 1225.24 Q1062.14 1225.58 1063.87 1226.94 Q1065.63 1228.3 1066.69 1230.53 Q1068.72 1234.82 1068.72 1242.38 Q1068.72 1249.77 1066.84 1253.8 Q1064.1 1259.68 1058.04 1259.68 Q1055.77 1259.68 1053.45 1258.51 Q1051.15 1257.35 1049.69 1254.56 Q1047.42 1250.39 1047.42 1242.38 M1051.62 1241.77 Q1051.62 1249.4 1052.16 1252.44 Q1052.78 1255.72 1054.46 1257.16 Q1056.17 1258.56 1058.04 1258.56 Q1060.07 1258.56 1061.75 1257.06 Q1063.45 1255.53 1063.97 1252.24 Q1064.54 1249 1064.52 1241.77 Q1064.52 1234.73 1064.02 1231.91 Q1063.35 1228.62 1061.58 1227.31 Q1059.82 1225.98 1058.04 1225.98 Q1057.38 1225.98 1056.66 1226.18 Q1055.97 1226.38 1054.96 1226.94 Q1053.94 1227.51 1053.15 1228.92 Q1052.39 1230.33 1052.02 1232.45 Q1051.62 1235.19 1051.62 1241.77 Z" fill="#000000" fill-rule="evenodd" fill-opacity="1" /><path clip-path="url(#clip920)" d="M1075.81 1257.75 Q1075.04 1256.93 1075.04 1255.87 Q1075.04 1254.81 1075.81 1254.04 Q1076.57 1253.25 1077.73 1253.25 Q1078.84 1253.25 1079.58 1253.99 Q1080.35 1254.71 1080.35 1255.9 Q1080.35 1257.06 1079.54 1257.82 Q1078.75 1258.56 1077.73 1258.56 Q1076.57 1258.56 1075.81 1257.75 Z" fill="#000000" fill-rule="evenodd" fill-opacity="1" /><path clip-path="url(#clip920)" d="M1086.21 1250.21 L1086.21 1248.66 L1101.74 1224.92 Q1102.14 1224.3 1102.76 1224.32 Q1103.32 1224.32 1103.45 1224.55 Q1103.57 1224.77 1103.57 1225.63 L1103.57 1248.66 L1108.64 1248.66 L1108.64 1250.21 L1103.57 1250.21 L1103.57 1254.61 Q1103.57 1256.07 1104.16 1256.54 Q1104.78 1257.01 1107.4 1257.01 L1108.46 1257.01 L1108.46 1258.56 Q1106.39 1258.42 1101.6 1258.42 Q1096.83 1258.42 1094.75 1258.56 L1094.75 1257.01 L1095.82 1257.01 Q1098.43 1257.01 1099.05 1256.56 Q1099.67 1256.09 1099.67 1254.61 L1099.67 1250.21 L1086.21 1250.21 M1087.64 1248.66 L1099.97 1248.66 L1099.97 1229.78 L1087.64 1248.66 Z" fill="#000000" fill-rule="evenodd" fill-opacity="1" /><path clip-path="url(#clip920)" d="M1472.69 1242.38 Q1472.69 1234.95 1474.57 1230.9 Q1477.18 1224.87 1483.36 1224.87 Q1484.67 1224.87 1486.03 1225.24 Q1487.41 1225.58 1489.14 1226.94 Q1490.89 1228.3 1491.96 1230.53 Q1493.98 1234.82 1493.98 1242.38 Q1493.98 1249.77 1492.11 1253.8 Q1489.36 1259.68 1483.31 1259.68 Q1481.04 1259.68 1478.72 1258.51 Q1476.42 1257.35 1474.96 1254.56 Q1472.69 1250.39 1472.69 1242.38 M1476.89 1241.77 Q1476.89 1249.4 1477.43 1252.44 Q1478.05 1255.72 1479.73 1257.16 Q1481.43 1258.56 1483.31 1258.56 Q1485.34 1258.56 1487.02 1257.06 Q1488.72 1255.53 1489.24 1252.24 Q1489.81 1249 1489.78 1241.77 Q1489.78 1234.73 1489.29 1231.91 Q1488.62 1228.62 1486.84 1227.31 Q1485.09 1225.98 1483.31 1225.98 Q1482.64 1225.98 1481.93 1226.18 Q1481.24 1226.38 1480.22 1226.94 Q1479.21 1227.51 1478.42 1228.92 Q1477.65 1230.33 1477.28 1232.45 Q1476.89 1235.19 1476.89 1241.77 Z" fill="#000000" fill-rule="evenodd" fill-opacity="1" /><path clip-path="url(#clip920)" d="M1501.07 1257.75 Q1500.31 1256.93 1500.31 1255.87 Q1500.31 1254.81 1501.07 1254.04 Q1501.84 1253.25 1503 1253.25 Q1504.11 1253.25 1504.85 1253.99 Q1505.62 1254.71 1505.62 1255.9 Q1505.62 1257.06 1504.8 1257.82 Q1504.01 1258.56 1503 1258.56 Q1501.84 1258.56 1501.07 1257.75 Z" fill="#000000" fill-rule="evenodd" fill-opacity="1" /><path clip-path="url(#clip920)" d="M1512.19 1242.58 Q1512.19 1234.63 1516.24 1229.76 Q1520.29 1224.87 1525.5 1224.87 Q1528.54 1224.87 1530.22 1226.42 Q1531.93 1227.96 1531.93 1230.33 Q1531.93 1231.64 1531.16 1232.21 Q1530.4 1232.77 1529.61 1232.77 Q1528.69 1232.77 1527.97 1232.16 Q1527.26 1231.54 1527.26 1230.43 Q1527.26 1228.15 1530.05 1228.15 Q1528.74 1226.13 1525.6 1226.13 Q1524.64 1226.13 1523.65 1226.42 Q1522.66 1226.7 1521.38 1227.64 Q1520.09 1228.57 1519.11 1230.06 Q1518.12 1231.54 1517.43 1234.33 Q1516.73 1237.12 1516.73 1240.75 L1516.73 1241.96 Q1518.81 1236.95 1523.06 1236.97 Q1527.31 1236.97 1530.25 1240.21 Q1533.19 1243.45 1533.19 1248.24 Q1533.19 1253.15 1530.12 1256.41 Q1527.06 1259.68 1522.76 1259.68 Q1520.84 1259.68 1519.08 1258.86 Q1517.35 1258.07 1515.72 1256.24 Q1514.12 1254.41 1513.15 1250.91 Q1512.19 1247.4 1512.19 1242.58 M1516.83 1247.13 Q1516.83 1252.09 1517.75 1254.46 Q1517.9 1254.86 1518.22 1255.4 Q1518.56 1255.95 1519.13 1256.66 Q1519.72 1257.35 1520.69 1257.82 Q1521.65 1258.27 1522.76 1258.27 Q1526.15 1258.27 1527.78 1254.98 Q1528.64 1253.15 1528.64 1248.19 Q1528.64 1243.12 1527.73 1241.27 Q1526.17 1238.13 1523.01 1238.13 Q1520.88 1238.13 1519.4 1239.59 Q1517.95 1241.05 1517.38 1243 Q1516.83 1244.95 1516.83 1247.13 Z" fill="#000000" fill-rule="evenodd" fill-opacity="1" /><path clip-path="url(#clip920)" d="M1897.6 1242.38 Q1897.6 1234.95 1899.48 1230.9 Q1902.09 1224.87 1908.27 1224.87 Q1909.58 1224.87 1910.94 1225.24 Q1912.32 1225.58 1914.05 1226.94 Q1915.8 1228.3 1916.87 1230.53 Q1918.89 1234.82 1918.89 1242.38 Q1918.89 1249.77 1917.01 1253.8 Q1914.27 1259.68 1908.22 1259.68 Q1905.95 1259.68 1903.63 1258.51 Q1901.33 1257.35 1899.87 1254.56 Q1897.6 1250.39 1897.6 1242.38 M1901.8 1241.77 Q1901.8 1249.4 1902.34 1252.44 Q1902.96 1255.72 1904.64 1257.16 Q1906.34 1258.56 1908.22 1258.56 Q1910.25 1258.56 1911.93 1257.06 Q1913.63 1255.53 1914.15 1252.24 Q1914.72 1249 1914.69 1241.77 Q1914.69 1234.73 1914.2 1231.91 Q1913.53 1228.62 1911.75 1227.31 Q1910 1225.98 1908.22 1225.98 Q1907.55 1225.98 1906.84 1226.18 Q1906.14 1226.38 1905.13 1226.94 Q1904.12 1227.51 1903.33 1228.92 Q1902.56 1230.33 1902.19 1232.45 Q1901.8 1235.19 1901.8 1241.77 Z" fill="#000000" fill-rule="evenodd" fill-opacity="1" /><path clip-path="url(#clip920)" d="M1925.98 1257.75 Q1925.22 1256.93 1925.22 1255.87 Q1925.22 1254.81 1925.98 1254.04 Q1926.75 1253.25 1927.91 1253.25 Q1929.02 1253.25 1929.76 1253.99 Q1930.53 1254.71 1930.53 1255.9 Q1930.53 1257.06 1929.71 1257.82 Q1928.92 1258.56 1927.91 1258.56 Q1926.75 1258.56 1925.98 1257.75 Z" fill="#000000" fill-rule="evenodd" fill-opacity="1" /><path clip-path="url(#clip920)" d="M1937.1 1250.93 Q1937.1 1245.27 1944.39 1241.62 Q1941.25 1239.49 1940.68 1238.88 Q1938.46 1236.4 1938.46 1233.32 Q1938.46 1229.78 1941.12 1227.34 Q1943.82 1224.87 1947.62 1224.87 Q1951.25 1224.87 1954 1226.97 Q1956.74 1229.07 1956.74 1232.4 Q1956.74 1237.1 1950.61 1240.26 Q1954.66 1242.78 1955.63 1243.84 Q1958.1 1246.58 1958.1 1250.07 Q1958.1 1254.12 1954.98 1256.91 Q1951.87 1259.68 1947.57 1259.68 Q1943.37 1259.68 1940.24 1257.23 Q1937.1 1254.78 1937.1 1250.93 M1939.62 1250.93 Q1939.62 1254.07 1941.96 1256.17 Q1944.34 1258.27 1947.62 1258.27 Q1950.81 1258.27 1953.18 1256.44 Q1955.58 1254.61 1955.58 1251.89 Q1955.58 1250.83 1955.21 1249.92 Q1954.86 1249 1954.14 1248.29 Q1953.45 1247.55 1953.01 1247.23 Q1952.59 1246.88 1951.77 1246.31 L1945.55 1242.38 Q1939.62 1245.67 1939.62 1250.93 M1940.68 1231.34 Q1940.68 1233.76 1943.22 1235.44 L1949.5 1239.49 Q1954.51 1236.55 1954.51 1232.4 Q1954.51 1229.71 1952.46 1227.93 Q1950.41 1226.13 1947.57 1226.13 Q1944.78 1226.13 1942.73 1227.61 Q1940.68 1229.07 1940.68 1231.34 Z" fill="#000000" fill-rule="evenodd" fill-opacity="1" /><path clip-path="url(#clip920)" d="M2323.69 1229.69 L2323.69 1228.1 Q2329.77 1228.1 2332.91 1224.87 Q2333.77 1224.87 2333.92 1225.07 Q2334.07 1225.26 2334.07 1226.18 L2334.07 1254.56 Q2334.07 1256.07 2334.81 1256.54 Q2335.55 1257.01 2338.79 1257.01 L2340.39 1257.01 L2340.39 1258.56 Q2338.61 1258.42 2332.19 1258.42 Q2325.77 1258.42 2324.01 1258.56 L2324.01 1257.01 L2325.62 1257.01 Q2328.81 1257.01 2329.57 1256.56 Q2330.34 1256.09 2330.34 1254.56 L2330.34 1228.35 Q2327.69 1229.69 2323.69 1229.69 Z" fill="#000000" fill-rule="evenodd" fill-opacity="1" /><path clip-path="url(#clip920)" d="M2349.56 1257.75 Q2348.79 1256.93 2348.79 1255.87 Q2348.79 1254.81 2349.56 1254.04 Q2350.32 1253.25 2351.48 1253.25 Q2352.6 1253.25 2353.34 1253.99 Q2354.1 1254.71 2354.1 1255.9 Q2354.1 1257.06 2353.29 1257.82 Q2352.5 1258.56 2351.48 1258.56 Q2350.32 1258.56 2349.56 1257.75 Z" fill="#000000" fill-rule="evenodd" fill-opacity="1" /><path clip-path="url(#clip920)" d="M2360.53 1242.38 Q2360.53 1234.95 2362.4 1230.9 Q2365.02 1224.87 2371.2 1224.87 Q2372.51 1224.87 2373.86 1225.24 Q2375.25 1225.58 2376.98 1226.94 Q2378.73 1228.3 2379.79 1230.53 Q2381.82 1234.82 2381.82 1242.38 Q2381.82 1249.77 2379.94 1253.8 Q2377.2 1259.68 2371.15 1259.68 Q2368.87 1259.68 2366.55 1258.51 Q2364.26 1257.35 2362.8 1254.56 Q2360.53 1250.39 2360.53 1242.38 M2364.72 1241.77 Q2364.72 1249.4 2365.27 1252.44 Q2365.89 1255.72 2367.57 1257.16 Q2369.27 1258.56 2371.15 1258.56 Q2373.17 1258.56 2374.85 1257.06 Q2376.56 1255.53 2377.08 1252.24 Q2377.64 1249 2377.62 1241.77 Q2377.62 1234.73 2377.13 1231.91 Q2376.46 1228.62 2374.68 1227.31 Q2372.93 1225.98 2371.15 1225.98 Q2370.48 1225.98 2369.76 1226.18 Q2369.07 1226.38 2368.06 1226.94 Q2367.05 1227.51 2366.26 1228.92 Q2365.49 1230.33 2365.12 1232.45 Q2364.72 1235.19 2364.72 1241.77 Z" fill="#000000" fill-rule="evenodd" fill-opacity="1" /><path clip-path="url(#clip920)" d="M1178.46 1323.12 Q1178.46 1328.08 1175.95 1332.87 Q1173.47 1337.66 1169.56 1340.62 Q1165.65 1343.54 1161.68 1343.54 Q1159.3 1343.54 1157.71 1342.25 Q1156.14 1340.92 1155.29 1339.05 Q1154.65 1341.36 1153.26 1346.9 Q1151.86 1352.44 1151.86 1352.98 Q1151.86 1353.29 1151.93 1353.42 Q1152 1353.56 1152.3 1353.73 Q1152.61 1353.93 1153.36 1354 Q1154.11 1354.1 1155.36 1354.1 Q1156.01 1354.1 1156.25 1354.1 Q1156.52 1354.13 1156.75 1354.3 Q1157.03 1354.47 1157.03 1354.85 Q1157.03 1356.24 1155.77 1356.24 Q1154.65 1356.24 1152.34 1356.14 Q1150.03 1356.04 1148.87 1356.04 Q1147.89 1356.04 1145.92 1356.14 Q1143.95 1356.24 1143.03 1356.24 Q1142.11 1356.24 1142.11 1355.43 Q1142.11 1354.95 1142.25 1354.64 Q1142.35 1354.37 1142.62 1354.24 Q1142.9 1354.13 1143.13 1354.1 Q1143.34 1354.1 1143.75 1354.1 Q1145.31 1354.1 1145.99 1353.83 Q1146.67 1353.59 1146.9 1353.08 Q1147.18 1352.61 1147.48 1351.25 L1155.29 1320.27 Q1155.77 1318.2 1155.77 1316.74 Q1155.77 1314.9 1155.19 1314.22 Q1154.61 1313.54 1153.6 1313.54 Q1151.83 1313.54 1150.67 1315.65 Q1149.52 1317.76 1148.53 1321.83 Q1148.23 1322.95 1148.03 1323.19 Q1147.86 1323.43 1147.35 1323.43 Q1146.5 1323.39 1146.5 1322.72 Q1146.5 1322.55 1146.77 1321.46 Q1147.04 1320.34 1147.55 1318.71 Q1148.09 1317.04 1148.67 1315.99 Q1149.01 1315.28 1149.32 1314.8 Q1149.62 1314.33 1150.23 1313.58 Q1150.88 1312.83 1151.8 1312.42 Q1152.71 1312.02 1153.83 1312.02 Q1156.01 1312.02 1157.81 1313.31 Q1159.61 1314.6 1160.08 1317.21 Q1162.02 1314.94 1164.4 1313.48 Q1166.77 1312.02 1169.19 1312.02 Q1173.19 1312.02 1175.81 1315.14 Q1178.46 1318.23 1178.46 1323.12 M1173.43 1320.07 Q1173.43 1316.97 1172.24 1315.28 Q1171.09 1313.54 1168.98 1313.54 Q1166.37 1313.54 1163.34 1316.19 Q1160.36 1318.71 1159.74 1321.05 L1156.31 1334.67 L1156.11 1335.79 Q1156.11 1336 1156.21 1336.61 Q1156.35 1337.19 1156.72 1338.14 Q1157.13 1339.09 1157.67 1339.94 Q1158.25 1340.75 1159.27 1341.36 Q1160.32 1341.97 1161.61 1341.97 Q1163.68 1341.97 1165.93 1340.14 Q1168.2 1338.31 1169.9 1334.84 Q1170.95 1332.6 1172.18 1327.78 Q1173.43 1322.92 1173.43 1320.07 Z" fill="#000000" fill-rule="evenodd" fill-opacity="1" /><path clip-path="url(#clip920)" d="M1186.24 1325.36 Q1186.24 1313.61 1190.62 1304.14 Q1192.49 1300.16 1195.1 1296.83 Q1197.72 1293.5 1199.45 1292.04 Q1201.18 1290.58 1201.66 1290.58 Q1202.34 1290.58 1202.37 1291.26 Q1202.37 1291.6 1201.46 1292.45 Q1190.25 1303.86 1190.28 1325.36 Q1190.28 1346.93 1201.18 1357.91 Q1202.37 1359.09 1202.37 1359.47 Q1202.37 1360.15 1201.66 1360.15 Q1201.18 1360.15 1199.52 1358.75 Q1197.85 1357.36 1195.27 1354.17 Q1192.69 1350.98 1190.82 1347.07 Q1186.24 1337.59 1186.24 1325.36 Z" fill="#000000" fill-rule="evenodd" fill-opacity="1" /><path clip-path="url(#clip920)" d="M1208.55 1342.76 L1208.55 1340.62 Q1212.26 1340.62 1213.11 1340.17 Q1213.96 1339.7 1213.96 1337.46 L1213.96 1301.28 Q1213.96 1298.7 1213.04 1298.06 Q1212.16 1297.41 1208.55 1297.41 L1208.55 1295.24 L1218.54 1294.49 L1218.54 1318.67 L1218.61 1318.67 Q1219.73 1316.16 1222.24 1314.09 Q1224.76 1312.02 1228.63 1312.02 Q1233.86 1312.02 1235.93 1314.6 Q1237.46 1316.33 1237.77 1318.27 Q1238.11 1320.2 1238.11 1325.23 L1238.11 1338.51 Q1238.17 1339.97 1239.29 1340.31 Q1240.42 1340.62 1243.54 1340.62 L1243.54 1342.76 Q1236.44 1342.55 1235.73 1342.55 Q1235.18 1342.55 1227.88 1342.76 L1227.88 1340.62 Q1231.58 1340.62 1232.43 1340.17 Q1233.32 1339.7 1233.32 1337.46 L1233.32 1321.25 Q1233.32 1317.72 1232.23 1315.65 Q1231.14 1313.54 1228.15 1313.54 Q1224.55 1313.54 1221.67 1316.57 Q1218.78 1319.59 1218.78 1324.69 L1218.78 1337.46 Q1218.78 1339.7 1219.63 1340.17 Q1220.51 1340.62 1224.18 1340.62 L1224.18 1342.76 Q1217.08 1342.55 1216.4 1342.55 Q1215.86 1342.55 1208.55 1342.76 Z" fill="#000000" fill-rule="evenodd" fill-opacity="1" /><path clip-path="url(#clip920)" d="M1245.21 1314.94 L1245.21 1312.76 L1255.43 1312.02 L1255.43 1335.11 Q1255.43 1336.78 1255.57 1337.76 Q1255.7 1338.71 1256.24 1339.83 Q1256.82 1340.96 1258.11 1341.47 Q1259.44 1341.97 1261.54 1341.97 Q1265.31 1341.97 1267.62 1338.88 Q1269.97 1335.79 1269.97 1331.21 L1269.97 1318.81 Q1269.97 1316.23 1269.05 1315.58 Q1268.13 1314.94 1264.53 1314.94 L1264.53 1312.76 L1274.76 1312.02 L1274.76 1336.71 Q1274.76 1339.29 1275.64 1339.97 Q1276.56 1340.62 1280.19 1340.62 L1280.19 1342.76 L1270.17 1343.54 L1270.17 1337.25 Q1267.25 1343.5 1261.2 1343.54 Q1258.15 1343.54 1256.04 1342.76 Q1253.97 1341.97 1252.92 1341.02 Q1251.86 1340.04 1251.29 1338.17 Q1250.74 1336.3 1250.67 1335.15 Q1250.61 1333.99 1250.61 1331.75 L1250.61 1321.32 Q1250.61 1316.6 1249.93 1315.79 Q1249.25 1314.94 1245.21 1314.94 Z" fill="#000000" fill-rule="evenodd" fill-opacity="1" /><path clip-path="url(#clip920)" d="M1283.79 1342.76 L1283.79 1340.62 Q1287.49 1340.62 1288.34 1340.17 Q1289.19 1339.7 1289.19 1337.46 L1289.19 1318.81 Q1289.19 1316.23 1288.28 1315.58 Q1287.39 1314.94 1283.79 1314.94 L1283.79 1312.76 L1293.57 1312.02 L1293.57 1319.32 Q1296.84 1312.02 1303.87 1312.02 Q1309.1 1312.02 1311.17 1314.6 Q1312.7 1316.33 1313 1318.27 Q1313.34 1320.2 1313.34 1325.23 L1313.34 1338.51 Q1313.41 1339.97 1314.53 1340.31 Q1315.65 1340.62 1318.78 1340.62 L1318.78 1342.76 Q1311.68 1342.55 1310.97 1342.55 Q1310.42 1342.55 1303.12 1342.76 L1303.12 1340.62 Q1306.82 1340.62 1307.67 1340.17 Q1308.55 1339.7 1308.55 1337.46 L1308.55 1321.25 Q1308.55 1317.72 1307.47 1315.65 Q1306.38 1313.54 1303.39 1313.54 Q1299.79 1313.54 1296.9 1316.57 Q1294.02 1319.59 1294.02 1324.69 L1294.02 1337.46 Q1294.02 1339.7 1294.86 1340.17 Q1295.75 1340.62 1299.42 1340.62 L1299.42 1342.76 Q1292.32 1342.55 1291.64 1342.55 Q1291.09 1342.55 1283.79 1342.76 Z" fill="#000000" fill-rule="evenodd" fill-opacity="1" /><path clip-path="url(#clip920)" d="M1322.07 1348.26 Q1322.07 1346.02 1323.77 1344.08 Q1325.5 1342.14 1328.49 1341.3 Q1325.44 1339.36 1325.44 1335.11 Q1325.44 1331.85 1327.58 1329.34 Q1324.31 1326.62 1324.31 1322.17 Q1324.31 1318.06 1327.58 1315.04 Q1330.84 1312.02 1335.59 1312.02 Q1339.77 1312.02 1342.96 1314.53 Q1346.29 1311.27 1350.33 1311.23 Q1352.13 1311.23 1352.98 1312.36 Q1353.87 1313.48 1353.87 1314.67 Q1353.87 1315.72 1353.19 1316.23 Q1352.54 1316.74 1351.86 1316.74 Q1351.01 1316.74 1350.4 1316.19 Q1349.82 1315.62 1349.82 1314.73 Q1349.82 1313.27 1350.94 1312.83 Q1350.74 1312.76 1350.27 1312.76 Q1346.87 1312.76 1343.98 1315.48 Q1346.83 1318.13 1346.83 1322.24 Q1346.83 1326.35 1343.57 1329.37 Q1340.31 1332.4 1335.59 1332.4 Q1331.69 1332.4 1328.7 1330.22 Q1327.51 1331.61 1327.51 1333.52 Q1327.51 1335.25 1328.56 1336.61 Q1329.61 1337.97 1331.21 1338.17 Q1331.69 1338.24 1336.41 1338.24 Q1339.19 1338.24 1340.72 1338.31 Q1342.25 1338.37 1344.42 1338.85 Q1346.63 1339.29 1348.36 1340.17 Q1352.88 1342.69 1352.91 1348.12 Q1352.91 1352.1 1348.33 1354.58 Q1343.78 1357.09 1337.46 1357.09 Q1331.07 1357.09 1326.56 1354.54 Q1322.07 1352.03 1322.07 1348.26 M1325.71 1348.26 Q1325.71 1351.11 1329.07 1353.29 Q1332.43 1355.49 1337.53 1355.49 Q1342.52 1355.49 1345.88 1353.32 Q1349.28 1351.18 1349.28 1348.26 Q1349.28 1346.19 1348.09 1344.86 Q1346.9 1343.54 1344.46 1342.99 Q1342.05 1342.48 1340.35 1342.38 Q1338.65 1342.28 1335.52 1342.28 L1331.41 1342.28 Q1329.04 1342.42 1327.37 1344.15 Q1325.71 1345.88 1325.71 1348.26 M1329.51 1322.24 Q1329.51 1330.8 1335.59 1330.8 Q1338.65 1330.8 1340.52 1328.01 Q1341.64 1326.15 1341.64 1322.17 Q1341.64 1313.61 1335.59 1313.61 Q1332.53 1313.61 1330.63 1316.4 Q1329.51 1318.27 1329.51 1322.24 Z" fill="#000000" fill-rule="evenodd" fill-opacity="1" /><path clip-path="url(#clip920)" d="M1356.85 1342.76 L1356.85 1340.62 Q1360.56 1340.62 1361.41 1340.17 Q1362.29 1339.7 1362.29 1337.46 L1362.29 1318.81 Q1362.29 1316.23 1361.37 1315.58 Q1360.49 1314.94 1356.85 1314.94 L1356.85 1312.76 L1366.54 1312.02 L1366.54 1319.66 Q1367.52 1316.67 1369.59 1314.36 Q1371.7 1312.02 1375.1 1312.02 Q1377.34 1312.02 1378.76 1313.27 Q1380.22 1314.53 1380.22 1316.26 Q1380.22 1317.79 1379.27 1318.57 Q1378.36 1319.32 1377.24 1319.32 Q1375.98 1319.32 1375.1 1318.54 Q1374.25 1317.72 1374.25 1316.33 Q1374.25 1315.48 1374.62 1314.83 Q1375.03 1314.16 1375.33 1313.92 Q1375.64 1313.68 1375.84 1313.61 Q1375.71 1313.54 1375.1 1313.54 Q1371.26 1313.54 1369.05 1317.38 Q1366.88 1321.19 1366.88 1326.62 L1366.88 1337.32 Q1366.88 1339.33 1367.69 1339.97 Q1368.54 1340.62 1372.17 1340.62 L1373.63 1340.62 L1373.63 1342.76 Q1370.85 1342.55 1364.8 1342.55 Q1363.95 1342.55 1362.63 1342.59 Q1361.3 1342.62 1359.57 1342.69 Q1357.84 1342.76 1356.85 1342.76 Z" fill="#000000" fill-rule="evenodd" fill-opacity="1" /><path clip-path="url(#clip920)" d="M1383.42 1351.38 Q1383.42 1349.92 1384.27 1349.14 Q1385.15 1348.39 1386.34 1348.39 Q1387.6 1348.39 1388.41 1349.18 Q1389.26 1349.99 1389.26 1351.32 Q1389.26 1353.9 1386.54 1354.24 Q1387.87 1355.49 1389.8 1355.49 Q1391.88 1355.49 1393.54 1353.96 Q1395.24 1352.44 1395.95 1350.98 Q1396.7 1349.52 1397.75 1346.87 Q1398.74 1344.79 1399.48 1342.76 L1389.06 1317.35 Q1388.38 1315.68 1387.32 1315.31 Q1386.27 1314.94 1383.42 1314.94 L1383.42 1312.76 Q1386.54 1312.97 1390.18 1312.97 Q1392.32 1312.97 1397.75 1312.76 L1397.75 1314.94 Q1393.85 1314.94 1393.85 1316.74 Q1393.85 1316.94 1394.25 1317.99 L1402 1336.71 L1409.03 1319.59 Q1409.44 1318.61 1409.44 1317.93 Q1409.44 1315.07 1406.18 1314.94 L1406.18 1312.76 Q1410.76 1312.97 1412.22 1312.97 Q1415.07 1312.97 1417.42 1312.76 L1417.42 1314.94 Q1412.76 1314.94 1410.96 1319.39 L1398.7 1349.07 Q1395.37 1356.99 1389.8 1357.02 Q1387.15 1357.02 1385.29 1355.39 Q1383.42 1353.76 1383.42 1351.38 Z" fill="#000000" fill-rule="evenodd" fill-opacity="1" /><path clip-path="url(#clip920)" d="M1422.72 1359.47 Q1422.72 1359.13 1423.6 1358.28 Q1434.81 1346.87 1434.81 1325.36 Q1434.81 1303.8 1424.04 1292.89 Q1422.72 1291.64 1422.72 1291.26 Q1422.72 1290.58 1423.4 1290.58 Q1423.87 1290.58 1425.54 1291.97 Q1427.23 1293.37 1429.78 1296.56 Q1432.36 1299.75 1434.27 1303.66 Q1438.85 1313.14 1438.85 1325.36 Q1438.85 1337.12 1434.47 1346.59 Q1432.6 1350.57 1429.99 1353.9 Q1427.37 1357.23 1425.64 1358.69 Q1423.91 1360.15 1423.4 1360.15 Q1422.72 1360.15 1422.72 1359.47 Z" fill="#000000" fill-rule="evenodd" fill-opacity="1" /><polyline clip-path="url(#clip922)" style="stroke:#000000; stroke-linecap:butt; stroke-linejoin:round; stroke-width:2; stroke-opacity:0.1; fill:none" points="
  228.211,1197.89 2352.76,1197.89 
  "/>
<polyline clip-path="url(#clip922)" style="stroke:#000000; stroke-linecap:butt; stroke-linejoin:round; stroke-width:2; stroke-opacity:0.1; fill:none" points="
  228.211,836.728 2352.76,836.728 
  "/>
<polyline clip-path="url(#clip922)" style="stroke:#000000; stroke-linecap:butt; stroke-linejoin:round; stroke-width:2; stroke-opacity:0.1; fill:none" points="
  228.211,475.564 2352.76,475.564 
  "/>
<polyline clip-path="url(#clip922)" style="stroke:#000000; stroke-linecap:butt; stroke-linejoin:round; stroke-width:2; stroke-opacity:0.1; fill:none" points="
  228.211,114.4 2352.76,114.4 
  "/>
<polyline clip-path="url(#clip920)" style="stroke:#000000; stroke-linecap:butt; stroke-linejoin:round; stroke-width:4; stroke-opacity:1; fill:none" points="
  228.211,1197.89 228.211,114.4 
  "/>
<polyline clip-path="url(#clip920)" style="stroke:#000000; stroke-linecap:butt; stroke-linejoin:round; stroke-width:4; stroke-opacity:1; fill:none" points="
  2352.76,1197.89 2352.76,114.4 
  "/>
<polyline clip-path="url(#clip920)" style="stroke:#000000; stroke-linecap:butt; stroke-linejoin:round; stroke-width:4; stroke-opacity:1; fill:none" points="
  228.211,1197.89 247.108,1197.89 
  "/>
<polyline clip-path="url(#clip920)" style="stroke:#000000; stroke-linecap:butt; stroke-linejoin:round; stroke-width:4; stroke-opacity:1; fill:none" points="
  228.211,836.728 247.108,836.728 
  "/>
<polyline clip-path="url(#clip920)" style="stroke:#000000; stroke-linecap:butt; stroke-linejoin:round; stroke-width:4; stroke-opacity:1; fill:none" points="
  228.211,475.564 247.108,475.564 
  "/>
<polyline clip-path="url(#clip920)" style="stroke:#000000; stroke-linecap:butt; stroke-linejoin:round; stroke-width:4; stroke-opacity:1; fill:none" points="
  228.211,114.4 247.108,114.4 
  "/>
<path clip-path="url(#clip920)" d="M140.531 1201.81 Q140.828 1202.1 140.828 1202.52 Q140.828 1202.94 140.531 1203.24 Q140.235 1203.54 139.815 1203.54 L108.145 1203.54 Q107.725 1203.54 107.429 1203.24 Q107.132 1202.94 107.132 1202.52 Q107.132 1202.1 107.429 1201.81 Q107.725 1201.51 108.145 1201.51 L139.815 1201.51 Q140.235 1201.51 140.531 1201.81 Z" fill="#000000" fill-rule="evenodd" fill-opacity="1" /><path clip-path="url(#clip920)" d="M145.052 1206.82 L145.052 1205.27 L160.59 1181.53 Q160.985 1180.91 161.603 1180.93 Q162.171 1180.93 162.295 1181.16 Q162.418 1181.38 162.418 1182.24 L162.418 1205.27 L167.482 1205.27 L167.482 1206.82 L162.418 1206.82 L162.418 1211.22 Q162.418 1212.68 163.011 1213.15 Q163.629 1213.62 166.247 1213.62 L167.31 1213.62 L167.31 1215.17 Q165.234 1215.02 160.442 1215.02 Q155.674 1215.02 153.599 1215.17 L153.599 1213.62 L154.661 1213.62 Q157.28 1213.62 157.898 1213.17 Q158.515 1212.7 158.515 1211.22 L158.515 1206.82 L145.052 1206.82 M146.485 1205.27 L158.812 1205.27 L158.812 1186.39 L146.485 1205.27 Z" fill="#000000" fill-rule="evenodd" fill-opacity="1" /><path clip-path="url(#clip920)" d="M170.916 1198.99 Q170.916 1191.56 172.794 1187.5 Q175.412 1181.48 181.588 1181.48 Q182.897 1181.48 184.256 1181.85 Q185.639 1182.19 187.369 1183.55 Q189.123 1184.91 190.185 1187.13 Q192.211 1191.43 192.211 1198.99 Q192.211 1206.38 190.333 1210.4 Q187.591 1216.28 181.539 1216.28 Q179.266 1216.28 176.944 1215.12 Q174.646 1213.96 173.189 1211.17 Q170.916 1207 170.916 1198.99 M175.116 1198.37 Q175.116 1206.01 175.659 1209.05 Q176.277 1212.33 177.957 1213.76 Q179.661 1215.17 181.539 1215.17 Q183.564 1215.17 185.244 1213.66 Q186.949 1212.13 187.467 1208.85 Q188.036 1205.61 188.011 1198.37 Q188.011 1191.33 187.517 1188.52 Q186.85 1185.23 185.071 1183.92 Q183.317 1182.59 181.539 1182.59 Q180.872 1182.59 180.155 1182.79 Q179.464 1182.98 178.451 1183.55 Q177.438 1184.12 176.647 1185.53 Q175.882 1186.94 175.511 1189.06 Q175.116 1191.8 175.116 1198.37 Z" fill="#000000" fill-rule="evenodd" fill-opacity="1" /><path clip-path="url(#clip920)" d="M140.531 840.643 Q140.828 840.94 140.828 841.36 Q140.828 841.78 140.531 842.076 Q140.235 842.373 139.815 842.373 L108.145 842.373 Q107.725 842.373 107.429 842.076 Q107.132 841.78 107.132 841.36 Q107.132 840.94 107.429 840.643 Q107.725 840.347 108.145 840.347 L139.815 840.347 Q140.235 840.347 140.531 840.643 Z" fill="#000000" fill-rule="evenodd" fill-opacity="1" /><path clip-path="url(#clip920)" d="M145.768 847.19 Q145.768 845.683 146.633 844.967 Q147.497 844.25 148.609 844.25 Q149.77 844.25 150.585 845.016 Q151.425 845.757 151.425 847.066 Q151.425 848.474 150.437 849.265 Q149.474 850.055 148.09 849.858 Q149.301 851.883 151.524 852.797 Q153.772 853.711 155.847 853.711 Q158.021 853.711 159.775 851.834 Q161.554 849.957 161.554 845.362 Q161.554 841.459 160.022 839.211 Q158.515 836.963 155.526 836.963 L153.303 836.963 Q152.537 836.963 152.315 836.889 Q152.092 836.814 152.092 836.394 Q152.092 835.9 152.858 835.802 Q153.624 835.802 154.834 835.653 Q157.774 835.555 159.33 833.01 Q160.738 830.639 160.738 827.254 Q160.738 824.166 159.256 822.882 Q157.799 821.572 155.897 821.572 Q154.118 821.572 152.166 822.314 Q150.215 823.055 149.153 824.71 Q152.29 824.71 152.29 827.254 Q152.29 828.366 151.574 829.107 Q150.882 829.823 149.721 829.823 Q148.609 829.823 147.868 829.132 Q147.127 828.415 147.127 827.205 Q147.127 824.314 149.696 822.314 Q152.29 820.313 156.094 820.313 Q159.849 820.313 162.616 822.289 Q165.407 824.265 165.407 827.304 Q165.407 830.293 163.431 832.738 Q161.455 835.184 158.318 836.197 Q162.171 836.963 164.469 839.581 Q166.766 842.175 166.766 845.362 Q166.766 849.314 163.653 852.229 Q160.541 855.12 155.995 855.12 Q151.796 855.12 148.782 852.847 Q145.768 850.574 145.768 847.19 Z" fill="#000000" fill-rule="evenodd" fill-opacity="1" /><path clip-path="url(#clip920)" d="M170.916 837.827 Q170.916 830.392 172.794 826.34 Q175.412 820.313 181.588 820.313 Q182.897 820.313 184.256 820.683 Q185.639 821.029 187.369 822.388 Q189.123 823.746 190.185 825.97 Q192.211 830.268 192.211 837.827 Q192.211 845.214 190.333 849.24 Q187.591 855.12 181.539 855.12 Q179.266 855.12 176.944 853.959 Q174.646 852.797 173.189 850.006 Q170.916 845.831 170.916 837.827 M175.116 837.21 Q175.116 844.843 175.659 847.882 Q176.277 851.167 177.957 852.6 Q179.661 854.008 181.539 854.008 Q183.564 854.008 185.244 852.501 Q186.949 850.969 187.467 847.684 Q188.036 844.448 188.011 837.21 Q188.011 830.169 187.517 827.353 Q186.85 824.067 185.071 822.758 Q183.317 821.424 181.539 821.424 Q180.872 821.424 180.155 821.622 Q179.464 821.819 178.451 822.388 Q177.438 822.956 176.647 824.364 Q175.882 825.772 175.511 827.896 Q175.116 830.639 175.116 837.21 Z" fill="#000000" fill-rule="evenodd" fill-opacity="1" /><path clip-path="url(#clip920)" d="M140.531 479.48 Q140.828 479.776 140.828 480.196 Q140.828 480.616 140.531 480.912 Q140.235 481.209 139.815 481.209 L108.145 481.209 Q107.725 481.209 107.429 480.912 Q107.132 480.616 107.132 480.196 Q107.132 479.776 107.429 479.48 Q107.725 479.183 108.145 479.183 L139.815 479.183 Q140.235 479.183 140.531 479.48 Z" fill="#000000" fill-rule="evenodd" fill-opacity="1" /><path clip-path="url(#clip920)" d="M146.163 492.844 Q146.163 491.93 146.238 491.658 Q146.336 491.387 146.732 490.967 L156.44 480.147 Q161.751 474.168 161.751 468.956 Q161.751 465.572 159.973 463.151 Q158.219 460.73 154.983 460.73 Q152.759 460.73 150.882 462.088 Q149.004 463.447 148.14 465.868 Q148.288 465.819 148.807 465.819 Q150.067 465.819 150.758 466.609 Q151.475 467.4 151.475 468.462 Q151.475 469.821 150.585 470.487 Q149.721 471.13 148.856 471.13 Q148.51 471.13 148.041 471.056 Q147.596 470.982 146.88 470.29 Q146.163 469.573 146.163 468.314 Q146.163 464.781 148.831 461.965 Q151.524 459.149 155.625 459.149 Q160.269 459.149 163.308 461.915 Q166.371 464.657 166.371 468.956 Q166.371 470.463 165.901 471.846 Q165.457 473.205 164.839 474.267 Q164.246 475.329 162.616 477.034 Q160.985 478.738 159.676 479.949 Q158.367 481.159 155.427 483.728 L150.067 488.941 L159.182 488.941 Q163.629 488.941 163.975 488.546 Q164.469 487.829 165.086 484.05 L166.371 484.05 L164.938 492.844 L146.163 492.844 Z" fill="#000000" fill-rule="evenodd" fill-opacity="1" /><path clip-path="url(#clip920)" d="M170.916 476.663 Q170.916 469.228 172.794 465.176 Q175.412 459.149 181.588 459.149 Q182.897 459.149 184.256 459.519 Q185.639 459.865 187.369 461.224 Q189.123 462.582 190.185 464.806 Q192.211 469.104 192.211 476.663 Q192.211 484.05 190.333 488.076 Q187.591 493.956 181.539 493.956 Q179.266 493.956 176.944 492.795 Q174.646 491.634 173.189 488.842 Q170.916 484.667 170.916 476.663 M175.116 476.046 Q175.116 483.679 175.659 486.718 Q176.277 490.003 177.957 491.436 Q179.661 492.844 181.539 492.844 Q183.564 492.844 185.244 491.337 Q186.949 489.806 187.467 486.52 Q188.036 483.284 188.011 476.046 Q188.011 469.005 187.517 466.189 Q186.85 462.904 185.071 461.594 Q183.317 460.26 181.539 460.26 Q180.872 460.26 180.155 460.458 Q179.464 460.656 178.451 461.224 Q177.438 461.792 176.647 463.2 Q175.882 464.608 175.511 466.733 Q175.116 469.475 175.116 476.046 Z" fill="#000000" fill-rule="evenodd" fill-opacity="1" /><path clip-path="url(#clip920)" d="M140.531 118.316 Q140.828 118.612 140.828 119.032 Q140.828 119.452 140.531 119.748 Q140.235 120.045 139.815 120.045 L108.145 120.045 Q107.725 120.045 107.429 119.748 Q107.132 119.452 107.132 119.032 Q107.132 118.612 107.429 118.316 Q107.725 118.019 108.145 118.019 L139.815 118.019 Q140.235 118.019 140.531 118.316 Z" fill="#000000" fill-rule="evenodd" fill-opacity="1" /><path clip-path="url(#clip920)" d="M148.14 102.802 L148.14 101.221 Q154.217 101.221 157.354 97.9847 Q158.219 97.9847 158.367 98.1824 Q158.515 98.38 158.515 99.294 L158.515 127.678 Q158.515 129.185 159.256 129.654 Q159.997 130.124 163.233 130.124 L164.839 130.124 L164.839 131.68 Q163.061 131.532 156.638 131.532 Q150.215 131.532 148.461 131.68 L148.461 130.124 L150.067 130.124 Q153.253 130.124 154.019 129.679 Q154.785 129.21 154.785 127.678 L154.785 101.468 Q152.142 102.802 148.14 102.802 Z" fill="#000000" fill-rule="evenodd" fill-opacity="1" /><path clip-path="url(#clip920)" d="M170.916 115.499 Q170.916 108.064 172.794 104.012 Q175.412 97.9847 181.588 97.9847 Q182.897 97.9847 184.256 98.3553 Q185.639 98.7011 187.369 100.06 Q189.123 101.419 190.185 103.642 Q192.211 107.94 192.211 115.499 Q192.211 122.886 190.333 126.912 Q187.591 132.792 181.539 132.792 Q179.266 132.792 176.944 131.631 Q174.646 130.47 173.189 127.678 Q170.916 123.503 170.916 115.499 M175.116 114.882 Q175.116 122.515 175.659 125.554 Q176.277 128.839 177.957 130.272 Q179.661 131.68 181.539 131.68 Q183.564 131.68 185.244 130.173 Q186.949 128.642 187.467 125.356 Q188.036 122.12 188.011 114.882 Q188.011 107.841 187.517 105.025 Q186.85 101.74 185.071 100.43 Q183.317 99.0964 181.539 99.0964 Q180.872 99.0964 180.155 99.294 Q179.464 99.4916 178.451 100.06 Q177.438 100.628 176.647 102.036 Q175.882 103.444 175.511 105.569 Q175.116 108.311 175.116 114.882 Z" fill="#000000" fill-rule="evenodd" fill-opacity="1" /><path clip-path="url(#clip920)" d="M29.0571 828.597 L26.8832 828.597 L26.1359 818.373 L49.2336 818.373 Q50.8979 818.373 51.883 818.237 Q52.8341 818.101 53.955 817.558 Q55.0759 816.98 55.5854 815.69 Q56.0949 814.365 56.0949 812.259 Q56.0949 808.489 53.0039 806.179 Q49.9129 803.835 45.3273 803.835 L32.9293 803.835 Q30.3478 803.835 29.7025 804.752 Q29.0571 805.669 29.0571 809.27 L26.8832 809.27 L26.1359 799.046 L50.83 799.046 Q53.4115 799.046 54.0909 798.163 Q54.7362 797.245 54.7362 793.611 L56.8762 793.611 L57.6574 803.631 L51.3735 803.631 Q57.6234 806.552 57.6574 812.599 Q57.6574 815.656 56.8762 817.762 Q56.0949 819.834 55.1438 820.887 Q54.1588 821.939 52.2906 822.517 Q50.4224 823.06 49.2675 823.128 Q48.1126 823.196 45.8708 823.196 L35.4429 823.196 Q30.7215 823.196 29.9063 823.876 Q29.0571 824.555 29.0571 828.597 Z" fill="#000000" fill-rule="evenodd" fill-opacity="1" /><path clip-path="url(#clip920)" d="M29.0571 790.928 L27.5286 790.928 Q27.3927 787.735 25.1509 785.629 Q22.8751 783.489 20.0898 782.775 Q17.3045 782.028 14.0776 781.96 L14.0776 780.228 L26.8832 780.228 L26.8832 770.276 L29.0571 770.276 L29.0571 780.228 L48.3844 780.228 Q55.8911 780.228 55.8911 775.54 Q55.8911 773.536 53.8531 772.212 Q51.7811 770.887 48.1126 770.887 L44.2744 770.887 L44.2744 769.155 L48.2485 769.155 Q52.0189 769.155 54.8381 770.887 Q57.6574 772.619 57.6574 776.05 Q57.6574 777.307 57.3177 778.563 Q57.012 779.786 56.1968 781.417 Q55.3476 783.013 53.3096 784.032 Q51.2376 785.017 48.2485 785.017 L29.0571 785.017 L29.0571 790.928 Z" fill="#000000" fill-rule="evenodd" fill-opacity="1" /><path clip-path="url(#clip920)" d="M56.8762 762.973 L54.7362 762.973 Q54.7362 759.27 54.2947 758.421 Q53.8191 757.572 51.5773 757.572 L32.8614 757.572 Q30.2799 757.572 29.6685 758.455 Q29.0571 759.304 29.0571 762.701 L26.8832 762.701 L26.1359 752.986 L51.6452 752.986 Q53.7172 752.986 54.2267 752.239 Q54.7362 751.492 54.7362 748.095 L56.8762 748.095 Q56.6724 755.194 56.6724 755.33 Q56.6724 756.281 56.8762 762.973 M14.0097 760.051 Q12.617 760.051 11.4961 758.998 Q10.3412 757.911 10.3412 756.383 Q10.3412 754.854 11.3942 753.767 Q12.4132 752.681 14.0436 752.681 Q15.6401 752.681 16.6931 753.767 Q17.7121 754.854 17.7121 756.383 Q17.7121 757.979 16.5912 759.032 Q15.4702 760.051 14.0097 760.051 Z" fill="#000000" fill-rule="evenodd" fill-opacity="1" /><path clip-path="url(#clip920)" d="M56.8762 743.713 L54.7362 743.713 Q54.7362 740.011 54.2947 739.162 Q53.8191 738.312 51.5773 738.312 L15.4023 738.312 Q12.8208 738.312 12.1754 739.23 Q11.5301 740.113 11.5301 743.713 L9.35616 743.713 L8.60888 733.727 L51.5773 733.727 Q53.8191 733.727 54.2947 732.844 Q54.7362 731.961 54.7362 728.292 L56.8762 728.292 Q56.8762 729.141 56.8082 730.908 Q56.7403 732.674 56.7063 733.965 Q56.6724 735.255 56.6724 736.003 Q56.6724 736.818 56.8762 743.713 Z" fill="#000000" fill-rule="evenodd" fill-opacity="1" /><path clip-path="url(#clip920)" d="M56.8762 724.454 L54.7362 724.454 Q54.7362 720.751 54.2947 719.902 Q53.8191 719.053 51.5773 719.053 L32.8614 719.053 Q30.2799 719.053 29.6685 719.936 Q29.0571 720.785 29.0571 724.182 L26.8832 724.182 L26.1359 714.468 L51.6452 714.468 Q53.7172 714.468 54.2267 713.72 Q54.7362 712.973 54.7362 709.576 L56.8762 709.576 Q56.6724 716.675 56.6724 716.811 Q56.6724 717.762 56.8762 724.454 M14.0097 721.533 Q12.617 721.533 11.4961 720.48 Q10.3412 719.393 10.3412 717.864 Q10.3412 716.336 11.3942 715.249 Q12.4132 714.162 14.0436 714.162 Q15.6401 714.162 16.6931 715.249 Q17.7121 716.336 17.7121 717.864 Q17.7121 719.461 16.5912 720.514 Q15.4702 721.533 14.0097 721.533 Z" fill="#000000" fill-rule="evenodd" fill-opacity="1" /><path clip-path="url(#clip920)" d="M29.0571 706.18 L27.5286 706.18 Q27.3927 702.987 25.1509 700.881 Q22.8751 698.741 20.0898 698.027 Q17.3045 697.28 14.0776 697.212 L14.0776 695.48 L26.8832 695.48 L26.8832 685.528 L29.0571 685.528 L29.0571 695.48 L48.3844 695.48 Q55.8911 695.48 55.8911 690.792 Q55.8911 688.788 53.8531 687.464 Q51.7811 686.139 48.1126 686.139 L44.2744 686.139 L44.2744 684.407 L48.2485 684.407 Q52.0189 684.407 54.8381 686.139 Q57.6574 687.871 57.6574 691.302 Q57.6574 692.559 57.3177 693.816 Q57.012 695.038 56.1968 696.669 Q55.3476 698.265 53.3096 699.284 Q51.2376 700.269 48.2485 700.269 L29.0571 700.269 L29.0571 706.18 Z" fill="#000000" fill-rule="evenodd" fill-opacity="1" /><path clip-path="url(#clip920)" d="M65.5038 681.146 Q64.0432 681.146 63.262 680.297 Q62.5147 679.413 62.5147 678.225 Q62.5147 676.968 63.2959 676.153 Q64.1112 675.303 65.4359 675.303 Q68.0174 675.303 68.357 678.021 Q69.6138 676.696 69.6138 674.76 Q69.6138 672.688 68.0853 671.024 Q66.5568 669.325 65.0962 668.612 Q63.6356 667.865 60.9862 666.812 Q58.9142 665.827 56.8762 665.079 L31.4688 675.507 Q29.8044 676.187 29.4307 677.24 Q29.0571 678.293 29.0571 681.146 L26.8832 681.146 Q27.087 678.021 27.087 674.386 Q27.087 672.246 26.8832 666.812 L29.0571 666.812 Q29.0571 670.718 30.8573 670.718 Q31.0611 670.718 32.1141 670.31 L50.83 662.566 L33.7106 655.535 Q32.7255 655.127 32.0462 655.127 Q29.193 655.127 29.0571 658.388 L26.8832 658.388 Q27.087 653.802 27.087 652.342 Q27.087 649.488 26.8832 647.145 L29.0571 647.145 Q29.0571 651.798 33.5068 653.598 L63.194 665.861 Q71.1084 669.189 71.1423 674.76 Q71.1423 677.409 69.5119 679.278 Q67.8815 681.146 65.5038 681.146 Z" fill="#000000" fill-rule="evenodd" fill-opacity="1" /><path clip-path="url(#clip920)" d="M10.1374 569.836 Q11.5301 569.836 11.5301 570.99 Q11.598 573.028 12.0056 574.421 Q12.3792 575.814 13.1265 576.629 Q13.8738 577.41 14.689 577.852 Q15.4702 578.259 16.6591 578.531 L41.3532 584.713 Q48.3164 586.479 53.3775 592.186 Q58.4047 597.892 58.4047 604.38 Q58.4047 608.083 56.8762 611.174 Q55.3476 614.231 52.2566 616.133 Q49.1656 618.035 45.0556 618.035 Q43.0855 618.035 41.0135 617.525 L23.8262 613.313 L17.7121 611.751 Q13.1944 610.596 12.7868 610.596 Q12.1415 610.596 11.9716 611.004 Q11.7678 611.377 11.6659 612.464 L11.5301 615.114 Q11.5301 615.929 11.4961 616.269 Q11.4621 616.574 11.2923 616.812 Q11.1224 617.05 10.7488 617.05 Q10.2733 617.05 9.96757 616.948 Q9.62789 616.812 9.52599 616.574 Q9.42409 616.337 9.39012 616.167 Q9.35616 615.997 9.35616 615.725 L9.55996 606.758 L9.35616 597.858 Q9.35616 596.873 10.1374 596.873 Q11.1224 596.873 11.3263 597.315 Q11.5301 597.757 11.5301 599.251 Q11.5301 601.799 11.8697 602.953 Q12.1754 604.074 12.7189 604.414 Q13.2284 604.72 14.723 605.093 L41.7948 611.853 Q43.1534 612.193 44.5121 612.396 Q45.8368 612.566 46.5162 612.566 L47.1955 612.6 Q51.5094 612.6 53.8871 610.222 Q56.2647 607.811 56.2647 604.108 Q56.2647 598.674 51.9509 593.613 Q47.6371 588.517 40.8776 586.785 L16.0477 580.535 Q15.4363 580.331 14.5871 580.331 Q13.2284 580.331 12.4132 581.35 Q11.564 582.335 11.5301 585.053 Q11.5301 586.31 10.7488 586.31 Q10.1034 586.31 9.79773 586.072 Q9.45806 585.8 9.42409 585.596 Q9.35616 585.359 9.35616 585.053 Q9.35616 583.898 9.45806 581.452 Q9.55996 579.007 9.55996 577.818 Q9.55996 576.629 9.45806 574.251 Q9.35616 571.874 9.35616 570.719 Q9.35616 570.311 9.55996 570.107 Q9.7298 569.87 9.9336 569.836 L10.1374 569.836 Z" fill="#000000" fill-rule="evenodd" fill-opacity="1" /><path clip-path="url(#clip920)" d="M39.485 568.307 Q27.7324 568.307 18.2555 563.925 Q14.2814 562.057 10.9526 559.442 Q7.62383 556.826 6.16325 555.094 Q4.70266 553.361 4.70266 552.886 Q4.70266 552.207 5.382 552.173 Q5.72168 552.173 6.57085 553.09 Q17.9838 564.299 39.485 564.265 Q61.0541 564.265 72.0255 553.361 Q73.2143 552.173 73.588 552.173 Q74.2673 552.173 74.2673 552.886 Q74.2673 553.361 72.8747 555.026 Q71.482 556.69 68.2891 559.272 Q65.0962 561.853 61.19 563.721 Q51.7132 568.307 39.485 568.307 Z" fill="#000000" fill-rule="evenodd" fill-opacity="1" /><path clip-path="url(#clip920)" d="M41.3532 506.487 Q48.5542 506.487 52.936 511.344 Q57.2838 516.201 57.2838 524.014 Q57.2838 529.856 52.9699 534.17 Q53.6493 534.714 54.94 535.868 Q56.2308 537.023 56.8762 537.601 L56.8762 540.862 L15.1306 540.862 Q13.1605 540.862 12.7868 541.575 Q12.4132 542.288 12.4132 545.651 L9.15235 545.651 L8.60888 533.355 L28.9892 533.355 Q25.5585 529.245 25.5585 523.131 Q25.5585 515.624 29.9742 511.072 Q34.356 506.487 41.3532 506.487 M41.3532 515.386 Q39.8926 515.386 39.0774 515.42 Q38.2282 515.42 36.6318 515.59 Q35.0353 515.76 34.0503 516.066 Q33.0652 516.337 31.8084 516.983 Q30.5516 517.594 29.8383 518.477 Q29.0911 519.36 28.5815 520.753 Q28.072 522.112 28.072 523.878 Q28.072 526.629 29.3288 529.041 Q30.5856 531.419 32.5217 532.913 L49.9808 532.913 Q50.5922 532.506 51.2376 531.962 Q51.849 531.419 52.7661 530.4 Q53.6493 529.381 54.2267 527.886 Q54.8042 526.358 54.8042 524.659 Q54.8042 522.655 53.955 520.617 Q53.1058 518.579 51.1697 517.22 Q49.9129 516.371 48.0447 515.964 Q46.1765 515.522 44.8518 515.454 Q43.5271 515.386 41.3532 515.386 Z" fill="#000000" fill-rule="evenodd" fill-opacity="1" /><path clip-path="url(#clip920)" d="M73.588 499.829 Q73.2483 499.829 72.3991 498.946 Q60.9862 487.737 39.485 487.737 Q17.9159 487.737 7.01243 498.505 Q5.75564 499.829 5.382 499.829 Q4.70266 499.829 4.70266 499.15 Q4.70266 498.674 6.09531 497.01 Q7.48797 495.312 10.6809 492.764 Q13.8738 490.183 17.78 488.28 Q27.2568 483.695 39.485 483.695 Q51.2376 483.695 60.7144 488.077 Q64.6886 489.945 68.0174 492.56 Q71.3462 495.176 72.8067 496.908 Q74.2673 498.64 74.2673 499.15 Q74.2673 499.829 73.588 499.829 Z" fill="#000000" fill-rule="evenodd" fill-opacity="1" /><path clip-path="url(#clip920)" d="M1019.14 72.576 L1019.14 69.8525 Q1027.01 69.6795 1029.04 63.8866 L1047.37 10.972 Q1047.72 9.89123 1048.11 9.54538 Q1048.5 9.19953 1049.49 9.19953 Q1050.01 9.19953 1050.31 9.28599 Q1050.66 9.37245 1050.88 9.67507 Q1051.09 9.97769 1051.18 10.1506 Q1051.27 10.3235 1051.52 10.972 L1070.63 66.3075 Q1071.32 68.5123 1072.75 69.204 Q1074.18 69.8525 1078.2 69.8525 L1079.75 69.8525 L1079.75 72.576 Q1074.18 72.3166 1068.17 72.3166 Q1058.61 72.3166 1055.42 72.576 L1055.42 69.8525 Q1062.76 69.8525 1062.76 67.1721 Q1062.76 66.9992 1062.51 65.9184 L1057.84 52.3872 L1035.96 52.3872 L1031.85 63.9731 Q1031.68 64.3189 1031.68 65.3132 Q1031.68 67.1721 1033.41 68.5123 Q1035.14 69.8525 1038.34 69.8525 L1038.34 72.576 Q1029.82 72.3166 1028.14 72.3166 Q1025.24 72.3166 1019.14 72.576 M1036.91 49.6636 L1056.84 49.6636 L1046.86 20.8719 L1036.91 49.6636 Z" fill="#000000" fill-rule="evenodd" fill-opacity="1" /><path clip-path="url(#clip920)" d="M1085.63 72.576 L1085.63 69.8525 Q1090.35 69.8525 1091.43 69.2905 Q1092.51 68.6852 1092.51 65.832 L1092.51 19.7911 Q1092.51 16.5055 1091.34 15.6842 Q1090.22 14.8628 1085.63 14.8628 L1085.63 12.096 L1098.34 11.1449 L1098.34 65.832 Q1098.34 68.6852 1099.47 69.2905 Q1100.59 69.8525 1105.26 69.8525 L1105.26 72.576 Q1104.18 72.576 1101.93 72.4895 Q1099.68 72.4031 1098.04 72.3598 Q1096.4 72.3166 1095.45 72.3166 Q1094.41 72.3166 1085.63 72.576 Z" fill="#000000" fill-rule="evenodd" fill-opacity="1" /><path clip-path="url(#clip920)" d="M1109.67 87.0151 Q1114.38 87.0151 1115.46 86.4099 Q1116.59 85.8479 1116.59 83.0379 L1116.59 41.5795 Q1116.59 38.6398 1115.46 37.9048 Q1114.38 37.1699 1109.67 37.1699 L1109.67 34.4031 L1122.42 33.4521 L1122.42 39.2882 Q1127.74 33.4521 1134.83 33.4521 Q1142.35 33.4521 1147.84 39.2882 Q1153.33 45.1244 1153.33 53.468 Q1153.33 61.898 1147.5 67.7341 Q1141.66 73.5703 1133.58 73.5703 Q1129.17 73.5703 1126.18 71.3223 Q1123.24 69.0311 1122.68 67.3451 L1122.68 68.1665 L1122.68 83.0379 Q1122.68 85.8911 1123.81 86.4531 Q1124.93 87.0151 1129.6 87.0151 L1129.6 89.7387 Q1120.3 89.4793 1119.61 89.4793 Q1118.75 89.4793 1109.67 89.7387 L1109.67 87.0151 M1122.68 62.5032 Q1122.68 63.8434 1122.86 64.3189 Q1123.07 64.7944 1123.94 66.2211 Q1127.44 71.5817 1133.14 71.5817 Q1133.19 71.5817 1133.23 71.5817 Q1138.29 71.5817 1142.14 66.4372 Q1145.98 61.2495 1145.98 53.468 Q1145.98 46.0322 1142.48 40.8445 Q1138.98 35.6568 1134.14 35.6568 Q1130.68 35.6568 1127.65 37.5158 Q1124.63 39.3747 1122.68 42.7467 L1122.68 62.5032 Z" fill="#000000" fill-rule="evenodd" fill-opacity="1" /><path clip-path="url(#clip920)" d="M1159.17 72.576 L1159.17 69.8525 Q1163.88 69.8525 1164.96 69.2905 Q1166.04 68.6852 1166.04 65.832 L1166.04 19.7911 Q1166.04 16.5055 1164.88 15.6842 Q1163.75 14.8628 1159.17 14.8628 L1159.17 12.096 L1171.88 11.1449 L1171.88 41.9253 L1171.97 41.9253 Q1173.39 38.7262 1176.59 36.0891 Q1179.79 33.4521 1184.72 33.4521 Q1191.38 33.4521 1194.01 36.7376 Q1195.96 38.9424 1196.35 41.4065 Q1196.78 43.8707 1196.78 50.2689 L1196.78 67.1721 Q1196.87 69.0311 1198.29 69.4634 Q1199.72 69.8525 1203.7 69.8525 L1203.7 72.576 Q1194.66 72.3166 1193.75 72.3166 Q1193.06 72.3166 1183.77 72.576 L1183.77 69.8525 Q1188.48 69.8525 1189.56 69.2905 Q1190.68 68.6852 1190.68 65.832 L1190.68 45.2109 Q1190.68 40.7148 1189.3 38.0778 Q1187.92 35.3974 1184.11 35.3974 Q1179.53 35.3974 1175.86 39.245 Q1172.18 43.0925 1172.18 49.5772 L1172.18 65.832 Q1172.18 68.6852 1173.26 69.2905 Q1174.39 69.8525 1179.06 69.8525 L1179.06 72.576 Q1170.02 72.3166 1169.16 72.3166 Q1168.46 72.3166 1159.17 72.576 Z" fill="#000000" fill-rule="evenodd" fill-opacity="1" /><path clip-path="url(#clip920)" d="M1209.14 64.146 Q1209.14 56.6238 1218.01 52.6466 Q1223.32 50.0959 1234.3 49.4475 L1234.3 46.2052 Q1234.3 40.7148 1231.41 37.8184 Q1228.55 34.8787 1224.92 34.8787 Q1218.44 34.8787 1215.33 38.9424 Q1217.96 39.0288 1218.91 40.369 Q1219.87 41.6659 1219.87 43.0061 Q1219.87 44.7785 1218.74 45.9458 Q1217.66 47.0698 1215.8 47.0698 Q1214.03 47.0698 1212.86 45.989 Q1211.69 44.865 1211.69 42.9196 Q1211.69 38.5965 1215.59 35.7433 Q1219.52 32.8901 1225.1 32.8901 Q1232.36 32.8901 1237.2 37.7751 Q1238.71 39.2882 1239.45 41.2336 Q1240.23 43.179 1240.31 44.4759 Q1240.4 45.7296 1240.4 48.237 L1240.4 65.9184 Q1240.4 66.4372 1240.57 67.3018 Q1240.75 68.1665 1241.52 69.2905 Q1242.35 70.3712 1243.69 70.3712 Q1246.88 70.3712 1246.84 64.708 L1246.84 59.7364 L1249.09 59.7364 L1249.09 64.708 Q1249.09 69.4201 1246.58 71.2791 Q1244.12 73.0948 1241.83 73.0948 Q1238.89 73.0948 1237.03 70.9332 Q1235.17 68.7717 1234.91 65.832 Q1233.57 69.204 1230.5 71.4088 Q1227.47 73.5703 1223.32 73.5703 Q1220.12 73.5703 1217.1 72.7489 Q1214.12 71.9708 1211.61 69.766 Q1209.14 67.518 1209.14 64.146 M1215.97 64.0595 Q1215.97 67.3451 1218.31 69.4634 Q1220.64 71.5817 1223.93 71.5817 Q1227.65 71.5817 1230.98 68.7285 Q1234.3 65.832 1234.3 60.1687 L1234.3 51.3064 Q1224.49 51.6523 1220.21 55.5863 Q1215.97 59.477 1215.97 64.0595 Z" fill="#000000" fill-rule="evenodd" fill-opacity="1" /><path clip-path="url(#clip920)" d="M1280.82 14.8628 L1280.82 12.096 Q1290.38 12.3554 1292.06 12.3554 Q1301.53 12.3554 1304.73 12.096 L1304.73 14.8628 Q1297.47 14.8628 1297.47 17.4134 Q1297.47 17.7592 1297.98 19.0129 L1314.89 63.7137 L1331.1 21.0448 Q1331.53 19.7046 1331.53 19.2723 Q1331.53 17.4999 1329.89 16.2462 Q1328.29 14.9492 1325.09 14.8628 L1325.09 12.096 Q1332.01 12.3554 1335.16 12.3554 Q1339.66 12.3554 1343.77 12.096 L1343.77 14.8628 Q1336.33 14.9492 1334.12 20.7854 L1314.37 72.8354 Q1314.02 73.9162 1313.68 74.2188 Q1313.33 74.5214 1312.25 74.5214 Q1311.39 74.5214 1310.91 74.1755 Q1310.48 73.8297 1310.05 72.576 L1289.51 18.2348 Q1288.65 15.8571 1287.09 15.3815 Q1285.53 14.8628 1280.82 14.8628 Z" fill="#000000" fill-rule="evenodd" fill-opacity="1" /><path clip-path="url(#clip920)" d="M1340.65 53.0789 Q1340.65 44.7353 1346.01 38.8127 Q1351.37 32.8901 1359.07 32.8901 Q1366.85 32.8901 1370.87 37.9481 Q1374.93 43.0061 1374.93 50.2689 Q1374.93 51.609 1374.59 51.8684 Q1374.24 52.1278 1372.73 52.1278 L1348 52.1278 Q1348 61.163 1350.68 65.3997 Q1354.4 71.3223 1360.67 71.3223 Q1361.53 71.3223 1362.57 71.1494 Q1363.61 70.9765 1365.73 70.2415 Q1367.84 69.4634 1369.7 67.4315 Q1371.56 65.3997 1372.64 62.2006 Q1372.9 60.9469 1373.77 60.9901 Q1374.93 60.9901 1374.93 62.0277 Q1374.93 62.8058 1374.07 64.5783 Q1373.25 66.3075 1371.65 68.3826 Q1370.05 70.4577 1366.94 72.014 Q1363.87 73.5703 1360.15 73.5703 Q1352.37 73.5703 1346.49 67.6909 Q1340.65 61.7683 1340.65 53.0789 M1348.09 50.2689 L1369.1 50.2689 Q1369.1 48.4099 1368.75 46.3349 Q1368.45 44.2598 1367.5 41.4065 Q1366.59 38.5101 1364.43 36.6944 Q1362.27 34.8787 1359.07 34.8787 Q1357.64 34.8787 1356.09 35.4839 Q1354.57 36.0891 1352.71 37.559 Q1350.86 39.0288 1349.56 42.3576 Q1348.26 45.6864 1348.09 50.2689 Z" fill="#000000" fill-rule="evenodd" fill-opacity="1" /><path clip-path="url(#clip920)" d="M1386.13 67.7341 Q1380.51 61.8547 1380.51 53.468 Q1380.51 45.0379 1386.05 38.9856 Q1391.58 32.8901 1399.71 32.8901 Q1405.11 32.8901 1409.17 35.4839 Q1413.24 38.0345 1413.24 42.4008 Q1413.24 44.3462 1412.07 45.4702 Q1410.95 46.551 1409.17 46.551 Q1407.31 46.551 1406.19 45.427 Q1405.11 44.2598 1405.11 42.4873 Q1405.11 41.7092 1405.37 40.931 Q1405.63 40.1528 1406.58 39.3315 Q1407.57 38.5101 1409.26 38.3804 Q1406.1 35.1381 1399.97 35.1381 Q1399.88 35.1381 1399.79 35.1381 Q1395.3 35.1381 1391.58 39.3747 Q1387.86 43.6113 1387.86 53.295 Q1387.86 58.353 1389.07 62.0709 Q1390.32 65.7455 1392.36 67.6477 Q1394.39 69.5498 1396.38 70.4577 Q1398.37 71.3223 1400.31 71.3223 Q1409 71.3223 1411.94 62.0277 Q1412.2 61.163 1413.06 61.163 Q1414.23 61.163 1414.23 62.0277 Q1414.23 62.46 1413.89 63.584 Q1413.54 64.708 1412.46 66.4804 Q1411.38 68.2529 1409.82 69.8092 Q1408.31 71.3223 1405.59 72.4463 Q1402.91 73.5703 1399.53 73.5703 Q1391.75 73.5703 1386.13 67.7341 Z" fill="#000000" fill-rule="evenodd" fill-opacity="1" /><path clip-path="url(#clip920)" d="M1418.47 37.1699 L1418.47 35.2245 Q1422.53 35.0516 1425.21 32.1984 Q1427.94 29.3019 1428.84 25.757 Q1429.79 22.212 1429.88 18.1051 L1432.09 18.1051 L1432.09 34.4031 L1444.75 34.4031 L1444.75 37.1699 L1432.09 37.1699 L1432.09 61.7683 Q1432.09 71.3223 1438.05 71.3223 Q1440.6 71.3223 1442.29 68.7285 Q1443.97 66.0914 1443.97 61.4224 L1443.97 56.5373 L1446.18 56.5373 L1446.18 61.5954 Q1446.18 66.394 1443.97 69.9821 Q1441.77 73.5703 1437.4 73.5703 Q1435.8 73.5703 1434.2 73.138 Q1432.65 72.7489 1430.57 71.7114 Q1428.54 70.6306 1427.24 68.0368 Q1425.99 65.3997 1425.99 61.5954 L1425.99 37.1699 L1418.47 37.1699 Z" fill="#000000" fill-rule="evenodd" fill-opacity="1" /><path clip-path="url(#clip920)" d="M1459.41 67.8206 Q1453.57 62.0277 1453.57 53.6409 Q1453.57 45.2109 1459.28 39.0721 Q1465.03 32.8901 1473.24 32.8901 Q1481.28 32.8901 1487.03 39.0288 Q1492.83 45.1244 1492.83 53.6409 Q1492.83 61.9844 1486.99 67.7774 Q1481.2 73.5703 1473.16 73.5703 Q1465.29 73.5703 1459.41 67.8206 M1460.92 52.9059 Q1460.92 61.5089 1463.17 65.3997 Q1466.63 71.3223 1473.24 71.3223 Q1476.53 71.3223 1479.25 69.5498 Q1482.02 67.7774 1483.53 64.7944 Q1485.48 60.9037 1485.48 52.9059 Q1485.48 44.3895 1483.14 40.6284 Q1479.68 34.8787 1473.16 34.8787 Q1470.3 34.8787 1467.49 36.3918 Q1464.73 37.8616 1463.04 40.8013 Q1460.92 44.6921 1460.92 52.9059 Z" fill="#000000" fill-rule="evenodd" fill-opacity="1" /><path clip-path="url(#clip920)" d="M1497.84 72.576 L1497.84 69.8525 Q1502.55 69.8525 1503.63 69.2905 Q1504.76 68.6852 1504.76 65.832 L1504.76 42.0982 Q1504.76 38.8127 1503.59 37.9913 Q1502.47 37.1699 1497.84 37.1699 L1497.84 34.4031 L1510.16 33.4521 L1510.16 43.179 Q1511.41 39.3747 1514.05 36.435 Q1516.73 33.4521 1521.06 33.4521 Q1523.91 33.4521 1525.72 35.0516 Q1527.58 36.6511 1527.58 38.8559 Q1527.58 40.8013 1526.37 41.7956 Q1525.21 42.7467 1523.78 42.7467 Q1522.18 42.7467 1521.06 41.7524 Q1519.97 40.7148 1519.97 38.9424 Q1519.97 37.8616 1520.45 37.0402 Q1520.97 36.1756 1521.36 35.873 Q1521.75 35.5704 1522.01 35.4839 Q1521.83 35.3974 1521.06 35.3974 Q1516.17 35.3974 1513.36 40.2825 Q1510.59 45.1244 1510.59 52.0413 L1510.59 65.6591 Q1510.59 68.2097 1511.63 69.0311 Q1512.71 69.8525 1517.34 69.8525 L1519.2 69.8525 L1519.2 72.576 Q1515.65 72.3166 1507.96 72.3166 Q1506.88 72.3166 1505.19 72.3598 Q1503.5 72.4031 1501.3 72.4895 Q1499.09 72.576 1497.84 72.576 Z" fill="#000000" fill-rule="evenodd" fill-opacity="1" /><path clip-path="url(#clip920)" d="M1532.9 71.4088 L1532.9 59.7364 Q1532.9 58.7421 1532.94 58.3963 Q1532.99 58.0504 1533.25 57.791 Q1533.51 57.5317 1534.02 57.5317 Q1534.63 57.5317 1534.85 57.791 Q1535.11 58.0504 1535.28 59.0447 Q1536.62 65.1403 1539.47 68.3826 Q1542.37 71.5817 1547.6 71.5817 Q1552.57 71.5817 1555.08 69.3769 Q1557.59 67.1721 1557.59 63.5407 Q1557.59 57.0561 1548.38 55.4133 Q1543.06 54.3326 1540.85 53.6409 Q1538.65 52.9059 1536.7 51.3064 Q1532.9 48.1938 1532.9 43.7842 Q1532.9 39.3747 1536.23 36.1324 Q1539.6 32.8901 1547.04 32.8901 Q1552.01 32.8901 1555.38 35.3974 Q1556.37 34.6193 1556.89 33.9708 Q1558.06 32.8901 1558.67 32.8901 Q1559.36 32.8901 1559.49 33.3656 Q1559.62 33.7979 1559.62 35.0516 L1559.62 43.9572 Q1559.62 44.9515 1559.57 45.2973 Q1559.53 45.6432 1559.27 45.9025 Q1559.01 46.1187 1558.45 46.1187 Q1557.46 46.1187 1557.41 45.2973 Q1556.72 34.5761 1547.04 34.5761 Q1541.81 34.5761 1539.47 36.6079 Q1537.14 38.5965 1537.14 41.3201 Q1537.14 42.8332 1537.83 44.0004 Q1538.56 45.1244 1539.47 45.8161 Q1540.42 46.4645 1542.15 47.113 Q1543.88 47.7182 1544.92 47.9344 Q1546 48.1506 1548.03 48.5829 Q1555.12 49.923 1558.1 52.8195 Q1561.82 56.5373 1561.82 61.2495 Q1561.82 66.4804 1558.28 70.0254 Q1554.73 73.5703 1547.6 73.5703 Q1541.85 73.5703 1537.83 69.7228 Q1537.31 70.2415 1536.92 70.7171 Q1536.53 71.1494 1536.36 71.3223 Q1536.23 71.4952 1536.19 71.6249 Q1536.14 71.7114 1536.06 71.7978 Q1534.28 73.5703 1533.85 73.5703 Q1533.16 73.5703 1533.03 73.0948 Q1532.9 72.6625 1532.9 71.4088 Z" fill="#000000" fill-rule="evenodd" fill-opacity="1" /><polyline clip-path="url(#clip922)" style="stroke:#0000ff; stroke-linecap:butt; stroke-linejoin:round; stroke-width:8; stroke-opacity:1; fill:none" points="
  2352.76,697.272 228.211,336.109 
  "/>
<polyline clip-path="url(#clip922)" style="stroke:#ff0000; stroke-linecap:butt; stroke-linejoin:round; stroke-width:4; stroke-opacity:1; fill:none" points="
  2352.76,964.001 228.211,200.261 
  "/>
<circle clip-path="url(#clip922)" cx="1290.48" cy="516.69" r="18" fill="#000000" fill-rule="evenodd" fill-opacity="1" stroke="none"/>
<path clip-path="url(#clip920)" d="
M1703.02 357.877 L2281.94 357.877 L2281.94 150.517 L1703.02 150.517  Z
  " fill="#ffffff" fill-rule="evenodd" fill-opacity="1"/>
<polyline clip-path="url(#clip920)" style="stroke:#000000; stroke-linecap:butt; stroke-linejoin:round; stroke-width:4; stroke-opacity:1; fill:none" points="
  1703.02,357.877 2281.94,357.877 2281.94,150.517 1703.02,150.517 1703.02,357.877 
  "/>
<polyline clip-path="url(#clip920)" style="stroke:#0000ff; stroke-linecap:butt; stroke-linejoin:round; stroke-width:4; stroke-opacity:1; fill:none" points="
  1726.63,202.357 1868.26,202.357 
  "/>
<path clip-path="url(#clip920)" d="M1891.87 199.404 L1891.87 197.823 L1895.84 197.823 L1895.84 192.018 Q1895.84 188.263 1898.27 186.114 Q1900.71 183.965 1903.7 183.965 Q1905.68 183.965 1906.96 185.027 Q1908.25 186.089 1908.25 187.522 Q1908.25 188.486 1907.65 189.128 Q1907.08 189.745 1906.02 189.745 Q1905.01 189.745 1904.42 189.103 Q1903.85 188.461 1903.85 187.572 Q1903.85 185.941 1905.36 185.447 Q1904.59 185.101 1903.7 185.077 Q1901.87 185.077 1900.44 186.954 Q1899.03 188.831 1899.03 191.969 L1899.03 197.823 L1904.96 197.823 L1904.96 199.404 L1899.2 199.404 L1899.2 215.684 Q1899.2 217.141 1899.8 217.611 Q1900.42 218.08 1903.03 218.08 L1904.1 218.08 L1904.1 219.637 Q1902.07 219.488 1897.67 219.488 Q1897.06 219.488 1896.09 219.513 Q1895.15 219.538 1893.87 219.587 Q1892.61 219.637 1891.92 219.637 L1891.92 218.08 Q1894.61 218.08 1895.23 217.759 Q1895.84 217.413 1895.84 215.783 L1895.84 199.404 L1891.87 199.404 Z" fill="#000000" fill-rule="evenodd" fill-opacity="1" /><path clip-path="url(#clip920)" d="M1907.01 208.495 Q1907.01 203.728 1910.07 200.343 Q1913.14 196.959 1917.53 196.959 Q1921.98 196.959 1924.28 199.849 Q1926.6 202.739 1926.6 206.89 Q1926.6 207.655 1926.4 207.804 Q1926.21 207.952 1925.34 207.952 L1911.21 207.952 Q1911.21 213.115 1912.74 215.536 Q1914.87 218.92 1918.45 218.92 Q1918.94 218.92 1919.54 218.821 Q1920.13 218.722 1921.34 218.303 Q1922.55 217.858 1923.61 216.697 Q1924.67 215.536 1925.29 213.708 Q1925.44 212.991 1925.93 213.016 Q1926.6 213.016 1926.6 213.609 Q1926.6 214.054 1926.11 215.066 Q1925.64 216.055 1924.72 217.24 Q1923.81 218.426 1922.03 219.315 Q1920.28 220.205 1918.15 220.205 Q1913.71 220.205 1910.35 216.845 Q1907.01 213.461 1907.01 208.495 M1911.26 206.89 L1923.27 206.89 Q1923.27 205.827 1923.07 204.642 Q1922.9 203.456 1922.35 201.825 Q1921.83 200.17 1920.6 199.133 Q1919.36 198.095 1917.53 198.095 Q1916.72 198.095 1915.83 198.441 Q1914.97 198.787 1913.9 199.627 Q1912.84 200.467 1912.1 202.369 Q1911.36 204.271 1911.26 206.89 Z" fill="#000000" fill-rule="evenodd" fill-opacity="1" /><path clip-path="url(#clip920)" d="M1929.47 208.495 Q1929.47 203.728 1932.53 200.343 Q1935.59 196.959 1939.99 196.959 Q1944.44 196.959 1946.73 199.849 Q1949.06 202.739 1949.06 206.89 Q1949.06 207.655 1948.86 207.804 Q1948.66 207.952 1947.8 207.952 L1933.67 207.952 Q1933.67 213.115 1935.2 215.536 Q1937.32 218.92 1940.9 218.92 Q1941.4 218.92 1941.99 218.821 Q1942.58 218.722 1943.79 218.303 Q1945 217.858 1946.07 216.697 Q1947.13 215.536 1947.75 213.708 Q1947.89 212.991 1948.39 213.016 Q1949.06 213.016 1949.06 213.609 Q1949.06 214.054 1948.56 215.066 Q1948.09 216.055 1947.18 217.24 Q1946.26 218.426 1944.49 219.315 Q1942.73 220.205 1940.61 220.205 Q1936.16 220.205 1932.8 216.845 Q1929.47 213.461 1929.47 208.495 M1933.72 206.89 L1945.72 206.89 Q1945.72 205.827 1945.52 204.642 Q1945.35 203.456 1944.81 201.825 Q1944.29 200.17 1943.05 199.133 Q1941.82 198.095 1939.99 198.095 Q1939.17 198.095 1938.29 198.441 Q1937.42 198.787 1936.36 199.627 Q1935.3 200.467 1934.56 202.369 Q1933.81 204.271 1933.72 206.89 Z" fill="#000000" fill-rule="evenodd" fill-opacity="1" /><path clip-path="url(#clip920)" d="M1952.24 208.767 Q1952.24 203.95 1955.6 200.615 Q1958.96 197.28 1963.51 197.28 Q1967.36 197.28 1969.88 200.417 L1969.88 189.474 Q1969.88 187.596 1969.21 187.127 Q1968.57 186.658 1965.95 186.658 L1965.95 185.077 L1973.24 184.533 L1973.24 215.239 Q1973.24 217.117 1973.88 217.611 Q1974.55 218.08 1977.17 218.08 L1977.17 219.637 L1969.73 220.205 L1969.73 216.845 Q1967.11 220.18 1962.96 220.205 Q1958.62 220.205 1955.43 216.87 Q1952.24 213.535 1952.24 208.767 M1956.44 208.816 Q1956.44 213.51 1957.9 215.832 Q1959.93 219.068 1963.21 219.068 Q1966.97 219.068 1969.19 215.536 Q1969.76 214.671 1969.73 213.658 L1969.73 203.283 Q1969.73 202.27 1969.19 201.43 Q1967.11 198.392 1963.73 198.392 Q1960.2 198.392 1958 201.628 Q1956.44 204.049 1956.44 208.816 Z" fill="#000000" fill-rule="evenodd" fill-opacity="1" /><path clip-path="url(#clip920)" d="M2000.41 206.988 Q2000.41 198.441 2003.6 191.549 Q2004.96 188.659 2006.86 186.238 Q2008.76 183.817 2010.02 182.754 Q2011.28 181.692 2011.63 181.692 Q2012.12 181.692 2012.15 182.186 Q2012.15 182.433 2011.48 183.051 Q2003.33 191.351 2003.35 206.988 Q2003.35 222.675 2011.28 230.654 Q2012.15 231.519 2012.15 231.791 Q2012.15 232.285 2011.63 232.285 Q2011.28 232.285 2010.07 231.272 Q2008.86 230.259 2006.99 227.937 Q2005.11 225.615 2003.75 222.774 Q2000.41 215.882 2000.41 206.988 Z" fill="#000000" fill-rule="evenodd" fill-opacity="1" /><path clip-path="url(#clip920)" d="M2017.85 202.492 Q2017.85 194.76 2022.8 189.375 Q2027.76 183.965 2034.65 183.965 Q2041.59 183.965 2046.54 189.375 Q2051.5 194.785 2051.5 202.492 Q2051.5 208.1 2048.64 212.67 Q2045.77 217.216 2041.22 219.291 Q2042.19 221.86 2043.27 223.046 Q2044.36 224.231 2046.07 224.231 Q2047.8 224.231 2049.13 223.095 Q2050.49 221.959 2050.69 219.982 Q2050.78 219.068 2051.23 219.068 Q2051.8 219.068 2051.8 220.131 Q2051.8 221.341 2051.53 222.7 Q2051.28 224.083 2050.66 225.689 Q2050.07 227.319 2048.78 228.382 Q2047.5 229.444 2045.67 229.444 Q2044.31 229.444 2043.3 228.851 Q2042.29 228.283 2041.69 227.566 Q2041.13 226.875 2040.63 225.343 Q2040.16 223.836 2039.99 222.873 Q2039.82 221.909 2039.49 219.982 Q2037.07 220.748 2034.7 220.748 Q2027.76 220.748 2022.8 215.437 Q2017.85 210.126 2017.85 202.492 M2022.89 202.492 Q2022.89 206.593 2023.78 209.755 Q2024.67 212.917 2026.11 214.721 Q2027.56 216.499 2028.8 217.438 Q2030.03 218.377 2031.29 218.821 Q2030.58 217.413 2030.6 216.4 Q2030.6 214.721 2031.76 213.436 Q2032.92 212.151 2034.75 212.151 Q2038.33 212.151 2040.46 217.512 Q2046.44 213.115 2046.44 202.492 Q2046.44 197.898 2045.3 194.414 Q2044.16 190.907 2042.34 188.98 Q2040.51 187.053 2038.56 186.139 Q2036.6 185.225 2034.65 185.225 Q2032.73 185.225 2030.8 186.114 Q2028.87 187.003 2027.04 188.881 Q2025.24 190.758 2024.06 194.316 Q2022.89 197.848 2022.89 202.492 M2031.71 216.4 Q2031.71 216.969 2031.89 217.586 Q2032.06 218.179 2032.8 218.846 Q2033.54 219.488 2034.7 219.488 Q2037.07 219.488 2039.15 218.327 Q2038.19 213.263 2034.75 213.263 Q2033.39 213.263 2032.55 214.226 Q2031.71 215.19 2031.71 216.4 Z" fill="#000000" fill-rule="evenodd" fill-opacity="1" /><path clip-path="url(#clip920)" d="M2056.19 219.637 L2056.19 218.08 Q2058.02 218.08 2059.18 217.734 Q2060.34 217.364 2060.76 216.697 Q2061.21 216.005 2061.31 215.56 Q2061.41 215.091 2061.41 214.325 L2061.41 189.029 Q2061.41 187.572 2060.76 187.127 Q2060.15 186.658 2057.4 186.658 L2056.19 186.658 L2056.19 185.077 L2064.74 185.077 Q2065.66 185.077 2065.9 185.249 Q2066.15 185.398 2066.52 186.188 L2077.49 214.523 L2088.56 186.04 Q2088.8 185.324 2089.03 185.2 Q2089.27 185.077 2090.24 185.077 L2098.78 185.077 L2098.78 186.658 L2097.57 186.658 Q2094.83 186.658 2094.19 187.127 Q2093.57 187.572 2093.57 189.029 L2093.57 215.684 Q2093.57 217.141 2094.19 217.611 Q2094.83 218.08 2097.57 218.08 L2098.78 218.08 L2098.78 219.637 Q2096.91 219.488 2091.54 219.488 Q2086.13 219.488 2084.26 219.637 L2084.26 218.08 L2085.49 218.08 Q2088.23 218.08 2088.85 217.636 Q2089.47 217.166 2089.47 215.684 L2089.47 186.658 L2089.42 186.658 L2076.99 218.673 Q2076.65 219.637 2076.08 219.637 Q2075.46 219.637 2075.07 218.525 L2062.86 187.053 L2062.81 187.053 L2062.81 214.325 Q2062.81 215.091 2062.91 215.56 Q2063.01 216.005 2063.43 216.697 Q2063.88 217.364 2065.04 217.734 Q2066.2 218.08 2068.03 218.08 L2068.03 219.637 Q2062.72 219.488 2062.1 219.488 Q2061.51 219.488 2056.19 219.637 Z" fill="#000000" fill-rule="evenodd" fill-opacity="1" /><path clip-path="url(#clip920)" d="M2102.41 219.637 L2102.41 218.08 L2103.62 218.08 Q2106.37 218.08 2106.98 217.636 Q2107.63 217.166 2107.63 215.684 L2107.63 189.029 Q2107.63 187.572 2106.98 187.127 Q2106.34 186.658 2103.62 186.658 L2102.41 186.658 L2102.41 185.077 L2120.92 185.077 Q2127.39 185.077 2131.89 190.24 Q2136.41 195.403 2136.41 202.641 Q2136.41 209.73 2131.86 214.696 Q2127.34 219.637 2120.92 219.637 L2102.41 219.637 M2111.97 216.055 Q2111.97 217.364 2112.35 217.734 Q2112.72 218.08 2114.44 218.08 L2119.56 218.08 Q2122.89 218.08 2125.14 216.722 Q2127.39 215.338 2128.55 213.757 Q2131.34 209.953 2131.34 202.641 Q2131.34 194.958 2128.72 191.351 Q2125.34 186.658 2119.51 186.658 L2114.44 186.658 Q2112.72 186.658 2112.35 187.003 Q2111.97 187.349 2111.97 188.683 L2111.97 216.055 Z" fill="#000000" fill-rule="evenodd" fill-opacity="1" /><path clip-path="url(#clip920)" d="M2141 219.637 L2141 218.08 L2142.21 218.08 Q2144.95 218.08 2145.57 217.636 Q2146.21 217.166 2146.21 215.684 L2146.21 189.029 Q2146.21 187.572 2145.57 187.127 Q2144.93 186.658 2142.21 186.658 L2141 186.658 L2141 185.077 L2158.86 185.077 Q2163.98 185.077 2167.38 187.893 Q2170.79 190.709 2170.79 194.488 Q2170.79 198.243 2167.31 200.961 Q2163.85 203.653 2159.26 203.653 L2150.71 203.653 L2150.71 215.684 Q2150.71 217.141 2151.33 217.611 Q2151.97 218.08 2154.71 218.08 L2155.92 218.08 L2155.92 219.637 Q2154.14 219.488 2148.44 219.488 Q2142.78 219.488 2141 219.637 M2150.56 202.344 L2157.53 202.344 Q2159.8 202.344 2161.46 201.702 Q2163.11 201.06 2163.85 200.294 Q2164.62 199.503 2165.04 198.243 Q2165.48 196.959 2165.53 196.267 Q2165.58 195.551 2165.58 194.488 Q2165.58 193.377 2165.53 192.685 Q2165.48 191.969 2165.04 190.709 Q2164.62 189.424 2163.85 188.659 Q2163.11 187.868 2161.46 187.275 Q2159.83 186.658 2157.53 186.658 L2153.03 186.658 Q2151.3 186.658 2150.93 187.003 Q2150.56 187.349 2150.56 188.683 L2150.56 202.344 Z" fill="#000000" fill-rule="evenodd" fill-opacity="1" /><path clip-path="url(#clip920)" d="M2176.5 231.791 Q2176.5 231.544 2177.14 230.926 Q2185.29 222.626 2185.29 206.988 Q2185.29 191.302 2177.46 183.372 Q2176.5 182.458 2176.5 182.186 Q2176.5 181.692 2176.99 181.692 Q2177.34 181.692 2178.55 182.705 Q2179.79 183.718 2181.64 186.04 Q2183.52 188.362 2184.9 191.203 Q2188.23 198.095 2188.23 206.988 Q2188.23 215.536 2185.05 222.428 Q2183.69 225.318 2181.79 227.739 Q2179.88 230.16 2178.62 231.222 Q2177.36 232.285 2176.99 232.285 Q2176.5 232.285 2176.5 231.791 Z" fill="#000000" fill-rule="evenodd" fill-opacity="1" /><polyline clip-path="url(#clip920)" style="stroke:#ff0000; stroke-linecap:butt; stroke-linejoin:round; stroke-width:4; stroke-opacity:1; fill:none" points="
  1726.63,254.197 1868.26,254.197 
  "/>
<path clip-path="url(#clip920)" d="M1891.87 271.477 L1891.87 269.92 Q1894.56 269.92 1895.18 269.599 Q1895.8 269.253 1895.8 267.623 L1895.8 254.011 Q1895.8 252.134 1895.15 251.689 Q1894.54 251.244 1892.07 251.244 L1892.07 249.663 L1899.13 249.12 L1899.13 267.672 Q1899.13 269.179 1899.67 269.55 Q1900.22 269.92 1902.69 269.92 L1902.69 271.477 Q1897.52 271.328 1897.43 271.328 Q1896.73 271.328 1891.87 271.477 M1893.99 240.301 Q1893.99 239.288 1894.76 238.473 Q1895.55 237.633 1896.66 237.633 Q1897.77 237.633 1898.56 238.399 Q1899.35 239.14 1899.35 240.326 Q1899.35 241.487 1898.56 242.252 Q1897.77 242.994 1896.66 242.994 Q1895.5 242.994 1894.73 242.178 Q1893.99 241.363 1893.99 240.301 Z" fill="#000000" fill-rule="evenodd" fill-opacity="1" /><path clip-path="url(#clip920)" d="M1905.6 275.478 Q1905.6 273.848 1906.84 272.44 Q1908.1 271.032 1910.27 270.414 Q1908.05 269.006 1908.05 265.918 Q1908.05 263.547 1909.6 261.719 Q1907.23 259.742 1907.23 256.506 Q1907.23 253.517 1909.6 251.319 Q1911.98 249.12 1915.43 249.12 Q1918.47 249.12 1920.8 250.948 Q1923.22 248.577 1926.16 248.552 Q1927.47 248.552 1928.08 249.367 Q1928.73 250.182 1928.73 251.047 Q1928.73 251.813 1928.23 252.183 Q1927.76 252.554 1927.27 252.554 Q1926.65 252.554 1926.21 252.158 Q1925.79 251.739 1925.79 251.096 Q1925.79 250.034 1926.6 249.713 Q1926.45 249.663 1926.11 249.663 Q1923.64 249.663 1921.54 251.64 Q1923.61 253.567 1923.61 256.556 Q1923.61 259.545 1921.24 261.743 Q1918.87 263.942 1915.43 263.942 Q1912.59 263.942 1910.42 262.361 Q1909.56 263.374 1909.56 264.757 Q1909.56 266.017 1910.32 267.005 Q1911.09 267.993 1912.25 268.142 Q1912.59 268.191 1916.03 268.191 Q1918.05 268.191 1919.16 268.24 Q1920.28 268.29 1921.86 268.636 Q1923.46 268.957 1924.72 269.599 Q1928.01 271.427 1928.03 275.38 Q1928.03 278.27 1924.7 280.073 Q1921.39 281.901 1916.79 281.901 Q1912.15 281.901 1908.86 280.049 Q1905.6 278.221 1905.6 275.478 M1908.25 275.478 Q1908.25 277.554 1910.69 279.135 Q1913.14 280.74 1916.84 280.74 Q1920.47 280.74 1922.92 279.159 Q1925.39 277.603 1925.39 275.478 Q1925.39 273.972 1924.53 273.008 Q1923.66 272.045 1921.88 271.649 Q1920.13 271.279 1918.89 271.205 Q1917.66 271.131 1915.39 271.131 L1912.4 271.131 Q1910.67 271.229 1909.46 272.489 Q1908.25 273.749 1908.25 275.478 M1911.01 256.556 Q1911.01 262.781 1915.43 262.781 Q1917.66 262.781 1919.02 260.755 Q1919.83 259.397 1919.83 256.506 Q1919.83 250.281 1915.43 250.281 Q1913.21 250.281 1911.83 252.307 Q1911.01 253.665 1911.01 256.556 Z" fill="#000000" fill-rule="evenodd" fill-opacity="1" /><path clip-path="url(#clip920)" d="M1931.12 271.477 L1931.12 269.92 Q1933.81 269.92 1934.43 269.599 Q1935.05 269.253 1935.05 267.623 L1935.05 254.061 Q1935.05 252.183 1934.38 251.714 Q1933.74 251.244 1931.12 251.244 L1931.12 249.663 L1938.24 249.12 L1938.24 254.431 Q1940.61 249.12 1945.72 249.12 Q1949.53 249.12 1951.03 250.997 Q1952.14 252.257 1952.37 253.665 Q1952.61 255.073 1952.61 258.73 L1952.61 268.389 Q1952.66 269.451 1953.48 269.698 Q1954.29 269.92 1956.57 269.92 L1956.57 271.477 Q1951.4 271.328 1950.88 271.328 Q1950.49 271.328 1945.18 271.477 L1945.18 269.92 Q1947.87 269.92 1948.49 269.599 Q1949.13 269.253 1949.13 267.623 L1949.13 255.839 Q1949.13 253.27 1948.34 251.763 Q1947.55 250.232 1945.38 250.232 Q1942.76 250.232 1940.66 252.43 Q1938.56 254.629 1938.56 258.334 L1938.56 267.623 Q1938.56 269.253 1939.17 269.599 Q1939.82 269.92 1942.48 269.92 L1942.48 271.477 Q1937.32 271.328 1936.83 271.328 Q1936.43 271.328 1931.12 271.477 Z" fill="#000000" fill-rule="evenodd" fill-opacity="1" /><path clip-path="url(#clip920)" d="M1962.3 268.759 Q1958.96 265.449 1958.96 260.656 Q1958.96 255.839 1962.22 252.331 Q1965.51 248.799 1970.2 248.799 Q1974.8 248.799 1978.08 252.307 Q1981.39 255.79 1981.39 260.656 Q1981.39 265.424 1978.06 268.734 Q1974.75 272.045 1970.15 272.045 Q1965.66 272.045 1962.3 268.759 M1963.16 260.236 Q1963.16 265.152 1964.45 267.376 Q1966.42 270.76 1970.2 270.76 Q1972.08 270.76 1973.64 269.747 Q1975.22 268.734 1976.08 267.03 Q1977.19 264.807 1977.19 260.236 Q1977.19 255.37 1975.86 253.221 Q1973.88 249.935 1970.15 249.935 Q1968.52 249.935 1966.92 250.8 Q1965.34 251.64 1964.37 253.32 Q1963.16 255.543 1963.16 260.236 Z" fill="#000000" fill-rule="evenodd" fill-opacity="1" /><path clip-path="url(#clip920)" d="M1984.26 271.477 L1984.26 269.92 Q1986.95 269.92 1987.57 269.599 Q1988.21 269.253 1988.21 267.623 L1988.21 254.061 Q1988.21 252.183 1987.54 251.714 Q1986.9 251.244 1984.26 251.244 L1984.26 249.663 L1991.3 249.12 L1991.3 254.678 Q1992.02 252.504 1993.52 250.825 Q1995.05 249.12 1997.52 249.12 Q1999.15 249.12 2000.19 250.034 Q2001.25 250.948 2001.25 252.208 Q2001.25 253.32 2000.56 253.888 Q1999.9 254.431 1999.08 254.431 Q1998.17 254.431 1997.52 253.863 Q1996.91 253.27 1996.91 252.257 Q1996.91 251.64 1997.18 251.17 Q1997.47 250.676 1997.7 250.503 Q1997.92 250.33 1998.07 250.281 Q1997.97 250.232 1997.52 250.232 Q1994.73 250.232 1993.13 253.023 Q1991.55 255.79 1991.55 259.742 L1991.55 267.524 Q1991.55 268.981 1992.14 269.451 Q1992.76 269.92 1995.4 269.92 L1996.46 269.92 L1996.46 271.477 Q1994.44 271.328 1990.04 271.328 Q1989.42 271.328 1988.46 271.353 Q1987.49 271.378 1986.23 271.427 Q1984.97 271.477 1984.26 271.477 Z" fill="#000000" fill-rule="evenodd" fill-opacity="1" /><path clip-path="url(#clip920)" d="M2004.02 260.335 Q2004.02 255.568 2007.08 252.183 Q2010.15 248.799 2014.54 248.799 Q2018.99 248.799 2021.29 251.689 Q2023.61 254.579 2023.61 258.73 Q2023.61 259.495 2023.41 259.644 Q2023.22 259.792 2022.35 259.792 L2008.22 259.792 Q2008.22 264.955 2009.75 267.376 Q2011.88 270.76 2015.46 270.76 Q2015.95 270.76 2016.55 270.661 Q2017.14 270.562 2018.35 270.143 Q2019.56 269.698 2020.62 268.537 Q2021.68 267.376 2022.3 265.548 Q2022.45 264.831 2022.94 264.856 Q2023.61 264.856 2023.61 265.449 Q2023.61 265.894 2023.12 266.906 Q2022.65 267.895 2021.73 269.08 Q2020.82 270.266 2019.04 271.155 Q2017.29 272.045 2015.16 272.045 Q2010.72 272.045 2007.36 268.685 Q2004.02 265.301 2004.02 260.335 M2008.27 258.73 L2020.28 258.73 Q2020.28 257.667 2020.08 256.482 Q2019.91 255.296 2019.36 253.665 Q2018.84 252.01 2017.61 250.973 Q2016.37 249.935 2014.54 249.935 Q2013.73 249.935 2012.84 250.281 Q2011.98 250.627 2010.91 251.467 Q2009.85 252.307 2009.11 254.209 Q2008.37 256.111 2008.27 258.73 Z" fill="#000000" fill-rule="evenodd" fill-opacity="1" /><path clip-path="url(#clip920)" d="M2046.91 258.828 Q2046.91 250.281 2050.09 243.389 Q2051.45 240.499 2053.35 238.078 Q2055.26 235.657 2056.52 234.594 Q2057.78 233.532 2058.12 233.532 Q2058.62 233.532 2058.64 234.026 Q2058.64 234.273 2057.97 234.891 Q2049.82 243.191 2049.85 258.828 Q2049.85 274.515 2057.78 282.494 Q2058.64 283.359 2058.64 283.631 Q2058.64 284.125 2058.12 284.125 Q2057.78 284.125 2056.56 283.112 Q2055.35 282.099 2053.48 279.777 Q2051.6 277.455 2050.24 274.614 Q2046.91 267.722 2046.91 258.828 Z" fill="#000000" fill-rule="evenodd" fill-opacity="1" /><path clip-path="url(#clip920)" d="M2064.35 254.332 Q2064.35 246.6 2069.29 241.215 Q2074.25 235.805 2081.14 235.805 Q2088.09 235.805 2093.03 241.215 Q2097.99 246.625 2097.99 254.332 Q2097.99 259.94 2095.13 264.51 Q2092.26 269.056 2087.72 271.131 Q2088.68 273.7 2089.77 274.886 Q2090.85 276.071 2092.56 276.071 Q2094.29 276.071 2095.62 274.935 Q2096.98 273.799 2097.18 271.822 Q2097.28 270.908 2097.72 270.908 Q2098.29 270.908 2098.29 271.971 Q2098.29 273.181 2098.02 274.54 Q2097.77 275.923 2097.15 277.529 Q2096.56 279.159 2095.28 280.222 Q2093.99 281.284 2092.16 281.284 Q2090.8 281.284 2089.79 280.691 Q2088.78 280.123 2088.19 279.406 Q2087.62 278.715 2087.12 277.183 Q2086.65 275.676 2086.48 274.713 Q2086.31 273.749 2085.99 271.822 Q2083.57 272.588 2081.19 272.588 Q2074.25 272.588 2069.29 267.277 Q2064.35 261.966 2064.35 254.332 M2069.39 254.332 Q2069.39 258.433 2070.28 261.595 Q2071.16 264.757 2072.6 266.561 Q2074.05 268.339 2075.29 269.278 Q2076.53 270.217 2077.79 270.661 Q2077.07 269.253 2077.09 268.24 Q2077.09 266.561 2078.25 265.276 Q2079.42 263.991 2081.24 263.991 Q2084.83 263.991 2086.95 269.352 Q2092.93 264.955 2092.93 254.332 Q2092.93 249.738 2091.79 246.254 Q2090.66 242.747 2088.83 240.82 Q2087 238.893 2085.05 237.979 Q2083.1 237.065 2081.14 237.065 Q2079.22 237.065 2077.29 237.954 Q2075.36 238.843 2073.54 240.721 Q2071.73 242.598 2070.55 246.156 Q2069.39 249.688 2069.39 254.332 M2078.21 268.24 Q2078.21 268.809 2078.38 269.426 Q2078.55 270.019 2079.29 270.686 Q2080.03 271.328 2081.19 271.328 Q2083.57 271.328 2085.64 270.167 Q2084.68 265.103 2081.24 265.103 Q2079.88 265.103 2079.05 266.066 Q2078.21 267.03 2078.21 268.24 Z" fill="#000000" fill-rule="evenodd" fill-opacity="1" /><path clip-path="url(#clip920)" d="M2102.69 271.477 L2102.69 269.92 Q2104.51 269.92 2105.68 269.574 Q2106.84 269.204 2107.26 268.537 Q2107.7 267.845 2107.8 267.4 Q2107.9 266.931 2107.9 266.165 L2107.9 240.869 Q2107.9 239.412 2107.26 238.967 Q2106.64 238.498 2103.9 238.498 L2102.69 238.498 L2102.69 236.917 L2111.23 236.917 Q2112.15 236.917 2112.39 237.089 Q2112.64 237.238 2113.01 238.028 L2123.98 266.363 L2135.05 237.88 Q2135.29 237.164 2135.52 237.04 Q2135.76 236.917 2136.73 236.917 L2145.27 236.917 L2145.27 238.498 L2144.06 238.498 Q2141.32 238.498 2140.68 238.967 Q2140.06 239.412 2140.06 240.869 L2140.06 267.524 Q2140.06 268.981 2140.68 269.451 Q2141.32 269.92 2144.06 269.92 L2145.27 269.92 L2145.27 271.477 Q2143.4 271.328 2138.04 271.328 Q2132.63 271.328 2130.75 271.477 L2130.75 269.92 L2131.98 269.92 Q2134.73 269.92 2135.34 269.476 Q2135.96 269.006 2135.96 267.524 L2135.96 238.498 L2135.91 238.498 L2123.49 270.513 Q2123.14 271.477 2122.57 271.477 Q2121.95 271.477 2121.56 270.365 L2109.36 238.893 L2109.31 238.893 L2109.31 266.165 Q2109.31 266.931 2109.41 267.4 Q2109.5 267.845 2109.92 268.537 Q2110.37 269.204 2111.53 269.574 Q2112.69 269.92 2114.52 269.92 L2114.52 271.477 Q2109.21 271.328 2108.59 271.328 Q2108 271.328 2102.69 271.477 Z" fill="#000000" fill-rule="evenodd" fill-opacity="1" /><path clip-path="url(#clip920)" d="M2148.91 271.477 L2148.91 269.92 L2150.12 269.92 Q2152.86 269.92 2153.48 269.476 Q2154.12 269.006 2154.12 267.524 L2154.12 240.869 Q2154.12 239.412 2153.48 238.967 Q2152.83 238.498 2150.12 238.498 L2148.91 238.498 L2148.91 236.917 L2167.41 236.917 Q2173.88 236.917 2178.38 242.08 Q2182.9 247.243 2182.9 254.481 Q2182.9 261.57 2178.35 266.536 Q2173.83 271.477 2167.41 271.477 L2148.91 271.477 M2158.47 267.895 Q2158.47 269.204 2158.84 269.574 Q2159.21 269.92 2160.94 269.92 L2166.05 269.92 Q2169.39 269.92 2171.63 268.562 Q2173.88 267.178 2175.04 265.597 Q2177.83 261.793 2177.83 254.481 Q2177.83 246.798 2175.22 243.191 Q2171.83 238.498 2166 238.498 L2160.94 238.498 Q2159.21 238.498 2158.84 238.843 Q2158.47 239.189 2158.47 240.523 L2158.47 267.895 Z" fill="#000000" fill-rule="evenodd" fill-opacity="1" /><path clip-path="url(#clip920)" d="M2187.49 271.477 L2187.49 269.92 L2188.7 269.92 Q2191.45 269.92 2192.06 269.476 Q2192.71 269.006 2192.71 267.524 L2192.71 240.869 Q2192.71 239.412 2192.06 238.967 Q2191.42 238.498 2188.7 238.498 L2187.49 238.498 L2187.49 236.917 L2205.35 236.917 Q2210.47 236.917 2213.88 239.733 Q2217.29 242.549 2217.29 246.328 Q2217.29 250.083 2213.8 252.801 Q2210.34 255.493 2205.75 255.493 L2197.2 255.493 L2197.2 267.524 Q2197.2 268.981 2197.82 269.451 Q2198.46 269.92 2201.2 269.92 L2202.41 269.92 L2202.41 271.477 Q2200.63 271.328 2194.93 271.328 Q2189.27 271.328 2187.49 271.477 M2197.05 254.184 L2204.02 254.184 Q2206.29 254.184 2207.95 253.542 Q2209.6 252.9 2210.34 252.134 Q2211.11 251.343 2211.53 250.083 Q2211.97 248.799 2212.02 248.107 Q2212.07 247.391 2212.07 246.328 Q2212.07 245.217 2212.02 244.525 Q2211.97 243.809 2211.53 242.549 Q2211.11 241.264 2210.34 240.499 Q2209.6 239.708 2207.95 239.115 Q2206.32 238.498 2204.02 238.498 L2199.52 238.498 Q2197.79 238.498 2197.42 238.843 Q2197.05 239.189 2197.05 240.523 L2197.05 254.184 Z" fill="#000000" fill-rule="evenodd" fill-opacity="1" /><path clip-path="url(#clip920)" d="M2222.99 283.631 Q2222.99 283.384 2223.63 282.766 Q2231.79 274.466 2231.79 258.828 Q2231.79 243.142 2223.95 235.212 Q2222.99 234.298 2222.99 234.026 Q2222.99 233.532 2223.49 233.532 Q2223.83 233.532 2225.04 234.545 Q2226.28 235.558 2228.13 237.88 Q2230.01 240.202 2231.39 243.043 Q2234.73 249.935 2234.73 258.828 Q2234.73 267.376 2231.54 274.268 Q2230.18 277.158 2228.28 279.579 Q2226.38 282 2225.12 283.062 Q2223.86 284.125 2223.49 284.125 Q2222.99 284.125 2222.99 283.631 Z" fill="#000000" fill-rule="evenodd" fill-opacity="1" /><circle clip-path="url(#clip920)" cx="1797.44" cy="306.037" r="23" fill="#000000" fill-rule="evenodd" fill-opacity="1" stroke="none"/>
<path clip-path="url(#clip920)" d="M1891.87 313.905 L1891.87 310.915 L1905.33 310.915 L1905.33 313.905 L1891.87 313.905 Z" fill="#000000" fill-rule="evenodd" fill-opacity="1" /><path clip-path="url(#clip920)" d="M1910.72 323.317 Q1910.72 322.402 1910.79 322.131 Q1910.89 321.859 1911.28 321.439 L1920.99 310.619 Q1926.3 304.641 1926.3 299.428 Q1926.3 296.044 1924.53 293.623 Q1922.77 291.202 1919.54 291.202 Q1917.31 291.202 1915.43 292.561 Q1913.56 293.92 1912.69 296.34 Q1912.84 296.291 1913.36 296.291 Q1914.62 296.291 1915.31 297.082 Q1916.03 297.872 1916.03 298.934 Q1916.03 300.293 1915.14 300.96 Q1914.27 301.602 1913.41 301.602 Q1913.06 301.602 1912.59 301.528 Q1912.15 301.454 1911.43 300.762 Q1910.72 300.046 1910.72 298.786 Q1910.72 295.254 1913.38 292.437 Q1916.08 289.621 1920.18 289.621 Q1924.82 289.621 1927.86 292.388 Q1930.92 295.13 1930.92 299.428 Q1930.92 300.935 1930.45 302.319 Q1930.01 303.677 1929.39 304.74 Q1928.8 305.802 1927.17 307.506 Q1925.54 309.211 1924.23 310.421 Q1922.92 311.632 1919.98 314.201 L1914.62 319.413 L1923.74 319.413 Q1928.18 319.413 1928.53 319.018 Q1929.02 318.302 1929.64 314.522 L1930.92 314.522 L1929.49 323.317 L1910.72 323.317 Z" fill="#000000" fill-rule="evenodd" fill-opacity="1" /><path clip-path="url(#clip920)" d="M1937.99 294.438 L1937.99 292.857 Q1944.07 292.857 1947.2 289.621 Q1948.07 289.621 1948.22 289.819 Q1948.36 290.016 1948.36 290.93 L1948.36 319.315 Q1948.36 320.821 1949.11 321.291 Q1949.85 321.76 1953.08 321.76 L1954.69 321.76 L1954.69 323.317 Q1952.91 323.168 1946.49 323.168 Q1940.06 323.168 1938.31 323.317 L1938.31 321.76 L1939.92 321.76 Q1943.1 321.76 1943.87 321.316 Q1944.63 320.846 1944.63 319.315 L1944.63 293.104 Q1941.99 294.438 1937.99 294.438 Z" fill="#000000" fill-rule="evenodd" fill-opacity="1" /><path clip-path="url(#clip920)" d="M1963.85 322.501 Q1963.09 321.686 1963.09 320.624 Q1963.09 319.562 1963.85 318.796 Q1964.62 318.005 1965.78 318.005 Q1966.89 318.005 1967.63 318.746 Q1968.4 319.463 1968.4 320.649 Q1968.4 321.81 1967.58 322.575 Q1966.79 323.317 1965.78 323.317 Q1964.62 323.317 1963.85 322.501 Z" fill="#000000" fill-rule="evenodd" fill-opacity="1" /><path clip-path="url(#clip920)" d="M1977.34 294.438 L1977.34 292.857 Q1983.42 292.857 1986.56 289.621 Q1987.42 289.621 1987.57 289.819 Q1987.72 290.016 1987.72 290.93 L1987.72 319.315 Q1987.72 320.821 1988.46 321.291 Q1989.2 321.76 1992.44 321.76 L1994.04 321.76 L1994.04 323.317 Q1992.26 323.168 1985.84 323.168 Q1979.42 323.168 1977.66 323.317 L1977.66 321.76 L1979.27 321.76 Q1982.45 321.76 1983.22 321.316 Q1983.99 320.846 1983.99 319.315 L1983.99 293.104 Q1981.34 294.438 1977.34 294.438 Z" fill="#000000" fill-rule="evenodd" fill-opacity="1" /><path clip-path="url(#clip920)" d="M2000.27 316.498 Q2000.27 314.991 2001.13 314.275 Q2002 313.559 2003.11 313.559 Q2004.27 313.559 2005.08 314.324 Q2005.92 315.066 2005.92 316.375 Q2005.92 317.783 2004.93 318.573 Q2003.97 319.364 2002.59 319.166 Q2003.8 321.192 2006.02 322.106 Q2008.27 323.02 2010.34 323.02 Q2012.52 323.02 2014.27 321.143 Q2016.05 319.265 2016.05 314.67 Q2016.05 310.767 2014.52 308.519 Q2013.01 306.271 2010.02 306.271 L2007.8 306.271 Q2007.03 306.271 2006.81 306.197 Q2006.59 306.123 2006.59 305.703 Q2006.59 305.209 2007.36 305.11 Q2008.12 305.11 2009.33 304.962 Q2012.27 304.863 2013.83 302.319 Q2015.24 299.947 2015.24 296.563 Q2015.24 293.475 2013.75 292.19 Q2012.3 290.881 2010.39 290.881 Q2008.62 290.881 2006.66 291.622 Q2004.71 292.363 2003.65 294.018 Q2006.79 294.018 2006.79 296.563 Q2006.79 297.674 2006.07 298.416 Q2005.38 299.132 2004.22 299.132 Q2003.11 299.132 2002.37 298.44 Q2001.62 297.724 2001.62 296.513 Q2001.62 293.623 2004.19 291.622 Q2006.79 289.621 2010.59 289.621 Q2014.35 289.621 2017.11 291.597 Q2019.91 293.574 2019.91 296.612 Q2019.91 299.601 2017.93 302.047 Q2015.95 304.493 2012.82 305.505 Q2016.67 306.271 2018.97 308.89 Q2021.26 311.484 2021.26 314.67 Q2021.26 318.623 2018.15 321.538 Q2015.04 324.428 2010.49 324.428 Q2006.29 324.428 2003.28 322.155 Q2000.27 319.883 2000.27 316.498 Z" fill="#000000" fill-rule="evenodd" fill-opacity="1" /><path clip-path="url(#clip920)" d="M2025.56 301.009 Q2025.56 298.317 2026.35 296.489 Q2027.14 294.636 2028.8 292.808 Q2031.84 289.621 2036.23 289.621 Q2038.11 289.621 2039.77 290.412 Q2041.45 291.202 2043.03 293.005 Q2044.63 294.784 2045.6 298.317 Q2046.56 301.825 2046.56 306.666 Q2046.56 314.497 2042.76 319.463 Q2038.98 324.428 2033.86 324.428 Q2030.63 324.428 2028.72 322.971 Q2026.82 321.488 2026.82 318.969 Q2026.82 317.659 2027.56 317.116 Q2028.3 316.548 2029.14 316.548 Q2030.06 316.548 2030.77 317.165 Q2031.49 317.758 2031.49 318.87 Q2031.49 319.784 2030.9 320.5 Q2030.33 321.192 2028.85 321.192 Q2030.31 323.02 2033.81 323.02 Q2035.07 323.02 2036.33 322.452 Q2037.59 321.859 2038.95 320.451 Q2040.33 319.018 2041.17 316.029 Q2042.01 313.04 2042.01 308.84 L2042.01 307.235 Q2039.99 312.299 2035.69 312.299 Q2031.44 312.299 2028.5 309.038 Q2025.56 305.777 2025.56 301.009 M2030.11 301.059 Q2030.11 306.074 2031.02 307.926 Q2032.58 311.113 2035.74 311.113 Q2038.83 311.113 2040.36 308.371 Q2041.92 305.604 2041.92 302.022 Q2041.92 297.057 2041.1 294.883 Q2039.59 290.881 2036.23 290.881 Q2032.9 290.881 2031.17 294.068 Q2030.11 295.945 2030.11 301.059 Z" fill="#000000" fill-rule="evenodd" fill-opacity="1" /></svg>
