<?xml version="1.0" encoding="utf-8"?>
<svg xmlns="http://www.w3.org/2000/svg" xmlns:xlink="http://www.w3.org/1999/xlink" width="500" height="500" viewBox="0 0 2000 2000">
<defs>
  <clipPath id="clip770">
    <rect x="0" y="0" width="2000" height="2000"/>
  </clipPath>
</defs>
<path clip-path="url(#clip770)" d="
M0 2000 L2000 2000 L2000 0 L0 0  Z
  " fill="#ffffff" fill-rule="evenodd" fill-opacity="1"/>
<defs>
  <clipPath id="clip771">
    <rect x="400" y="200" width="1401" height="1401"/>
  </clipPath>
</defs>
<path clip-path="url(#clip770)" d="
M294.451 1778.14 L1952.76 1778.14 L1952.76 153.712 L294.451 153.712  Z
  " fill="#ffffff" fill-rule="evenodd" fill-opacity="1"/>
<defs>
  <clipPath id="clip772">
    <rect x="294" y="153" width="1659" height="1625"/>
  </clipPath>
</defs>
<polyline clip-path="url(#clip772)" style="stroke:#000000; stroke-linecap:butt; stroke-linejoin:round; stroke-width:2; stroke-opacity:0.1; fill:none" points="
  294.451,1778.14 294.451,153.712 
  "/>
<polyline clip-path="url(#clip772)" style="stroke:#000000; stroke-linecap:butt; stroke-linejoin:round; stroke-width:2; stroke-opacity:0.1; fill:none" points="
  654.952,1778.14 654.952,153.712 
  "/>
<polyline clip-path="url(#clip772)" style="stroke:#000000; stroke-linecap:butt; stroke-linejoin:round; stroke-width:2; stroke-opacity:0.1; fill:none" points="
  1015.45,1778.14 1015.45,153.712 
  "/>
<polyline clip-path="url(#clip772)" style="stroke:#000000; stroke-linecap:butt; stroke-linejoin:round; stroke-width:2; stroke-opacity:0.1; fill:none" points="
  1375.95,1778.14 1375.95,153.712 
  "/>
<polyline clip-path="url(#clip772)" style="stroke:#000000; stroke-linecap:butt; stroke-linejoin:round; stroke-width:2; stroke-opacity:0.1; fill:none" points="
  1736.46,1778.14 1736.46,153.712 
  "/>
<polyline clip-path="url(#clip770)" style="stroke:#000000; stroke-linecap:butt; stroke-linejoin:round; stroke-width:4; stroke-opacity:1; fill:none" points="
  294.451,1778.14 1952.76,1778.14 
  "/>
<polyline clip-path="url(#clip770)" style="stroke:#000000; stroke-linecap:butt; stroke-linejoin:round; stroke-width:4; stroke-opacity:1; fill:none" points="
  294.451,153.712 1952.76,153.712 
  "/>
<polyline clip-path="url(#clip770)" style="stroke:#000000; stroke-linecap:butt; stroke-linejoin:round; stroke-width:4; stroke-opacity:1; fill:none" points="
  294.451,1778.14 294.451,1759.24 
  "/>
<polyline clip-path="url(#clip770)" style="stroke:#000000; stroke-linecap:butt; stroke-linejoin:round; stroke-width:4; stroke-opacity:1; fill:none" points="
  654.952,1778.14 654.952,1759.24 
  "/>
<polyline clip-path="url(#clip770)" style="stroke:#000000; stroke-linecap:butt; stroke-linejoin:round; stroke-width:4; stroke-opacity:1; fill:none" points="
  1015.45,1778.14 1015.45,1759.24 
  "/>
<polyline clip-path="url(#clip770)" style="stroke:#000000; stroke-linecap:butt; stroke-linejoin:round; stroke-width:4; stroke-opacity:1; fill:none" points="
  1375.95,1778.14 1375.95,1759.24 
  "/>
<polyline clip-path="url(#clip770)" style="stroke:#000000; stroke-linecap:butt; stroke-linejoin:round; stroke-width:4; stroke-opacity:1; fill:none" points="
  1736.46,1778.14 1736.46,1759.24 
  "/>
<path clip-path="url(#clip770)" d="M278.554 1822.25 Q278.851 1822.54 278.851 1822.96 Q278.851 1823.38 278.554 1823.68 Q278.258 1823.98 277.838 1823.98 L246.168 1823.98 Q245.748 1823.98 245.452 1823.68 Q245.155 1823.38 245.155 1822.96 Q245.155 1822.54 245.452 1822.25 Q245.748 1821.95 246.168 1821.95 L277.838 1821.95 Q278.258 1821.95 278.554 1822.25 Z" fill="#000000" fill-rule="evenodd" fill-opacity="1" /><path clip-path="url(#clip770)" d="M286.163 1806.73 L286.163 1805.15 Q292.24 1805.15 295.377 1801.92 Q296.242 1801.92 296.39 1802.11 Q296.538 1802.31 296.538 1803.23 L296.538 1831.61 Q296.538 1833.12 297.28 1833.59 Q298.021 1834.06 301.257 1834.06 L302.862 1834.06 L302.862 1835.61 Q301.084 1835.46 294.661 1835.46 Q288.238 1835.46 286.484 1835.61 L286.484 1834.06 L288.09 1834.06 Q291.277 1834.06 292.042 1833.61 Q292.808 1833.14 292.808 1831.61 L292.808 1805.4 Q290.165 1806.73 286.163 1806.73 Z" fill="#000000" fill-rule="evenodd" fill-opacity="1" /><path clip-path="url(#clip770)" d="M312.027 1834.8 Q311.262 1833.98 311.262 1832.92 Q311.262 1831.86 312.027 1831.09 Q312.793 1830.3 313.954 1830.3 Q315.066 1830.3 315.807 1831.04 Q316.573 1831.76 316.573 1832.94 Q316.573 1834.1 315.758 1834.87 Q314.967 1835.61 313.954 1835.61 Q312.793 1835.61 312.027 1834.8 Z" fill="#000000" fill-rule="evenodd" fill-opacity="1" /><path clip-path="url(#clip770)" d="M323.539 1827.46 Q323.539 1825.95 324.354 1825.38 Q325.17 1824.79 326.034 1824.79 Q327.195 1824.79 327.862 1825.53 Q328.554 1826.25 328.554 1827.26 Q328.554 1828.27 327.862 1829.02 Q327.195 1829.73 326.034 1829.73 Q325.466 1829.73 325.17 1829.63 Q325.837 1831.96 327.862 1833.64 Q329.913 1835.32 332.605 1835.32 Q335.99 1835.32 338.015 1832.03 Q339.226 1829.91 339.226 1825.09 Q339.226 1820.84 338.312 1818.71 Q336.904 1815.48 334.013 1815.48 Q329.913 1815.48 327.492 1819.01 Q327.195 1819.46 326.849 1819.48 Q326.355 1819.48 326.232 1819.21 Q326.133 1818.91 326.133 1818.15 L326.133 1803.18 Q326.133 1801.97 326.627 1801.97 Q326.825 1801.97 327.245 1802.11 Q330.431 1803.52 333.964 1803.55 Q337.595 1803.55 340.856 1802.06 Q341.103 1801.92 341.251 1801.92 Q341.746 1801.92 341.77 1802.48 Q341.77 1802.68 341.35 1803.28 Q340.955 1803.84 340.09 1804.61 Q339.226 1805.35 338.114 1806.07 Q337.003 1806.78 335.372 1807.28 Q333.766 1807.75 331.988 1807.75 Q329.863 1807.75 327.689 1807.08 L327.689 1816.94 Q330.308 1814.37 334.112 1814.37 Q338.164 1814.37 340.955 1817.63 Q343.747 1820.89 343.747 1825.43 Q343.747 1830.2 340.436 1833.46 Q337.151 1836.72 332.704 1836.72 Q328.653 1836.72 326.084 1833.83 Q323.539 1830.94 323.539 1827.46 Z" fill="#000000" fill-rule="evenodd" fill-opacity="1" /><path clip-path="url(#clip770)" d="M638.784 1822.25 Q639.08 1822.54 639.08 1822.96 Q639.08 1823.38 638.784 1823.68 Q638.487 1823.98 638.067 1823.98 L606.398 1823.98 Q605.978 1823.98 605.681 1823.68 Q605.385 1823.38 605.385 1822.96 Q605.385 1822.54 605.681 1822.25 Q605.978 1821.95 606.398 1821.95 L638.067 1821.95 Q638.487 1821.95 638.784 1822.25 Z" fill="#000000" fill-rule="evenodd" fill-opacity="1" /><path clip-path="url(#clip770)" d="M646.392 1806.73 L646.392 1805.15 Q652.469 1805.15 655.607 1801.92 Q656.471 1801.92 656.62 1802.11 Q656.768 1802.31 656.768 1803.23 L656.768 1831.61 Q656.768 1833.12 657.509 1833.59 Q658.25 1834.06 661.486 1834.06 L663.092 1834.06 L663.092 1835.61 Q661.313 1835.46 654.89 1835.46 Q648.467 1835.46 646.713 1835.61 L646.713 1834.06 L648.319 1834.06 Q651.506 1834.06 652.272 1833.61 Q653.038 1833.14 653.038 1831.61 L653.038 1805.4 Q650.394 1806.73 646.392 1806.73 Z" fill="#000000" fill-rule="evenodd" fill-opacity="1" /><path clip-path="url(#clip770)" d="M672.257 1834.8 Q671.491 1833.98 671.491 1832.92 Q671.491 1831.86 672.257 1831.09 Q673.023 1830.3 674.184 1830.3 Q675.295 1830.3 676.036 1831.04 Q676.802 1831.76 676.802 1832.94 Q676.802 1834.1 675.987 1834.87 Q675.196 1835.61 674.184 1835.61 Q673.023 1835.61 672.257 1834.8 Z" fill="#000000" fill-rule="evenodd" fill-opacity="1" /><path clip-path="url(#clip770)" d="M683.225 1819.43 Q683.225 1812 685.103 1807.94 Q687.721 1801.92 693.897 1801.92 Q695.206 1801.92 696.565 1802.29 Q697.948 1802.63 699.677 1803.99 Q701.431 1805.35 702.494 1807.57 Q704.519 1811.87 704.519 1819.43 Q704.519 1826.82 702.642 1830.84 Q699.9 1836.72 693.847 1836.72 Q691.575 1836.72 689.253 1835.56 Q686.955 1834.4 685.498 1831.61 Q683.225 1827.44 683.225 1819.43 M687.425 1818.81 Q687.425 1826.45 687.968 1829.49 Q688.586 1832.77 690.266 1834.2 Q691.97 1835.61 693.847 1835.61 Q695.873 1835.61 697.553 1834.1 Q699.258 1832.57 699.776 1829.29 Q700.344 1826.05 700.32 1818.81 Q700.32 1811.77 699.826 1808.96 Q699.159 1805.67 697.38 1804.36 Q695.626 1803.03 693.847 1803.03 Q693.18 1803.03 692.464 1803.23 Q691.772 1803.42 690.76 1803.99 Q689.747 1804.56 688.956 1805.97 Q688.19 1807.38 687.82 1809.5 Q687.425 1812.24 687.425 1818.81 Z" fill="#000000" fill-rule="evenodd" fill-opacity="1" /><path clip-path="url(#clip770)" d="M999.557 1822.25 Q999.853 1822.54 999.853 1822.96 Q999.853 1823.38 999.557 1823.68 Q999.26 1823.98 998.84 1823.98 L967.17 1823.98 Q966.75 1823.98 966.454 1823.68 Q966.158 1823.38 966.158 1822.96 Q966.158 1822.54 966.454 1822.25 Q966.75 1821.95 967.17 1821.95 L998.84 1821.95 Q999.26 1821.95 999.557 1822.25 Z" fill="#000000" fill-rule="evenodd" fill-opacity="1" /><path clip-path="url(#clip770)" d="M1004.65 1819.43 Q1004.65 1812 1006.52 1807.94 Q1009.14 1801.92 1015.32 1801.92 Q1016.63 1801.92 1017.99 1802.29 Q1019.37 1802.63 1021.1 1803.99 Q1022.85 1805.35 1023.91 1807.57 Q1025.94 1811.87 1025.94 1819.43 Q1025.94 1826.82 1024.06 1830.84 Q1021.32 1836.72 1015.27 1836.72 Q1013 1836.72 1010.67 1835.56 Q1008.38 1834.4 1006.92 1831.61 Q1004.65 1827.44 1004.65 1819.43 M1008.84 1818.81 Q1008.84 1826.45 1009.39 1829.49 Q1010.01 1832.77 1011.69 1834.2 Q1013.39 1835.61 1015.27 1835.61 Q1017.29 1835.61 1018.97 1834.1 Q1020.68 1832.57 1021.2 1829.29 Q1021.76 1826.05 1021.74 1818.81 Q1021.74 1811.77 1021.25 1808.96 Q1020.58 1805.67 1018.8 1804.36 Q1017.05 1803.03 1015.27 1803.03 Q1014.6 1803.03 1013.88 1803.23 Q1013.19 1803.42 1012.18 1803.99 Q1011.17 1804.56 1010.38 1805.97 Q1009.61 1807.38 1009.24 1809.5 Q1008.84 1812.24 1008.84 1818.81 Z" fill="#000000" fill-rule="evenodd" fill-opacity="1" /><path clip-path="url(#clip770)" d="M1033.03 1834.8 Q1032.26 1833.98 1032.26 1832.92 Q1032.26 1831.86 1033.03 1831.09 Q1033.8 1830.3 1034.96 1830.3 Q1036.07 1830.3 1036.81 1831.04 Q1037.57 1831.76 1037.57 1832.94 Q1037.57 1834.1 1036.76 1834.87 Q1035.97 1835.61 1034.96 1835.61 Q1033.8 1835.61 1033.03 1834.8 Z" fill="#000000" fill-rule="evenodd" fill-opacity="1" /><path clip-path="url(#clip770)" d="M1044.54 1827.46 Q1044.54 1825.95 1045.36 1825.38 Q1046.17 1824.79 1047.04 1824.79 Q1048.2 1824.79 1048.86 1825.53 Q1049.56 1826.25 1049.56 1827.26 Q1049.56 1828.27 1048.86 1829.02 Q1048.2 1829.73 1047.04 1829.73 Q1046.47 1829.73 1046.17 1829.63 Q1046.84 1831.96 1048.86 1833.64 Q1050.91 1835.32 1053.61 1835.32 Q1056.99 1835.32 1059.02 1832.03 Q1060.23 1829.91 1060.23 1825.09 Q1060.23 1820.84 1059.31 1818.71 Q1057.91 1815.48 1055.02 1815.48 Q1050.91 1815.48 1048.49 1819.01 Q1048.2 1819.46 1047.85 1819.48 Q1047.36 1819.48 1047.23 1819.21 Q1047.14 1818.91 1047.14 1818.15 L1047.14 1803.18 Q1047.14 1801.97 1047.63 1801.97 Q1047.83 1801.97 1048.25 1802.11 Q1051.43 1803.52 1054.97 1803.55 Q1058.6 1803.55 1061.86 1802.06 Q1062.11 1801.92 1062.25 1801.92 Q1062.75 1801.92 1062.77 1802.48 Q1062.77 1802.68 1062.35 1803.28 Q1061.96 1803.84 1061.09 1804.61 Q1060.23 1805.35 1059.12 1806.07 Q1058 1806.78 1056.37 1807.28 Q1054.77 1807.75 1052.99 1807.75 Q1050.87 1807.75 1048.69 1807.08 L1048.69 1816.94 Q1051.31 1814.37 1055.11 1814.37 Q1059.17 1814.37 1061.96 1817.63 Q1064.75 1820.89 1064.75 1825.43 Q1064.75 1830.2 1061.44 1833.46 Q1058.15 1836.72 1053.71 1836.72 Q1049.65 1836.72 1047.09 1833.83 Q1044.54 1830.94 1044.54 1827.46 Z" fill="#000000" fill-rule="evenodd" fill-opacity="1" /><path clip-path="url(#clip770)" d="M1345.63 1819.43 Q1345.63 1812 1347.51 1807.94 Q1350.13 1801.92 1356.3 1801.92 Q1357.61 1801.92 1358.97 1802.29 Q1360.35 1802.63 1362.08 1803.99 Q1363.84 1805.35 1364.9 1807.57 Q1366.93 1811.87 1366.93 1819.43 Q1366.93 1826.82 1365.05 1830.84 Q1362.31 1836.72 1356.25 1836.72 Q1353.98 1836.72 1351.66 1835.56 Q1349.36 1834.4 1347.9 1831.61 Q1345.63 1827.44 1345.63 1819.43 M1349.83 1818.81 Q1349.83 1826.45 1350.37 1829.49 Q1350.99 1832.77 1352.67 1834.2 Q1354.38 1835.61 1356.25 1835.61 Q1358.28 1835.61 1359.96 1834.1 Q1361.66 1832.57 1362.18 1829.29 Q1362.75 1826.05 1362.73 1818.81 Q1362.73 1811.77 1362.23 1808.96 Q1361.56 1805.67 1359.79 1804.36 Q1358.03 1803.03 1356.25 1803.03 Q1355.59 1803.03 1354.87 1803.23 Q1354.18 1803.42 1353.17 1803.99 Q1352.15 1804.56 1351.36 1805.97 Q1350.6 1807.38 1350.23 1809.5 Q1349.83 1812.24 1349.83 1818.81 Z" fill="#000000" fill-rule="evenodd" fill-opacity="1" /><path clip-path="url(#clip770)" d="M1374.01 1834.8 Q1373.25 1833.98 1373.25 1832.92 Q1373.25 1831.86 1374.01 1831.09 Q1374.78 1830.3 1375.94 1830.3 Q1377.05 1830.3 1377.79 1831.04 Q1378.56 1831.76 1378.56 1832.94 Q1378.56 1834.1 1377.75 1834.87 Q1376.95 1835.61 1375.94 1835.61 Q1374.78 1835.61 1374.01 1834.8 Z" fill="#000000" fill-rule="evenodd" fill-opacity="1" /><path clip-path="url(#clip770)" d="M1384.98 1819.43 Q1384.98 1812 1386.86 1807.94 Q1389.48 1801.92 1395.66 1801.92 Q1396.96 1801.92 1398.32 1802.29 Q1399.71 1802.63 1401.44 1803.99 Q1403.19 1805.35 1404.25 1807.57 Q1406.28 1811.87 1406.28 1819.43 Q1406.28 1826.82 1404.4 1830.84 Q1401.66 1836.72 1395.61 1836.72 Q1393.33 1836.72 1391.01 1835.56 Q1388.71 1834.4 1387.26 1831.61 Q1384.98 1827.44 1384.98 1819.43 M1389.18 1818.81 Q1389.18 1826.45 1389.73 1829.49 Q1390.34 1832.77 1392.02 1834.2 Q1393.73 1835.61 1395.61 1835.61 Q1397.63 1835.61 1399.31 1834.1 Q1401.02 1832.57 1401.53 1829.29 Q1402.1 1826.05 1402.08 1818.81 Q1402.08 1811.77 1401.58 1808.96 Q1400.92 1805.67 1399.14 1804.36 Q1397.38 1803.03 1395.61 1803.03 Q1394.94 1803.03 1394.22 1803.23 Q1393.53 1803.42 1392.52 1803.99 Q1391.5 1804.56 1390.71 1805.97 Q1389.95 1807.38 1389.58 1809.5 Q1389.18 1812.24 1389.18 1818.81 Z" fill="#000000" fill-rule="evenodd" fill-opacity="1" /><path clip-path="url(#clip770)" d="M1706.4 1819.43 Q1706.4 1812 1708.28 1807.94 Q1710.9 1801.92 1717.08 1801.92 Q1718.38 1801.92 1719.74 1802.29 Q1721.13 1802.63 1722.86 1803.99 Q1724.61 1805.35 1725.67 1807.57 Q1727.7 1811.87 1727.7 1819.43 Q1727.7 1826.82 1725.82 1830.84 Q1723.08 1836.72 1717.03 1836.72 Q1714.75 1836.72 1712.43 1835.56 Q1710.13 1834.4 1708.68 1831.61 Q1706.4 1827.44 1706.4 1819.43 M1710.6 1818.81 Q1710.6 1826.45 1711.15 1829.49 Q1711.76 1832.77 1713.44 1834.2 Q1715.15 1835.61 1717.03 1835.61 Q1719.05 1835.61 1720.73 1834.1 Q1722.44 1832.57 1722.95 1829.29 Q1723.52 1826.05 1723.5 1818.81 Q1723.5 1811.77 1723 1808.96 Q1722.34 1805.67 1720.56 1804.36 Q1718.8 1803.03 1717.03 1803.03 Q1716.36 1803.03 1715.64 1803.23 Q1714.95 1803.42 1713.94 1803.99 Q1712.93 1804.56 1712.13 1805.97 Q1711.37 1807.38 1711 1809.5 Q1710.6 1812.24 1710.6 1818.81 Z" fill="#000000" fill-rule="evenodd" fill-opacity="1" /><path clip-path="url(#clip770)" d="M1734.79 1834.8 Q1734.02 1833.98 1734.02 1832.92 Q1734.02 1831.86 1734.79 1831.09 Q1735.55 1830.3 1736.71 1830.3 Q1737.83 1830.3 1738.57 1831.04 Q1739.33 1831.76 1739.33 1832.94 Q1739.33 1834.1 1738.52 1834.87 Q1737.73 1835.61 1736.71 1835.61 Q1735.55 1835.61 1734.79 1834.8 Z" fill="#000000" fill-rule="evenodd" fill-opacity="1" /><path clip-path="url(#clip770)" d="M1746.3 1827.46 Q1746.3 1825.95 1747.11 1825.38 Q1747.93 1824.79 1748.79 1824.79 Q1749.96 1824.79 1750.62 1825.53 Q1751.31 1826.25 1751.31 1827.26 Q1751.31 1828.27 1750.62 1829.02 Q1749.96 1829.73 1748.79 1829.73 Q1748.23 1829.73 1747.93 1829.63 Q1748.6 1831.96 1750.62 1833.64 Q1752.67 1835.32 1755.37 1835.32 Q1758.75 1835.32 1760.78 1832.03 Q1761.99 1829.91 1761.99 1825.09 Q1761.99 1820.84 1761.07 1818.71 Q1759.66 1815.48 1756.77 1815.48 Q1752.67 1815.48 1750.25 1819.01 Q1749.96 1819.46 1749.61 1819.48 Q1749.12 1819.48 1748.99 1819.21 Q1748.89 1818.91 1748.89 1818.15 L1748.89 1803.18 Q1748.89 1801.97 1749.39 1801.97 Q1749.59 1801.97 1750.01 1802.11 Q1753.19 1803.52 1756.72 1803.55 Q1760.36 1803.55 1763.62 1802.06 Q1763.86 1801.92 1764.01 1801.92 Q1764.51 1801.92 1764.53 1802.48 Q1764.53 1802.68 1764.11 1803.28 Q1763.72 1803.84 1762.85 1804.61 Q1761.99 1805.35 1760.87 1806.07 Q1759.76 1806.78 1758.13 1807.28 Q1756.53 1807.75 1754.75 1807.75 Q1752.62 1807.75 1750.45 1807.08 L1750.45 1816.94 Q1753.07 1814.37 1756.87 1814.37 Q1760.92 1814.37 1763.72 1817.63 Q1766.51 1820.89 1766.51 1825.43 Q1766.51 1830.2 1763.2 1833.46 Q1759.91 1836.72 1755.46 1836.72 Q1751.41 1836.72 1748.84 1833.83 Q1746.3 1830.94 1746.3 1827.46 Z" fill="#000000" fill-rule="evenodd" fill-opacity="1" /><path clip-path="url(#clip770)" d="M1004.48 1928.35 Q1008.18 1928.35 1009.03 1927.87 Q1009.92 1927.43 1009.92 1925.22 L1009.92 1892.65 Q1009.92 1890.34 1009.03 1889.76 Q1008.18 1889.18 1004.48 1889.18 L1004.48 1887.01 L1014.5 1886.26 L1014.5 1890.85 Q1018.68 1886.26 1024.25 1886.26 Q1030.16 1886.26 1034.47 1890.85 Q1038.79 1895.43 1038.79 1901.99 Q1038.79 1908.61 1034.2 1913.2 Q1029.62 1917.79 1023.26 1917.79 Q1019.8 1917.79 1017.46 1916.02 Q1015.15 1914.22 1014.7 1912.89 L1014.7 1913.54 L1014.7 1925.22 Q1014.7 1927.47 1015.59 1927.91 Q1016.47 1928.35 1020.14 1928.35 L1020.14 1930.49 Q1012.84 1930.28 1012.29 1930.28 Q1011.61 1930.28 1004.48 1930.49 L1004.48 1928.35 M1014.7 1909.09 Q1014.7 1910.14 1014.84 1910.52 Q1015.01 1910.89 1015.69 1912.01 Q1018.44 1916.22 1022.92 1916.22 Q1022.96 1916.22 1022.99 1916.22 Q1026.97 1916.22 1029.99 1912.18 Q1033.01 1908.1 1033.01 1901.99 Q1033.01 1896.15 1030.26 1892.07 Q1027.51 1888 1023.71 1888 Q1020.99 1888 1018.61 1889.46 Q1016.23 1890.92 1014.7 1893.57 L1014.7 1909.09 Z" fill="#000000" fill-rule="evenodd" fill-opacity="1" /><path clip-path="url(#clip770)" d="M1049.59 1913.27 Q1045 1908.72 1045 1902.13 Q1045 1895.5 1049.49 1890.68 Q1054 1885.82 1060.46 1885.82 Q1066.78 1885.82 1071.29 1890.65 Q1075.85 1895.43 1075.85 1902.13 Q1075.85 1908.68 1071.26 1913.23 Q1066.71 1917.79 1060.39 1917.79 Q1054.21 1917.79 1049.59 1913.27 M1050.78 1901.55 Q1050.78 1908.31 1052.54 1911.37 Q1055.26 1916.02 1060.46 1916.02 Q1063.04 1916.02 1065.18 1914.63 Q1067.35 1913.23 1068.54 1910.89 Q1070.07 1907.83 1070.07 1901.55 Q1070.07 1894.86 1068.24 1891.9 Q1065.52 1887.38 1060.39 1887.38 Q1058.15 1887.38 1055.94 1888.57 Q1053.77 1889.73 1052.44 1892.04 Q1050.78 1895.1 1050.78 1901.55 Z" fill="#000000" fill-rule="evenodd" fill-opacity="1" /><path clip-path="url(#clip770)" d="M1080.16 1916.09 L1080.16 1906.92 Q1080.16 1906.13 1080.19 1905.86 Q1080.23 1905.59 1080.43 1905.39 Q1080.64 1905.18 1081.04 1905.18 Q1081.52 1905.18 1081.69 1905.39 Q1081.89 1905.59 1082.03 1906.37 Q1083.08 1911.16 1085.32 1913.71 Q1087.6 1916.22 1091.71 1916.22 Q1095.61 1916.22 1097.58 1914.49 Q1099.55 1912.76 1099.55 1909.9 Q1099.55 1904.81 1092.32 1903.52 Q1088.14 1902.67 1086.41 1902.13 Q1084.68 1901.55 1083.15 1900.29 Q1080.16 1897.85 1080.16 1894.38 Q1080.16 1890.92 1082.77 1888.37 Q1085.42 1885.82 1091.27 1885.82 Q1095.17 1885.82 1097.82 1887.79 Q1098.6 1887.18 1099.01 1886.67 Q1099.93 1885.82 1100.4 1885.82 Q1100.95 1885.82 1101.05 1886.2 Q1101.15 1886.54 1101.15 1887.52 L1101.15 1894.52 Q1101.15 1895.3 1101.12 1895.57 Q1101.08 1895.84 1100.88 1896.05 Q1100.68 1896.22 1100.23 1896.22 Q1099.45 1896.22 1099.42 1895.57 Q1098.88 1887.15 1091.27 1887.15 Q1087.16 1887.15 1085.32 1888.74 Q1083.49 1890.31 1083.49 1892.45 Q1083.49 1893.63 1084.03 1894.55 Q1084.61 1895.43 1085.32 1895.98 Q1086.07 1896.49 1087.43 1897 Q1088.79 1897.47 1089.6 1897.64 Q1090.45 1897.81 1092.05 1898.15 Q1097.62 1899.21 1099.96 1901.48 Q1102.88 1904.4 1102.88 1908.1 Q1102.88 1912.21 1100.1 1915 Q1097.31 1917.79 1091.71 1917.79 Q1087.19 1917.79 1084.03 1914.76 Q1083.62 1915.17 1083.32 1915.54 Q1083.01 1915.88 1082.88 1916.02 Q1082.77 1916.15 1082.74 1916.26 Q1082.71 1916.32 1082.64 1916.39 Q1081.25 1917.79 1080.91 1917.79 Q1080.36 1917.79 1080.26 1917.41 Q1080.16 1917.07 1080.16 1916.09 Z" fill="#000000" fill-rule="evenodd" fill-opacity="1" /><path clip-path="url(#clip770)" d="M1107.54 1917 L1107.54 1914.86 Q1111.24 1914.86 1112.09 1914.42 Q1112.94 1913.95 1112.94 1911.7 L1112.94 1892.99 Q1112.94 1890.41 1112.05 1889.8 Q1111.21 1889.18 1107.81 1889.18 L1107.81 1887.01 L1117.52 1886.26 L1117.52 1911.77 Q1117.52 1913.84 1118.27 1914.35 Q1119.02 1914.86 1122.41 1914.86 L1122.41 1917 Q1115.32 1916.8 1115.18 1916.8 Q1114.23 1916.8 1107.54 1917 M1110.46 1874.14 Q1110.46 1872.74 1111.51 1871.62 Q1112.6 1870.47 1114.13 1870.47 Q1115.66 1870.47 1116.74 1871.52 Q1117.83 1872.54 1117.83 1874.17 Q1117.83 1875.77 1116.74 1876.82 Q1115.66 1877.84 1114.13 1877.84 Q1112.53 1877.84 1111.48 1876.72 Q1110.46 1875.6 1110.46 1874.14 Z" fill="#000000" fill-rule="evenodd" fill-opacity="1" /><path clip-path="url(#clip770)" d="M1125.81 1889.18 L1125.81 1887.66 Q1129 1887.52 1131.11 1885.28 Q1133.25 1883 1133.96 1880.22 Q1134.71 1877.43 1134.78 1874.21 L1136.51 1874.21 L1136.51 1887.01 L1146.46 1887.01 L1146.46 1889.18 L1136.51 1889.18 L1136.51 1908.51 Q1136.51 1916.02 1141.2 1916.02 Q1143.2 1916.02 1144.53 1913.98 Q1145.85 1911.91 1145.85 1908.24 L1145.85 1904.4 L1147.58 1904.4 L1147.58 1908.38 Q1147.58 1912.15 1145.85 1914.97 Q1144.12 1917.79 1140.69 1917.79 Q1139.43 1917.79 1138.18 1917.45 Q1136.95 1917.14 1135.32 1916.32 Q1133.73 1915.48 1132.71 1913.44 Q1131.72 1911.37 1131.72 1908.38 L1131.72 1889.18 L1125.81 1889.18 Z" fill="#000000" fill-rule="evenodd" fill-opacity="1" /><path clip-path="url(#clip770)" d="M1153.77 1917 L1153.77 1914.86 Q1157.47 1914.86 1158.32 1914.42 Q1159.17 1913.95 1159.17 1911.7 L1159.17 1892.99 Q1159.17 1890.41 1158.28 1889.8 Q1157.43 1889.18 1154.04 1889.18 L1154.04 1887.01 L1163.75 1886.26 L1163.75 1911.77 Q1163.75 1913.84 1164.5 1914.35 Q1165.25 1914.86 1168.64 1914.86 L1168.64 1917 Q1161.54 1916.8 1161.41 1916.8 Q1160.46 1916.8 1153.77 1917 M1156.69 1874.14 Q1156.69 1872.74 1157.74 1871.62 Q1158.83 1870.47 1160.36 1870.47 Q1161.88 1870.47 1162.97 1871.52 Q1164.06 1872.54 1164.06 1874.17 Q1164.06 1875.77 1162.97 1876.82 Q1161.88 1877.84 1160.36 1877.84 Q1158.76 1877.84 1157.71 1876.72 Q1156.69 1875.6 1156.69 1874.14 Z" fill="#000000" fill-rule="evenodd" fill-opacity="1" /><path clip-path="url(#clip770)" d="M1177.24 1913.27 Q1172.65 1908.72 1172.65 1902.13 Q1172.65 1895.5 1177.14 1890.68 Q1181.65 1885.82 1188.11 1885.82 Q1194.42 1885.82 1198.94 1890.65 Q1203.49 1895.43 1203.49 1902.13 Q1203.49 1908.68 1198.91 1913.23 Q1194.36 1917.79 1188.04 1917.79 Q1181.86 1917.79 1177.24 1913.27 M1178.43 1901.55 Q1178.43 1908.31 1180.19 1911.37 Q1182.91 1916.02 1188.11 1916.02 Q1190.69 1916.02 1192.83 1914.63 Q1195 1913.23 1196.19 1910.89 Q1197.72 1907.83 1197.72 1901.55 Q1197.72 1894.86 1195.89 1891.9 Q1193.17 1887.38 1188.04 1887.38 Q1185.8 1887.38 1183.59 1888.57 Q1181.42 1889.73 1180.09 1892.04 Q1178.43 1895.1 1178.43 1901.55 Z" fill="#000000" fill-rule="evenodd" fill-opacity="1" /><path clip-path="url(#clip770)" d="M1207.74 1917 L1207.74 1914.86 Q1211.44 1914.86 1212.29 1914.42 Q1213.14 1913.95 1213.14 1911.7 L1213.14 1893.06 Q1213.14 1890.48 1212.22 1889.83 Q1211.34 1889.18 1207.74 1889.18 L1207.74 1887.01 L1217.52 1886.26 L1217.52 1893.57 Q1220.78 1886.26 1227.81 1886.26 Q1233.05 1886.26 1235.12 1888.85 Q1236.65 1890.58 1236.95 1892.51 Q1237.29 1894.45 1237.29 1899.48 L1237.29 1912.76 Q1237.36 1914.22 1238.48 1914.56 Q1239.6 1914.86 1242.73 1914.86 L1242.73 1917 Q1235.63 1916.8 1234.91 1916.8 Q1234.37 1916.8 1227.07 1917 L1227.07 1914.86 Q1230.77 1914.86 1231.62 1914.42 Q1232.5 1913.95 1232.5 1911.7 L1232.5 1895.5 Q1232.5 1891.97 1231.42 1889.9 Q1230.33 1887.79 1227.34 1887.79 Q1223.74 1887.79 1220.85 1890.82 Q1217.96 1893.84 1217.96 1898.93 L1217.96 1911.7 Q1217.96 1913.95 1218.81 1914.42 Q1219.7 1914.86 1223.36 1914.86 L1223.36 1917 Q1216.27 1916.8 1215.59 1916.8 Q1215.04 1916.8 1207.74 1917 Z" fill="#000000" fill-rule="evenodd" fill-opacity="1" /><polyline clip-path="url(#clip772)" style="stroke:#000000; stroke-linecap:butt; stroke-linejoin:round; stroke-width:2; stroke-opacity:0.1; fill:none" points="
  294.451,1778.14 1952.76,1778.14 
  "/>
<polyline clip-path="url(#clip772)" style="stroke:#000000; stroke-linecap:butt; stroke-linejoin:round; stroke-width:2; stroke-opacity:0.1; fill:none" points="
  294.451,1372.03 1952.76,1372.03 
  "/>
<polyline clip-path="url(#clip772)" style="stroke:#000000; stroke-linecap:butt; stroke-linejoin:round; stroke-width:2; stroke-opacity:0.1; fill:none" points="
  294.451,965.926 1952.76,965.926 
  "/>
<polyline clip-path="url(#clip772)" style="stroke:#000000; stroke-linecap:butt; stroke-linejoin:round; stroke-width:2; stroke-opacity:0.1; fill:none" points="
  294.451,559.819 1952.76,559.819 
  "/>
<polyline clip-path="url(#clip772)" style="stroke:#000000; stroke-linecap:butt; stroke-linejoin:round; stroke-width:2; stroke-opacity:0.1; fill:none" points="
  294.451,153.712 1952.76,153.712 
  "/>
<polyline clip-path="url(#clip770)" style="stroke:#000000; stroke-linecap:butt; stroke-linejoin:round; stroke-width:4; stroke-opacity:1; fill:none" points="
  294.451,1778.14 294.451,153.712 
  "/>
<polyline clip-path="url(#clip770)" style="stroke:#000000; stroke-linecap:butt; stroke-linejoin:round; stroke-width:4; stroke-opacity:1; fill:none" points="
  1952.76,1778.14 1952.76,153.712 
  "/>
<polyline clip-path="url(#clip770)" style="stroke:#000000; stroke-linecap:butt; stroke-linejoin:round; stroke-width:4; stroke-opacity:1; fill:none" points="
  294.451,1778.14 313.349,1778.14 
  "/>
<polyline clip-path="url(#clip770)" style="stroke:#000000; stroke-linecap:butt; stroke-linejoin:round; stroke-width:4; stroke-opacity:1; fill:none" points="
  294.451,1372.03 313.349,1372.03 
  "/>
<polyline clip-path="url(#clip770)" style="stroke:#000000; stroke-linecap:butt; stroke-linejoin:round; stroke-width:4; stroke-opacity:1; fill:none" points="
  294.451,965.926 313.349,965.926 
  "/>
<polyline clip-path="url(#clip770)" style="stroke:#000000; stroke-linecap:butt; stroke-linejoin:round; stroke-width:4; stroke-opacity:1; fill:none" points="
  294.451,559.819 313.349,559.819 
  "/>
<polyline clip-path="url(#clip770)" style="stroke:#000000; stroke-linecap:butt; stroke-linejoin:round; stroke-width:4; stroke-opacity:1; fill:none" points="
  294.451,153.712 313.349,153.712 
  "/>
<path clip-path="url(#clip770)" d="M173.419 1782.06 Q173.716 1782.35 173.716 1782.77 Q173.716 1783.19 173.419 1783.49 Q173.123 1783.78 172.703 1783.78 L141.033 1783.78 Q140.613 1783.78 140.317 1783.49 Q140.02 1783.19 140.02 1782.77 Q140.02 1782.35 140.317 1782.06 Q140.613 1781.76 141.033 1781.76 L172.703 1781.76 Q173.123 1781.76 173.419 1782.06 Z" fill="#000000" fill-rule="evenodd" fill-opacity="1" /><path clip-path="url(#clip770)" d="M178.508 1779.24 Q178.508 1771.8 180.385 1767.75 Q183.004 1761.72 189.18 1761.72 Q190.489 1761.72 191.848 1762.1 Q193.231 1762.44 194.96 1763.8 Q196.714 1765.16 197.777 1767.38 Q199.802 1771.68 199.802 1779.24 Q199.802 1786.63 197.925 1790.65 Q195.183 1796.53 189.13 1796.53 Q186.858 1796.53 184.536 1795.37 Q182.238 1794.21 180.781 1791.42 Q178.508 1787.24 178.508 1779.24 M182.708 1778.62 Q182.708 1786.25 183.251 1789.29 Q183.869 1792.58 185.548 1794.01 Q187.253 1795.42 189.13 1795.42 Q191.156 1795.42 192.836 1793.91 Q194.54 1792.38 195.059 1789.1 Q195.627 1785.86 195.603 1778.62 Q195.603 1771.58 195.109 1768.76 Q194.442 1765.48 192.663 1764.17 Q190.909 1762.84 189.13 1762.84 Q188.463 1762.84 187.747 1763.03 Q187.055 1763.23 186.043 1763.8 Q185.03 1764.37 184.239 1765.78 Q183.473 1767.18 183.103 1769.31 Q182.708 1772.05 182.708 1778.62 Z" fill="#000000" fill-rule="evenodd" fill-opacity="1" /><path clip-path="url(#clip770)" d="M206.892 1794.6 Q206.126 1793.79 206.126 1792.73 Q206.126 1791.66 206.892 1790.9 Q207.658 1790.11 208.819 1790.11 Q209.931 1790.11 210.672 1790.85 Q211.438 1791.57 211.438 1792.75 Q211.438 1793.91 210.622 1794.68 Q209.832 1795.42 208.819 1795.42 Q207.658 1795.42 206.892 1794.6 Z" fill="#000000" fill-rule="evenodd" fill-opacity="1" /><path clip-path="url(#clip770)" d="M220.38 1766.54 L220.38 1764.96 Q226.457 1764.96 229.595 1761.72 Q230.459 1761.72 230.607 1761.92 Q230.756 1762.12 230.756 1763.03 L230.756 1791.42 Q230.756 1792.92 231.497 1793.39 Q232.238 1793.86 235.474 1793.86 L237.08 1793.86 L237.08 1795.42 Q235.301 1795.27 228.878 1795.27 Q222.455 1795.27 220.701 1795.42 L220.701 1793.86 L222.307 1793.86 Q225.494 1793.86 226.26 1793.42 Q227.025 1792.95 227.025 1791.42 L227.025 1765.21 Q224.382 1766.54 220.38 1766.54 Z" fill="#000000" fill-rule="evenodd" fill-opacity="1" /><path clip-path="url(#clip770)" d="M243.157 1779.24 Q243.157 1771.8 245.034 1767.75 Q247.653 1761.72 253.829 1761.72 Q255.138 1761.72 256.496 1762.1 Q257.88 1762.44 259.609 1763.8 Q261.363 1765.16 262.425 1767.38 Q264.451 1771.68 264.451 1779.24 Q264.451 1786.63 262.574 1790.65 Q259.831 1796.53 253.779 1796.53 Q251.506 1796.53 249.184 1795.37 Q246.887 1794.21 245.429 1791.42 Q243.157 1787.24 243.157 1779.24 M247.356 1778.62 Q247.356 1786.25 247.9 1789.29 Q248.517 1792.58 250.197 1794.01 Q251.902 1795.42 253.779 1795.42 Q255.805 1795.42 257.485 1793.91 Q259.189 1792.38 259.708 1789.1 Q260.276 1785.86 260.251 1778.62 Q260.251 1771.58 259.757 1768.76 Q259.09 1765.48 257.312 1764.17 Q255.558 1762.84 253.779 1762.84 Q253.112 1762.84 252.396 1763.03 Q251.704 1763.23 250.691 1763.8 Q249.678 1764.37 248.888 1765.78 Q248.122 1767.18 247.752 1769.31 Q247.356 1772.05 247.356 1778.62 Z" fill="#000000" fill-rule="evenodd" fill-opacity="1" /><path clip-path="url(#clip770)" d="M173.963 1375.95 Q174.259 1376.24 174.259 1376.66 Q174.259 1377.08 173.963 1377.38 Q173.666 1377.68 173.246 1377.68 L141.576 1377.68 Q141.157 1377.68 140.86 1377.38 Q140.564 1377.08 140.564 1376.66 Q140.564 1376.24 140.86 1375.95 Q141.157 1375.65 141.576 1375.65 L173.246 1375.65 Q173.666 1375.65 173.963 1375.95 Z" fill="#000000" fill-rule="evenodd" fill-opacity="1" /><path clip-path="url(#clip770)" d="M179.051 1373.13 Q179.051 1365.7 180.929 1361.65 Q183.547 1355.62 189.723 1355.62 Q191.033 1355.62 192.391 1355.99 Q193.775 1356.33 195.504 1357.69 Q197.258 1359.05 198.32 1361.27 Q200.346 1365.57 200.346 1373.13 Q200.346 1380.52 198.468 1384.55 Q195.726 1390.42 189.674 1390.42 Q187.401 1390.42 185.079 1389.26 Q182.782 1388.1 181.324 1385.31 Q179.051 1381.14 179.051 1373.13 M183.251 1372.51 Q183.251 1380.15 183.795 1383.19 Q184.412 1386.47 186.092 1387.9 Q187.796 1389.31 189.674 1389.31 Q191.7 1389.31 193.379 1387.81 Q195.084 1386.27 195.603 1382.99 Q196.171 1379.75 196.146 1372.51 Q196.146 1365.47 195.652 1362.66 Q194.985 1359.37 193.206 1358.06 Q191.453 1356.73 189.674 1356.73 Q189.007 1356.73 188.291 1356.93 Q187.599 1357.12 186.586 1357.69 Q185.573 1358.26 184.783 1359.67 Q184.017 1361.08 183.646 1363.2 Q183.251 1365.94 183.251 1372.51 Z" fill="#000000" fill-rule="evenodd" fill-opacity="1" /><path clip-path="url(#clip770)" d="M207.436 1388.5 Q206.67 1387.68 206.67 1386.62 Q206.67 1385.56 207.436 1384.79 Q208.201 1384 209.362 1384 Q210.474 1384 211.215 1384.74 Q211.981 1385.46 211.981 1386.64 Q211.981 1387.81 211.166 1388.57 Q210.375 1389.31 209.362 1389.31 Q208.201 1389.31 207.436 1388.5 Z" fill="#000000" fill-rule="evenodd" fill-opacity="1" /><path clip-path="url(#clip770)" d="M218.404 1373.13 Q218.404 1365.7 220.281 1361.65 Q222.9 1355.62 229.076 1355.62 Q230.385 1355.62 231.744 1355.99 Q233.127 1356.33 234.856 1357.69 Q236.61 1359.05 237.673 1361.27 Q239.698 1365.57 239.698 1373.13 Q239.698 1380.52 237.821 1384.55 Q235.079 1390.42 229.026 1390.42 Q226.754 1390.42 224.432 1389.26 Q222.134 1388.1 220.677 1385.31 Q218.404 1381.14 218.404 1373.13 M222.603 1372.51 Q222.603 1380.15 223.147 1383.19 Q223.765 1386.47 225.444 1387.9 Q227.149 1389.31 229.026 1389.31 Q231.052 1389.31 232.732 1387.81 Q234.436 1386.27 234.955 1382.99 Q235.523 1379.75 235.499 1372.51 Q235.499 1365.47 235.005 1362.66 Q234.338 1359.37 232.559 1358.06 Q230.805 1356.73 229.026 1356.73 Q228.359 1356.73 227.643 1356.93 Q226.951 1357.12 225.938 1357.69 Q224.926 1358.26 224.135 1359.67 Q223.369 1361.08 222.999 1363.2 Q222.603 1365.94 222.603 1372.51 Z" fill="#000000" fill-rule="evenodd" fill-opacity="1" /><path clip-path="url(#clip770)" d="M244.244 1381.16 Q244.244 1379.65 245.059 1379.09 Q245.874 1378.49 246.739 1378.49 Q247.9 1378.49 248.567 1379.23 Q249.258 1379.95 249.258 1380.96 Q249.258 1381.98 248.567 1382.72 Q247.9 1383.43 246.739 1383.43 Q246.17 1383.43 245.874 1383.33 Q246.541 1385.66 248.567 1387.34 Q250.617 1389.02 253.31 1389.02 Q256.694 1389.02 258.72 1385.73 Q259.93 1383.61 259.93 1378.79 Q259.93 1374.54 259.016 1372.42 Q257.608 1369.18 254.718 1369.18 Q250.617 1369.18 248.196 1372.71 Q247.9 1373.16 247.554 1373.18 Q247.06 1373.18 246.936 1372.91 Q246.837 1372.61 246.837 1371.85 L246.837 1356.88 Q246.837 1355.67 247.332 1355.67 Q247.529 1355.67 247.949 1355.82 Q251.136 1357.22 254.668 1357.25 Q258.3 1357.25 261.561 1355.77 Q261.808 1355.62 261.956 1355.62 Q262.45 1355.62 262.475 1356.19 Q262.475 1356.38 262.055 1356.98 Q261.659 1357.54 260.795 1358.31 Q259.93 1359.05 258.819 1359.77 Q257.707 1360.48 256.077 1360.98 Q254.471 1361.45 252.692 1361.45 Q250.568 1361.45 248.394 1360.78 L248.394 1370.64 Q251.012 1368.07 254.817 1368.07 Q258.868 1368.07 261.659 1371.33 Q264.451 1374.59 264.451 1379.14 Q264.451 1383.9 261.141 1387.16 Q257.855 1390.42 253.409 1390.42 Q249.357 1390.42 246.788 1387.53 Q244.244 1384.64 244.244 1381.16 Z" fill="#000000" fill-rule="evenodd" fill-opacity="1" /><path clip-path="url(#clip770)" d="M178.508 967.025 Q178.508 959.59 180.385 955.538 Q183.004 949.511 189.18 949.511 Q190.489 949.511 191.848 949.881 Q193.231 950.227 194.96 951.586 Q196.714 952.944 197.777 955.168 Q199.802 959.466 199.802 967.025 Q199.802 974.412 197.925 978.438 Q195.183 984.318 189.13 984.318 Q186.858 984.318 184.536 983.157 Q182.238 981.996 180.781 979.204 Q178.508 975.029 178.508 967.025 M182.708 966.408 Q182.708 974.041 183.251 977.08 Q183.869 980.365 185.548 981.798 Q187.253 983.206 189.13 983.206 Q191.156 983.206 192.836 981.699 Q194.54 980.167 195.059 976.882 Q195.627 973.646 195.603 966.408 Q195.603 959.367 195.109 956.551 Q194.442 953.266 192.663 951.956 Q190.909 950.622 189.13 950.622 Q188.463 950.622 187.747 950.82 Q187.055 951.018 186.043 951.586 Q185.03 952.154 184.239 953.562 Q183.473 954.97 183.103 957.095 Q182.708 959.837 182.708 966.408 Z" fill="#000000" fill-rule="evenodd" fill-opacity="1" /><path clip-path="url(#clip770)" d="M206.892 982.391 Q206.126 981.576 206.126 980.513 Q206.126 979.451 206.892 978.685 Q207.658 977.895 208.819 977.895 Q209.931 977.895 210.672 978.636 Q211.438 979.352 211.438 980.538 Q211.438 981.699 210.622 982.465 Q209.832 983.206 208.819 983.206 Q207.658 983.206 206.892 982.391 Z" fill="#000000" fill-rule="evenodd" fill-opacity="1" /><path clip-path="url(#clip770)" d="M217.86 967.025 Q217.86 959.59 219.738 955.538 Q222.356 949.511 228.532 949.511 Q229.842 949.511 231.2 949.881 Q232.584 950.227 234.313 951.586 Q236.067 952.944 237.129 955.168 Q239.155 959.466 239.155 967.025 Q239.155 974.412 237.277 978.438 Q234.535 984.318 228.483 984.318 Q226.21 984.318 223.888 983.157 Q221.591 981.996 220.133 979.204 Q217.86 975.029 217.86 967.025 M222.06 966.408 Q222.06 974.041 222.603 977.08 Q223.221 980.365 224.901 981.798 Q226.605 983.206 228.483 983.206 Q230.509 983.206 232.188 981.699 Q233.893 980.167 234.412 976.882 Q234.98 973.646 234.955 966.408 Q234.955 959.367 234.461 956.551 Q233.794 953.266 232.015 951.956 Q230.262 950.622 228.483 950.622 Q227.816 950.622 227.099 950.82 Q226.408 951.018 225.395 951.586 Q224.382 952.154 223.592 953.562 Q222.826 954.97 222.455 957.095 Q222.06 959.837 222.06 966.408 Z" fill="#000000" fill-rule="evenodd" fill-opacity="1" /><path clip-path="url(#clip770)" d="M243.157 967.025 Q243.157 959.59 245.034 955.538 Q247.653 949.511 253.829 949.511 Q255.138 949.511 256.496 949.881 Q257.88 950.227 259.609 951.586 Q261.363 952.944 262.425 955.168 Q264.451 959.466 264.451 967.025 Q264.451 974.412 262.574 978.438 Q259.831 984.318 253.779 984.318 Q251.506 984.318 249.184 983.157 Q246.887 981.996 245.429 979.204 Q243.157 975.029 243.157 967.025 M247.356 966.408 Q247.356 974.041 247.9 977.08 Q248.517 980.365 250.197 981.798 Q251.902 983.206 253.779 983.206 Q255.805 983.206 257.485 981.699 Q259.189 980.167 259.708 976.882 Q260.276 973.646 260.251 966.408 Q260.251 959.367 259.757 956.551 Q259.09 953.266 257.312 951.956 Q255.558 950.622 253.779 950.622 Q253.112 950.622 252.396 950.82 Q251.704 951.018 250.691 951.586 Q249.678 952.154 248.888 953.562 Q248.122 954.97 247.752 957.095 Q247.356 959.837 247.356 966.408 Z" fill="#000000" fill-rule="evenodd" fill-opacity="1" /><path clip-path="url(#clip770)" d="M179.051 560.918 Q179.051 553.483 180.929 549.431 Q183.547 543.404 189.723 543.404 Q191.033 543.404 192.391 543.774 Q193.775 544.12 195.504 545.479 Q197.258 546.837 198.32 549.061 Q200.346 553.359 200.346 560.918 Q200.346 568.305 198.468 572.331 Q195.726 578.211 189.674 578.211 Q187.401 578.211 185.079 577.05 Q182.782 575.889 181.324 573.097 Q179.051 568.922 179.051 560.918 M183.251 560.301 Q183.251 567.934 183.795 570.973 Q184.412 574.258 186.092 575.691 Q187.796 577.099 189.674 577.099 Q191.7 577.099 193.379 575.592 Q195.084 574.061 195.603 570.775 Q196.171 567.539 196.146 560.301 Q196.146 553.26 195.652 550.444 Q194.985 547.159 193.206 545.849 Q191.453 544.515 189.674 544.515 Q189.007 544.515 188.291 544.713 Q187.599 544.911 186.586 545.479 Q185.573 546.047 184.783 547.455 Q184.017 548.863 183.646 550.988 Q183.251 553.73 183.251 560.301 Z" fill="#000000" fill-rule="evenodd" fill-opacity="1" /><path clip-path="url(#clip770)" d="M207.436 576.284 Q206.67 575.469 206.67 574.406 Q206.67 573.344 207.436 572.578 Q208.201 571.788 209.362 571.788 Q210.474 571.788 211.215 572.529 Q211.981 573.245 211.981 574.431 Q211.981 575.592 211.166 576.358 Q210.375 577.099 209.362 577.099 Q208.201 577.099 207.436 576.284 Z" fill="#000000" fill-rule="evenodd" fill-opacity="1" /><path clip-path="url(#clip770)" d="M218.404 560.918 Q218.404 553.483 220.281 549.431 Q222.9 543.404 229.076 543.404 Q230.385 543.404 231.744 543.774 Q233.127 544.12 234.856 545.479 Q236.61 546.837 237.673 549.061 Q239.698 553.359 239.698 560.918 Q239.698 568.305 237.821 572.331 Q235.079 578.211 229.026 578.211 Q226.754 578.211 224.432 577.05 Q222.134 575.889 220.677 573.097 Q218.404 568.922 218.404 560.918 M222.603 560.301 Q222.603 567.934 223.147 570.973 Q223.765 574.258 225.444 575.691 Q227.149 577.099 229.026 577.099 Q231.052 577.099 232.732 575.592 Q234.436 574.061 234.955 570.775 Q235.523 567.539 235.499 560.301 Q235.499 553.26 235.005 550.444 Q234.338 547.159 232.559 545.849 Q230.805 544.515 229.026 544.515 Q228.359 544.515 227.643 544.713 Q226.951 544.911 225.938 545.479 Q224.926 546.047 224.135 547.455 Q223.369 548.863 222.999 550.988 Q222.603 553.73 222.603 560.301 Z" fill="#000000" fill-rule="evenodd" fill-opacity="1" /><path clip-path="url(#clip770)" d="M244.244 568.947 Q244.244 567.44 245.059 566.872 Q245.874 566.279 246.739 566.279 Q247.9 566.279 248.567 567.02 Q249.258 567.736 249.258 568.749 Q249.258 569.762 248.567 570.503 Q247.9 571.22 246.739 571.22 Q246.17 571.22 245.874 571.121 Q246.541 573.443 248.567 575.123 Q250.617 576.803 253.31 576.803 Q256.694 576.803 258.72 573.517 Q259.93 571.393 259.93 566.575 Q259.93 562.326 259.016 560.202 Q257.608 556.966 254.718 556.966 Q250.617 556.966 248.196 560.498 Q247.9 560.943 247.554 560.968 Q247.06 560.968 246.936 560.696 Q246.837 560.4 246.837 559.634 L246.837 544.664 Q246.837 543.453 247.332 543.453 Q247.529 543.453 247.949 543.601 Q251.136 545.009 254.668 545.034 Q258.3 545.034 261.561 543.552 Q261.808 543.404 261.956 543.404 Q262.45 543.404 262.475 543.972 Q262.475 544.169 262.055 544.762 Q261.659 545.331 260.795 546.096 Q259.93 546.837 258.819 547.554 Q257.707 548.27 256.077 548.764 Q254.471 549.234 252.692 549.234 Q250.568 549.234 248.394 548.567 L248.394 558.423 Q251.012 555.854 254.817 555.854 Q258.868 555.854 261.659 559.115 Q264.451 562.376 264.451 566.921 Q264.451 571.689 261.141 574.95 Q257.855 578.211 253.409 578.211 Q249.357 578.211 246.788 575.32 Q244.244 572.43 244.244 568.947 Z" fill="#000000" fill-rule="evenodd" fill-opacity="1" /><path clip-path="url(#clip770)" d="M178.508 154.811 Q178.508 147.376 180.385 143.324 Q183.004 137.297 189.18 137.297 Q190.489 137.297 191.848 137.667 Q193.231 138.013 194.96 139.372 Q196.714 140.731 197.777 142.954 Q199.802 147.252 199.802 154.811 Q199.802 162.198 197.925 166.224 Q195.183 172.104 189.13 172.104 Q186.858 172.104 184.536 170.943 Q182.238 169.782 180.781 166.99 Q178.508 162.815 178.508 154.811 M182.708 154.194 Q182.708 161.827 183.251 164.866 Q183.869 168.151 185.548 169.584 Q187.253 170.992 189.13 170.992 Q191.156 170.992 192.836 169.485 Q194.54 167.954 195.059 164.668 Q195.627 161.432 195.603 154.194 Q195.603 147.153 195.109 144.337 Q194.442 141.052 192.663 139.742 Q190.909 138.408 189.13 138.408 Q188.463 138.408 187.747 138.606 Q187.055 138.804 186.043 139.372 Q185.03 139.94 184.239 141.348 Q183.473 142.756 183.103 144.881 Q182.708 147.623 182.708 154.194 Z" fill="#000000" fill-rule="evenodd" fill-opacity="1" /><path clip-path="url(#clip770)" d="M206.892 170.177 Q206.126 169.362 206.126 168.299 Q206.126 167.237 206.892 166.471 Q207.658 165.681 208.819 165.681 Q209.931 165.681 210.672 166.422 Q211.438 167.138 211.438 168.324 Q211.438 169.485 210.622 170.251 Q209.832 170.992 208.819 170.992 Q207.658 170.992 206.892 170.177 Z" fill="#000000" fill-rule="evenodd" fill-opacity="1" /><path clip-path="url(#clip770)" d="M220.38 142.114 L220.38 140.533 Q226.457 140.533 229.595 137.297 Q230.459 137.297 230.607 137.494 Q230.756 137.692 230.756 138.606 L230.756 166.99 Q230.756 168.497 231.497 168.966 Q232.238 169.436 235.474 169.436 L237.08 169.436 L237.08 170.992 Q235.301 170.844 228.878 170.844 Q222.455 170.844 220.701 170.992 L220.701 169.436 L222.307 169.436 Q225.494 169.436 226.26 168.991 Q227.025 168.522 227.025 166.99 L227.025 140.78 Q224.382 142.114 220.38 142.114 Z" fill="#000000" fill-rule="evenodd" fill-opacity="1" /><path clip-path="url(#clip770)" d="M243.157 154.811 Q243.157 147.376 245.034 143.324 Q247.653 137.297 253.829 137.297 Q255.138 137.297 256.496 137.667 Q257.88 138.013 259.609 139.372 Q261.363 140.731 262.425 142.954 Q264.451 147.252 264.451 154.811 Q264.451 162.198 262.574 166.224 Q259.831 172.104 253.779 172.104 Q251.506 172.104 249.184 170.943 Q246.887 169.782 245.429 166.99 Q243.157 162.815 243.157 154.811 M247.356 154.194 Q247.356 161.827 247.9 164.866 Q248.517 168.151 250.197 169.584 Q251.902 170.992 253.779 170.992 Q255.805 170.992 257.485 169.485 Q259.189 167.954 259.708 164.668 Q260.276 161.432 260.251 154.194 Q260.251 147.153 259.757 144.337 Q259.09 141.052 257.312 139.742 Q255.558 138.408 253.779 138.408 Q253.112 138.408 252.396 138.606 Q251.704 138.804 250.691 139.372 Q249.678 139.94 248.888 141.348 Q248.122 142.756 247.752 144.881 Q247.356 147.623 247.356 154.194 Z" fill="#000000" fill-rule="evenodd" fill-opacity="1" /><path clip-path="url(#clip770)" d="M67.9451 1081.3 L65.7712 1081.3 Q65.975 1078.17 65.975 1074.54 Q65.975 1073.21 65.7712 1066.96 L67.9451 1066.96 Q67.9451 1070.94 69.7453 1070.94 Q70.0171 1070.94 70.9342 1070.53 L90.3294 1062.72 L72.5986 1055.62 Q71.4097 1055.21 70.9342 1055.21 Q69.7453 1055.21 68.8962 1056.02 Q68.013 1056.81 67.9451 1058.54 L65.7712 1058.54 Q65.975 1055 65.975 1052.49 Q65.975 1049.64 65.7712 1047.29 L67.9451 1047.29 Q67.9451 1049.37 68.8962 1050.83 Q69.8133 1052.29 70.6285 1052.76 Q71.4097 1053.2 72.5986 1053.68 L95.2207 1062.78 Q96.5454 1063.33 96.5454 1064.24 Q96.5454 1064.86 96.2737 1065.13 Q96.0359 1065.36 95.2207 1065.7 L70.5266 1075.72 Q68.7943 1076.4 68.3867 1077.29 Q67.9451 1078.17 67.9451 1081.3 Z" fill="#000000" fill-rule="evenodd" fill-opacity="1" /><path clip-path="url(#clip770)" d="M80.445 1045.97 Q73.8893 1045.97 69.2358 1041.76 Q64.5823 1037.55 64.5823 1031.5 Q64.5823 1025.39 68.5565 1022.23 Q72.5306 1019.03 78.2371 1019.03 Q79.2901 1019.03 79.4939 1019.31 Q79.6977 1019.58 79.6977 1020.77 L79.6977 1040.2 Q86.7968 1040.2 90.1256 1038.09 Q94.7791 1035.17 94.7791 1030.24 Q94.7791 1029.56 94.6432 1028.75 Q94.5074 1027.93 93.9299 1026.27 Q93.3185 1024.6 91.7221 1023.14 Q90.1256 1021.68 87.612 1020.83 Q86.627 1020.63 86.661 1019.95 Q86.661 1019.03 87.4762 1019.03 Q88.0876 1019.03 89.4802 1019.71 Q90.8389 1020.36 92.4693 1021.62 Q94.0998 1022.87 95.3226 1025.32 Q96.5454 1027.73 96.5454 1030.65 Q96.5454 1036.76 91.9259 1041.38 Q87.2724 1045.97 80.445 1045.97 M78.2371 1040.13 L78.2371 1023.62 Q76.7765 1023.62 75.1461 1023.89 Q73.5157 1024.13 71.2739 1024.88 Q68.9981 1025.59 67.5714 1027.29 Q66.1448 1028.99 66.1448 1031.5 Q66.1448 1032.62 66.6204 1033.84 Q67.0959 1035.03 68.2508 1036.49 Q69.4057 1037.95 72.0211 1038.97 Q74.6366 1039.99 78.2371 1040.13 Z" fill="#000000" fill-rule="evenodd" fill-opacity="1" /><path clip-path="url(#clip770)" d="M95.7642 1014.72 L93.6242 1014.72 Q93.6242 1011.02 93.1827 1010.17 Q92.7071 1009.32 90.4653 1009.32 L54.2903 1009.32 Q51.7088 1009.32 51.0634 1010.24 Q50.4181 1011.12 50.4181 1014.72 L48.2442 1014.72 L47.4969 1004.73 L90.4653 1004.73 Q92.7071 1004.73 93.1827 1003.85 Q93.6242 1002.97 93.6242 999.299 L95.7642 999.299 Q95.7642 1000.15 95.6962 1001.91 Q95.6283 1003.68 95.5943 1004.97 Q95.5604 1006.26 95.5604 1007.01 Q95.5604 1007.82 95.7642 1014.72 Z" fill="#000000" fill-rule="evenodd" fill-opacity="1" /><path clip-path="url(#clip770)" d="M92.0278 991.248 Q87.4762 995.834 80.8866 995.834 Q74.263 995.834 69.4396 991.35 Q64.5823 986.833 64.5823 980.379 Q64.5823 974.061 69.4057 969.543 Q74.195 964.992 80.8866 964.992 Q87.4422 964.992 91.9938 969.577 Q96.5454 974.129 96.5454 980.447 Q96.5454 986.629 92.0278 991.248 M80.3091 990.06 Q87.0686 990.06 90.1256 988.293 Q94.7791 985.576 94.7791 980.379 Q94.7791 977.797 93.3865 975.658 Q91.9938 973.484 89.6501 972.295 Q86.593 970.766 80.3091 970.766 Q73.6176 970.766 70.6625 972.601 Q66.1448 975.318 66.1448 980.447 Q66.1448 982.689 67.3337 984.897 Q68.4886 987.071 70.7983 988.395 Q73.8554 990.06 80.3091 990.06 Z" fill="#000000" fill-rule="evenodd" fill-opacity="1" /><path clip-path="url(#clip770)" d="M91.9598 954.258 Q87.3403 958.674 80.7507 958.674 Q74.1271 958.674 69.3717 954.326 Q64.5823 949.978 64.5823 943.593 Q64.5823 939.347 66.6204 936.154 Q68.6244 932.961 72.0551 932.961 Q73.5836 932.961 74.4668 933.878 Q75.316 934.761 75.316 936.154 Q75.316 937.614 74.4328 938.498 Q73.5157 939.347 72.123 939.347 Q71.5116 939.347 70.9002 939.143 Q70.2888 938.939 69.6434 938.192 Q68.9981 937.411 68.8962 936.086 Q66.3486 938.565 66.3486 943.389 Q66.3486 943.457 66.3486 943.525 Q66.3486 947.057 69.6774 949.978 Q73.0062 952.9 80.6148 952.9 Q84.589 952.9 87.5101 951.949 Q90.3974 950.963 91.8919 949.367 Q93.3865 947.771 94.0998 946.208 Q94.7791 944.646 94.7791 943.117 Q94.7791 936.29 87.4762 933.98 Q86.7968 933.776 86.7968 933.097 Q86.7968 932.18 87.4762 932.18 Q87.8159 932.18 88.699 932.451 Q89.5821 932.723 90.9748 933.572 Q92.3674 934.421 93.5903 935.644 Q94.7791 936.833 95.6623 938.973 Q96.5454 941.079 96.5454 943.728 Q96.5454 949.843 91.9598 954.258 Z" fill="#000000" fill-rule="evenodd" fill-opacity="1" /><path clip-path="url(#clip770)" d="M95.7642 927.866 L93.6242 927.866 Q93.6242 924.163 93.1827 923.314 Q92.7071 922.465 90.4653 922.465 L71.7494 922.465 Q69.1679 922.465 68.5565 923.348 Q67.9451 924.197 67.9451 927.594 L65.7712 927.594 L65.0239 917.879 L90.5332 917.879 Q92.6052 917.879 93.1147 917.132 Q93.6242 916.385 93.6242 912.988 L95.7642 912.988 Q95.5604 920.087 95.5604 920.223 Q95.5604 921.174 95.7642 927.866 M52.8977 924.945 Q51.505 924.945 50.3841 923.892 Q49.2292 922.805 49.2292 921.276 Q49.2292 919.748 50.2822 918.661 Q51.3012 917.574 52.9316 917.574 Q54.5281 917.574 55.5811 918.661 Q56.6001 919.748 56.6001 921.276 Q56.6001 922.873 55.4792 923.926 Q54.3582 924.945 52.8977 924.945 Z" fill="#000000" fill-rule="evenodd" fill-opacity="1" /><path clip-path="url(#clip770)" d="M67.9451 909.592 L66.4166 909.592 Q66.2807 906.399 64.0389 904.293 Q61.7631 902.153 58.9778 901.439 Q56.1925 900.692 52.9656 900.624 L52.9656 898.892 L65.7712 898.892 L65.7712 888.94 L67.9451 888.94 L67.9451 898.892 L87.2724 898.892 Q94.7791 898.892 94.7791 894.204 Q94.7791 892.2 92.7411 890.876 Q90.6691 889.551 87.0006 889.551 L83.1624 889.551 L83.1624 887.819 L87.1365 887.819 Q90.9069 887.819 93.7261 889.551 Q96.5454 891.283 96.5454 894.714 Q96.5454 895.971 96.2057 897.227 Q95.9 898.45 95.0848 900.081 Q94.2356 901.677 92.1976 902.696 Q90.1256 903.681 87.1365 903.681 L67.9451 903.681 L67.9451 909.592 Z" fill="#000000" fill-rule="evenodd" fill-opacity="1" /><path clip-path="url(#clip770)" d="M104.392 884.558 Q102.931 884.558 102.15 883.709 Q101.403 882.825 101.403 881.637 Q101.403 880.38 102.184 879.565 Q102.999 878.715 104.324 878.715 Q106.905 878.715 107.245 881.433 Q108.502 880.108 108.502 878.172 Q108.502 876.1 106.973 874.436 Q105.445 872.737 103.984 872.024 Q102.524 871.277 99.8742 870.224 Q97.8022 869.239 95.7642 868.491 L70.3568 878.919 Q68.6924 879.599 68.3187 880.652 Q67.9451 881.705 67.9451 884.558 L65.7712 884.558 Q65.975 881.433 65.975 877.798 Q65.975 875.658 65.7712 870.224 L67.9451 870.224 Q67.9451 874.13 69.7453 874.13 Q69.9491 874.13 71.0021 873.722 L89.718 865.978 L72.5986 858.947 Q71.6135 858.539 70.9342 858.539 Q68.081 858.539 67.9451 861.8 L65.7712 861.8 Q65.975 857.214 65.975 855.754 Q65.975 852.9 65.7712 850.557 L67.9451 850.557 Q67.9451 855.21 72.3948 857.01 L102.082 869.273 Q109.996 872.601 110.03 878.172 Q110.03 880.821 108.4 882.69 Q106.77 884.558 104.392 884.558 Z" fill="#000000" fill-rule="evenodd" fill-opacity="1" /><path clip-path="url(#clip770)" d="M809.574 72.576 L809.574 69.8525 L811.693 69.8525 Q816.491 69.8525 817.572 69.0743 Q818.696 68.2529 818.696 65.6591 L818.696 19.0129 Q818.696 16.4623 817.572 15.6842 Q816.448 14.8628 811.693 14.8628 L809.574 14.8628 L809.574 12.096 L841.954 12.096 Q853.281 12.096 861.149 21.1313 Q869.06 30.1665 869.06 42.8332 Q869.06 55.2404 861.106 63.9298 Q853.194 72.576 841.954 72.576 L809.574 72.576 M826.305 66.3075 Q826.305 68.5988 826.953 69.2472 Q827.602 69.8525 830.628 69.8525 L839.577 69.8525 Q845.413 69.8525 849.347 67.4748 Q853.281 65.0538 855.313 62.2871 Q860.198 55.6295 860.198 42.8332 Q860.198 29.3884 855.615 23.0766 Q849.693 14.8628 839.49 14.8628 L830.628 14.8628 Q827.602 14.8628 826.953 15.468 Q826.305 16.0732 826.305 18.4077 L826.305 66.3075 Z" fill="#000000" fill-rule="evenodd" fill-opacity="1" /><path clip-path="url(#clip770)" d="M876.928 72.576 L876.928 69.8525 Q881.64 69.8525 882.721 69.2905 Q883.802 68.6852 883.802 65.832 L883.802 42.0118 Q883.802 38.7262 882.678 37.9481 Q881.597 37.1699 877.274 37.1699 L877.274 34.4031 L889.638 33.4521 L889.638 65.9184 Q889.638 68.5555 890.589 69.204 Q891.54 69.8525 895.863 69.8525 L895.863 72.576 Q886.828 72.3166 886.655 72.3166 Q885.445 72.3166 876.928 72.576 M880.646 18.0186 Q880.646 16.2462 881.986 14.8195 Q883.369 13.3497 885.315 13.3497 Q887.26 13.3497 888.644 14.6899 Q890.027 15.9868 890.027 18.0619 Q890.027 20.0937 888.644 21.4339 Q887.26 22.7308 885.315 22.7308 Q883.283 22.7308 881.943 21.3042 Q880.646 19.8776 880.646 18.0186 Z" fill="#000000" fill-rule="evenodd" fill-opacity="1" /><path clip-path="url(#clip770)" d="M901.44 71.4088 L901.44 59.7364 Q901.44 58.7421 901.483 58.3963 Q901.526 58.0504 901.786 57.791 Q902.045 57.5317 902.564 57.5317 Q903.169 57.5317 903.385 57.791 Q903.645 58.0504 903.818 59.0447 Q905.158 65.1403 908.011 68.3826 Q910.908 71.5817 916.138 71.5817 Q921.11 71.5817 923.617 69.3769 Q926.125 67.1721 926.125 63.5407 Q926.125 57.0561 916.917 55.4133 Q911.599 54.3326 909.394 53.6409 Q907.19 52.9059 905.244 51.3064 Q901.44 48.1938 901.44 43.7842 Q901.44 39.3747 904.769 36.1324 Q908.141 32.8901 915.576 32.8901 Q920.548 32.8901 923.92 35.3974 Q924.914 34.6193 925.433 33.9708 Q926.6 32.8901 927.206 32.8901 Q927.897 32.8901 928.027 33.3656 Q928.157 33.7979 928.157 35.0516 L928.157 43.9572 Q928.157 44.9515 928.113 45.2973 Q928.07 45.6432 927.811 45.9025 Q927.551 46.1187 926.989 46.1187 Q925.995 46.1187 925.952 45.2973 Q925.26 34.5761 915.576 34.5761 Q910.346 34.5761 908.011 36.6079 Q905.677 38.5965 905.677 41.3201 Q905.677 42.8332 906.368 44.0004 Q907.103 45.1244 908.011 45.8161 Q908.962 46.4645 910.691 47.113 Q912.421 47.7182 913.458 47.9344 Q914.539 48.1506 916.571 48.5829 Q923.661 49.923 926.644 52.8195 Q930.361 56.5373 930.361 61.2495 Q930.361 66.4804 926.816 70.0254 Q923.272 73.5703 916.138 73.5703 Q910.389 73.5703 906.368 69.7228 Q905.85 70.2415 905.46 70.7171 Q905.071 71.1494 904.898 71.3223 Q904.769 71.4952 904.726 71.6249 Q904.682 71.7114 904.596 71.7978 Q902.823 73.5703 902.391 73.5703 Q901.699 73.5703 901.57 73.0948 Q901.44 72.6625 901.44 71.4088 Z" fill="#000000" fill-rule="evenodd" fill-opacity="1" /><path clip-path="url(#clip770)" d="M941.991 67.7341 Q936.371 61.8547 936.371 53.468 Q936.371 45.0379 941.904 38.9856 Q947.438 32.8901 955.565 32.8901 Q960.969 32.8901 965.033 35.4839 Q969.096 38.0345 969.096 42.4008 Q969.096 44.3462 967.929 45.4702 Q966.805 46.551 965.033 46.551 Q963.174 46.551 962.05 45.427 Q960.969 44.2598 960.969 42.4873 Q960.969 41.7092 961.228 40.931 Q961.488 40.1528 962.439 39.3315 Q963.433 38.5101 965.119 38.3804 Q961.963 35.1381 955.824 35.1381 Q955.738 35.1381 955.651 35.1381 Q951.155 35.1381 947.438 39.3747 Q943.72 43.6113 943.72 53.295 Q943.72 58.353 944.93 62.0709 Q946.184 65.7455 948.216 67.6477 Q950.248 69.5498 952.236 70.4577 Q954.225 71.3223 956.17 71.3223 Q964.86 71.3223 967.799 62.0277 Q968.059 61.163 968.923 61.163 Q970.091 61.163 970.091 62.0277 Q970.091 62.46 969.745 63.584 Q969.399 64.708 968.318 66.4804 Q967.237 68.2529 965.681 69.8092 Q964.168 71.3223 961.444 72.4463 Q958.764 73.5703 955.392 73.5703 Q947.611 73.5703 941.991 67.7341 Z" fill="#000000" fill-rule="evenodd" fill-opacity="1" /><path clip-path="url(#clip770)" d="M975.105 72.576 L975.105 69.8525 Q979.818 69.8525 980.898 69.2905 Q982.022 68.6852 982.022 65.832 L982.022 42.0982 Q982.022 38.8127 980.855 37.9913 Q979.731 37.1699 975.105 37.1699 L975.105 34.4031 L987.426 33.4521 L987.426 43.179 Q988.68 39.3747 991.317 36.435 Q993.997 33.4521 998.32 33.4521 Q1001.17 33.4521 1002.99 35.0516 Q1004.85 36.6511 1004.85 38.8559 Q1004.85 40.8013 1003.64 41.7956 Q1002.47 42.7467 1001.04 42.7467 Q999.444 42.7467 998.32 41.7524 Q997.24 40.7148 997.24 38.9424 Q997.24 37.8616 997.715 37.0402 Q998.234 36.1756 998.623 35.873 Q999.012 35.5704 999.271 35.4839 Q999.099 35.3974 998.32 35.3974 Q993.435 35.3974 990.625 40.2825 Q987.858 45.1244 987.858 52.0413 L987.858 65.6591 Q987.858 68.2097 988.896 69.0311 Q989.977 69.8525 994.602 69.8525 L996.461 69.8525 L996.461 72.576 Q992.916 72.3166 985.221 72.3166 Q984.141 72.3166 982.455 72.3598 Q980.769 72.4031 978.564 72.4895 Q976.359 72.576 975.105 72.576 Z" fill="#000000" fill-rule="evenodd" fill-opacity="1" /><path clip-path="url(#clip770)" d="M1009.69 53.0789 Q1009.69 44.7353 1015.05 38.8127 Q1020.41 32.8901 1028.11 32.8901 Q1035.89 32.8901 1039.91 37.9481 Q1043.97 43.0061 1043.97 50.2689 Q1043.97 51.609 1043.63 51.8684 Q1043.28 52.1278 1041.77 52.1278 L1017.04 52.1278 Q1017.04 61.163 1019.72 65.3997 Q1023.44 71.3223 1029.71 71.3223 Q1030.57 71.3223 1031.61 71.1494 Q1032.65 70.9765 1034.76 70.2415 Q1036.88 69.4634 1038.74 67.4315 Q1040.6 65.3997 1041.68 62.2006 Q1041.94 60.9469 1042.8 60.9901 Q1043.97 60.9901 1043.97 62.0277 Q1043.97 62.8058 1043.11 64.5783 Q1042.29 66.3075 1040.69 68.3826 Q1039.09 70.4577 1035.97 72.014 Q1032.91 73.5703 1029.19 73.5703 Q1021.41 73.5703 1015.53 67.6909 Q1009.69 61.7683 1009.69 53.0789 M1017.13 50.2689 L1038.14 50.2689 Q1038.14 48.4099 1037.79 46.3349 Q1037.49 44.2598 1036.54 41.4065 Q1035.63 38.5101 1033.47 36.6944 Q1031.31 34.8787 1028.11 34.8787 Q1026.68 34.8787 1025.12 35.4839 Q1023.61 36.0891 1021.75 37.559 Q1019.89 39.0288 1018.6 42.3576 Q1017.3 45.6864 1017.13 50.2689 Z" fill="#000000" fill-rule="evenodd" fill-opacity="1" /><path clip-path="url(#clip770)" d="M1048.21 37.1699 L1048.21 35.2245 Q1052.27 35.0516 1054.95 32.1984 Q1057.68 29.3019 1058.58 25.757 Q1059.54 22.212 1059.62 18.1051 L1061.83 18.1051 L1061.83 34.4031 L1074.49 34.4031 L1074.49 37.1699 L1061.83 37.1699 L1061.83 61.7683 Q1061.83 71.3223 1067.79 71.3223 Q1070.34 71.3223 1072.03 68.7285 Q1073.72 66.0914 1073.72 61.4224 L1073.72 56.5373 L1075.92 56.5373 L1075.92 61.5954 Q1075.92 66.394 1073.72 69.9821 Q1071.51 73.5703 1067.14 73.5703 Q1065.54 73.5703 1063.94 73.138 Q1062.39 72.7489 1060.31 71.7114 Q1058.28 70.6306 1056.98 68.0368 Q1055.73 65.3997 1055.73 61.5954 L1055.73 37.1699 L1048.21 37.1699 Z" fill="#000000" fill-rule="evenodd" fill-opacity="1" /><path clip-path="url(#clip770)" d="M1083.79 72.576 L1083.79 69.8525 Q1088.5 69.8525 1089.58 69.2905 Q1090.66 68.6852 1090.66 65.832 L1090.66 42.0118 Q1090.66 38.7262 1089.54 37.9481 Q1088.46 37.1699 1084.13 37.1699 L1084.13 34.4031 L1096.5 33.4521 L1096.5 65.9184 Q1096.5 68.5555 1097.45 69.204 Q1098.4 69.8525 1102.72 69.8525 L1102.72 72.576 Q1093.69 72.3166 1093.51 72.3166 Q1092.3 72.3166 1083.79 72.576 M1087.51 18.0186 Q1087.51 16.2462 1088.85 14.8195 Q1090.23 13.3497 1092.17 13.3497 Q1094.12 13.3497 1095.5 14.6899 Q1096.89 15.9868 1096.89 18.0619 Q1096.89 20.0937 1095.5 21.4339 Q1094.12 22.7308 1092.17 22.7308 Q1090.14 22.7308 1088.8 21.3042 Q1087.51 19.8776 1087.51 18.0186 Z" fill="#000000" fill-rule="evenodd" fill-opacity="1" /><path clip-path="url(#clip770)" d="M1107.82 71.3223 Q1107.82 70.7171 1108.65 69.7228 L1133.33 36.3485 L1123.26 36.3485 Q1116.25 36.3485 1113.96 38.9424 Q1111.71 41.493 1111.28 48.6693 L1109.08 48.6693 L1110.07 34.4031 L1138.39 34.4031 Q1139.38 34.4031 1139.77 34.4464 Q1140.16 34.4896 1140.42 34.7922 Q1140.68 35.0516 1140.68 35.5704 Q1140.68 36.0891 1139.9 37.0834 L1115.26 70.3712 L1125.72 70.3712 Q1133.07 70.3712 1135.54 67.3018 Q1138.04 64.2324 1138.65 56.0186 L1140.85 56.0186 L1139.34 72.576 L1110.16 72.576 Q1108.73 72.576 1108.26 72.4031 Q1107.82 72.1869 1107.82 71.3223 Z" fill="#000000" fill-rule="evenodd" fill-opacity="1" /><path clip-path="url(#clip770)" d="M1147.12 53.0789 Q1147.12 44.7353 1152.48 38.8127 Q1157.84 32.8901 1165.54 32.8901 Q1173.32 32.8901 1177.34 37.9481 Q1181.4 43.0061 1181.4 50.2689 Q1181.4 51.609 1181.06 51.8684 Q1180.71 52.1278 1179.2 52.1278 L1154.47 52.1278 Q1154.47 61.163 1157.15 65.3997 Q1160.87 71.3223 1167.14 71.3223 Q1168 71.3223 1169.04 71.1494 Q1170.08 70.9765 1172.19 70.2415 Q1174.31 69.4634 1176.17 67.4315 Q1178.03 65.3997 1179.11 62.2006 Q1179.37 60.9469 1180.24 60.9901 Q1181.4 60.9901 1181.4 62.0277 Q1181.4 62.8058 1180.54 64.5783 Q1179.72 66.3075 1178.12 68.3826 Q1176.52 70.4577 1173.41 72.014 Q1170.34 73.5703 1166.62 73.5703 Q1158.84 73.5703 1152.96 67.6909 Q1147.12 61.7683 1147.12 53.0789 M1154.56 50.2689 L1175.57 50.2689 Q1175.57 48.4099 1175.22 46.3349 Q1174.92 44.2598 1173.97 41.4065 Q1173.06 38.5101 1170.9 36.6944 Q1168.74 34.8787 1165.54 34.8787 Q1164.11 34.8787 1162.55 35.4839 Q1161.04 36.0891 1159.18 37.559 Q1157.32 39.0288 1156.03 42.3576 Q1154.73 45.6864 1154.56 50.2689 Z" fill="#000000" fill-rule="evenodd" fill-opacity="1" /><path clip-path="url(#clip770)" d="M1186.98 53.5544 Q1186.98 45.1244 1192.86 39.2882 Q1198.74 33.4521 1206.69 33.4521 Q1213.44 33.4521 1217.85 38.9424 L1217.85 19.7911 Q1217.85 16.5055 1216.68 15.6842 Q1215.56 14.8628 1210.97 14.8628 L1210.97 12.096 L1223.73 11.1449 L1223.73 64.8809 Q1223.73 68.1665 1224.85 69.0311 Q1226.02 69.8525 1230.6 69.8525 L1230.6 72.576 L1217.59 73.5703 L1217.59 67.6909 Q1213 73.5271 1205.74 73.5703 Q1198.13 73.5703 1192.56 67.7341 Q1186.98 61.898 1186.98 53.5544 M1194.33 53.6409 Q1194.33 61.8547 1196.88 65.9184 Q1200.42 71.5817 1206.17 71.5817 Q1212.75 71.5817 1216.64 65.3997 Q1217.63 63.8866 1217.59 62.1141 L1217.59 43.9572 Q1217.59 42.1847 1216.64 40.7148 Q1213 35.3974 1207.08 35.3974 Q1200.9 35.3974 1197.05 41.0607 Q1194.33 45.2973 1194.33 53.6409 Z" fill="#000000" fill-rule="evenodd" fill-opacity="1" /><path clip-path="url(#clip770)" d="M1276.55 65.1403 Q1267.48 55.7592 1267.48 42.3144 Q1267.48 28.8264 1276.64 19.4885 Q1285.81 10.1506 1298.26 10.1506 Q1301.37 10.1506 1304.01 10.8855 Q1306.69 11.5772 1308.8 13.0038 Q1310.92 14.3872 1312 15.3383 Q1313.13 16.2462 1314.64 17.7592 L1319.09 11.2314 Q1319.79 10.1506 1320.48 10.1506 Q1321.21 10.1506 1321.34 10.5829 Q1321.47 10.972 1321.47 12.2689 L1321.47 33.2791 Q1321.47 34.7057 1321.3 35.0516 Q1321.13 35.3974 1320.04 35.3974 Q1319.18 35.3974 1319.01 35.1381 Q1318.83 34.8787 1318.62 33.8844 Q1317.28 24.3303 1311.92 18.6239 Q1306.6 12.9174 1299.34 12.9174 Q1297.22 12.9174 1294.84 13.3929 Q1292.51 13.8685 1289.05 15.6842 Q1285.63 17.4999 1283 20.4828 Q1280.4 23.4225 1278.5 29.129 Q1276.6 34.7922 1276.6 42.3144 Q1276.6 49.7501 1278.5 55.4566 Q1280.4 61.163 1283.04 64.146 Q1285.72 67.0857 1289.18 68.9446 Q1292.68 70.8035 1295.14 71.3223 Q1297.65 71.7978 1299.86 71.7978 Q1301.37 71.7978 1303.14 71.4952 Q1304.91 71.1494 1307.55 70.1983 Q1310.23 69.204 1311.92 66.8695 Q1313.6 64.5351 1313.6 61.0766 L1313.6 55.4133 Q1313.6 52.7763 1312.31 51.9549 Q1311.01 51.1335 1305.35 51.1335 L1302.54 51.1335 L1302.54 48.4099 Q1305.74 48.6693 1316.76 48.6693 Q1317.75 48.6693 1327.57 48.4099 L1327.57 51.1335 Q1323.33 51.1335 1322.38 51.7819 Q1321.47 52.3872 1321.47 55.0243 L1321.47 70.4577 Q1321.47 72.4895 1320.69 72.4895 Q1320 72.4895 1317.93 70.5009 Q1315.89 68.5123 1314.99 66.9992 Q1312.87 70.7171 1308.24 72.6192 Q1303.66 74.5214 1298.43 74.5214 Q1285.68 74.5214 1276.55 65.1403 Z" fill="#000000" fill-rule="evenodd" fill-opacity="1" /><path clip-path="url(#clip770)" d="M1334.35 72.576 L1334.35 69.8525 Q1339.07 69.8525 1340.15 69.2905 Q1341.27 68.6852 1341.27 65.832 L1341.27 42.0982 Q1341.27 38.8127 1340.1 37.9913 Q1338.98 37.1699 1334.35 37.1699 L1334.35 34.4031 L1346.67 33.4521 L1346.67 43.179 Q1347.93 39.3747 1350.57 36.435 Q1353.25 33.4521 1357.57 33.4521 Q1360.42 33.4521 1362.24 35.0516 Q1364.1 36.6511 1364.1 38.8559 Q1364.1 40.8013 1362.89 41.7956 Q1361.72 42.7467 1360.29 42.7467 Q1358.69 42.7467 1357.57 41.7524 Q1356.49 40.7148 1356.49 38.9424 Q1356.49 37.8616 1356.96 37.0402 Q1357.48 36.1756 1357.87 35.873 Q1358.26 35.5704 1358.52 35.4839 Q1358.35 35.3974 1357.57 35.3974 Q1352.68 35.3974 1349.87 40.2825 Q1347.11 45.1244 1347.11 52.0413 L1347.11 65.6591 Q1347.11 68.2097 1348.14 69.0311 Q1349.23 69.8525 1353.85 69.8525 L1355.71 69.8525 L1355.71 72.576 Q1352.17 72.3166 1344.47 72.3166 Q1343.39 72.3166 1341.7 72.3598 Q1340.02 72.4031 1337.81 72.4895 Q1335.61 72.576 1334.35 72.576 Z" fill="#000000" fill-rule="evenodd" fill-opacity="1" /><path clip-path="url(#clip770)" d="M1369.41 72.576 L1369.41 69.8525 Q1374.13 69.8525 1375.21 69.2905 Q1376.29 68.6852 1376.29 65.832 L1376.29 42.0118 Q1376.29 38.7262 1375.16 37.9481 Q1374.08 37.1699 1369.76 37.1699 L1369.76 34.4031 L1382.12 33.4521 L1382.12 65.9184 Q1382.12 68.5555 1383.08 69.204 Q1384.03 69.8525 1388.35 69.8525 L1388.35 72.576 Q1379.31 72.3166 1379.14 72.3166 Q1377.93 72.3166 1369.41 72.576 M1373.13 18.0186 Q1373.13 16.2462 1374.47 14.8195 Q1375.86 13.3497 1377.8 13.3497 Q1379.75 13.3497 1381.13 14.6899 Q1382.51 15.9868 1382.51 18.0619 Q1382.51 20.0937 1381.13 21.4339 Q1379.75 22.7308 1377.8 22.7308 Q1375.77 22.7308 1374.43 21.3042 Q1373.13 19.8776 1373.13 18.0186 Z" fill="#000000" fill-rule="evenodd" fill-opacity="1" /><path clip-path="url(#clip770)" d="M1394.01 53.5544 Q1394.01 45.1244 1399.89 39.2882 Q1405.77 33.4521 1413.73 33.4521 Q1420.47 33.4521 1424.88 38.9424 L1424.88 19.7911 Q1424.88 16.5055 1423.71 15.6842 Q1422.59 14.8628 1418.01 14.8628 L1418.01 12.096 L1430.76 11.1449 L1430.76 64.8809 Q1430.76 68.1665 1431.88 69.0311 Q1433.05 69.8525 1437.63 69.8525 L1437.63 72.576 L1424.62 73.5703 L1424.62 67.6909 Q1420.04 73.5271 1412.77 73.5703 Q1405.17 73.5703 1399.59 67.7341 Q1394.01 61.898 1394.01 53.5544 M1401.36 53.6409 Q1401.36 61.8547 1403.91 65.9184 Q1407.46 71.5817 1413.21 71.5817 Q1419.78 71.5817 1423.67 65.3997 Q1424.66 63.8866 1424.62 62.1141 L1424.62 43.9572 Q1424.62 42.1847 1423.67 40.7148 Q1420.04 35.3974 1414.11 35.3974 Q1407.93 35.3974 1404.09 41.0607 Q1401.36 45.2973 1401.36 53.6409 Z" fill="#000000" fill-rule="evenodd" fill-opacity="1" /><polyline clip-path="url(#clip772)" style="stroke:#dbdbdb; stroke-linecap:butt; stroke-linejoin:round; stroke-width:5.64706; stroke-opacity:1; fill:none" points="
  1303.85,1063.39 1123.6,1250.2 
  "/>
<polyline clip-path="url(#clip772)" style="stroke:#cbcbcb; stroke-linecap:butt; stroke-linejoin:round; stroke-width:8.06723; stroke-opacity:1; fill:none" points="
  1303.85,1063.39 1430.03,1250.2 
  "/>
<polyline clip-path="url(#clip772)" style="stroke:#bababa; stroke-linecap:butt; stroke-linejoin:round; stroke-width:10.8235; stroke-opacity:1; fill:none" points="
  1303.85,1063.39 1123.6,965.926 
  "/>
<polyline clip-path="url(#clip772)" style="stroke:#9c9c9c; stroke-linecap:butt; stroke-linejoin:round; stroke-width:15.4622; stroke-opacity:1; fill:none" points="
  1303.85,1063.39 1430.03,965.926 
  "/>
<circle clip-path="url(#clip772)" cx="510.752" cy="1534.48" r="14" fill="#dc143c" fill-rule="evenodd" fill-opacity="1" stroke="#000000" stroke-opacity="1" stroke-width="4"/>
<circle clip-path="url(#clip772)" cx="817.178" cy="1534.48" r="14" fill="#dc143c" fill-rule="evenodd" fill-opacity="1" stroke="#000000" stroke-opacity="1" stroke-width="4"/>
<circle clip-path="url(#clip772)" cx="1123.6" cy="1534.48" r="14" fill="#dc143c" fill-rule="evenodd" fill-opacity="1" stroke="#000000" stroke-opacity="1" stroke-width="4"/>
<circle clip-path="url(#clip772)" cx="1430.03" cy="1534.48" r="14" fill="#dc143c" fill-rule="evenodd" fill-opacity="1" stroke="#000000" stroke-opacity="1" stroke-width="4"/>
<circle clip-path="url(#clip772)" cx="1736.46" cy="1534.48" r="14" fill="#dc143c" fill-rule="evenodd" fill-opacity="1" stroke="#000000" stroke-opacity="1" stroke-width="4"/>
<circle clip-path="url(#clip772)" cx="510.752" cy="1250.2" r="14" fill="#dc143c" fill-rule="evenodd" fill-opacity="1" stroke="#000000" stroke-opacity="1" stroke-width="4"/>
<circle clip-path="url(#clip772)" cx="817.178" cy="1250.2" r="14" fill="#dc143c" fill-rule="evenodd" fill-opacity="1" stroke="#000000" stroke-opacity="1" stroke-width="4"/>
<circle clip-path="url(#clip772)" cx="1123.6" cy="1250.2" r="14" fill="#dc143c" fill-rule="evenodd" fill-opacity="1" stroke="#000000" stroke-opacity="1" stroke-width="4"/>
<circle clip-path="url(#clip772)" cx="1430.03" cy="1250.2" r="14" fill="#dc143c" fill-rule="evenodd" fill-opacity="1" stroke="#000000" stroke-opacity="1" stroke-width="4"/>
<circle clip-path="url(#clip772)" cx="1736.46" cy="1250.2" r="14" fill="#dc143c" fill-rule="evenodd" fill-opacity="1" stroke="#000000" stroke-opacity="1" stroke-width="4"/>
<circle clip-path="url(#clip772)" cx="510.752" cy="965.926" r="14" fill="#dc143c" fill-rule="evenodd" fill-opacity="1" stroke="#000000" stroke-opacity="1" stroke-width="4"/>
<circle clip-path="url(#clip772)" cx="817.178" cy="965.926" r="14" fill="#dc143c" fill-rule="evenodd" fill-opacity="1" stroke="#000000" stroke-opacity="1" stroke-width="4"/>
<circle clip-path="url(#clip772)" cx="1123.6" cy="965.926" r="14" fill="#dc143c" fill-rule="evenodd" fill-opacity="1" stroke="#000000" stroke-opacity="1" stroke-width="4"/>
<circle clip-path="url(#clip772)" cx="1430.03" cy="965.926" r="14" fill="#dc143c" fill-rule="evenodd" fill-opacity="1" stroke="#000000" stroke-opacity="1" stroke-width="4"/>
<circle clip-path="url(#clip772)" cx="1736.46" cy="965.926" r="14" fill="#dc143c" fill-rule="evenodd" fill-opacity="1" stroke="#000000" stroke-opacity="1" stroke-width="4"/>
<circle clip-path="url(#clip772)" cx="510.752" cy="681.651" r="14" fill="#dc143c" fill-rule="evenodd" fill-opacity="1" stroke="#000000" stroke-opacity="1" stroke-width="4"/>
<circle clip-path="url(#clip772)" cx="817.178" cy="681.651" r="14" fill="#dc143c" fill-rule="evenodd" fill-opacity="1" stroke="#000000" stroke-opacity="1" stroke-width="4"/>
<circle clip-path="url(#clip772)" cx="1123.6" cy="681.651" r="14" fill="#dc143c" fill-rule="evenodd" fill-opacity="1" stroke="#000000" stroke-opacity="1" stroke-width="4"/>
<circle clip-path="url(#clip772)" cx="1430.03" cy="681.651" r="14" fill="#dc143c" fill-rule="evenodd" fill-opacity="1" stroke="#000000" stroke-opacity="1" stroke-width="4"/>
<circle clip-path="url(#clip772)" cx="1736.46" cy="681.651" r="14" fill="#dc143c" fill-rule="evenodd" fill-opacity="1" stroke="#000000" stroke-opacity="1" stroke-width="4"/>
<circle clip-path="url(#clip772)" cx="510.752" cy="397.376" r="14" fill="#dc143c" fill-rule="evenodd" fill-opacity="1" stroke="#000000" stroke-opacity="1" stroke-width="4"/>
<circle clip-path="url(#clip772)" cx="817.178" cy="397.376" r="14" fill="#dc143c" fill-rule="evenodd" fill-opacity="1" stroke="#000000" stroke-opacity="1" stroke-width="4"/>
<circle clip-path="url(#clip772)" cx="1123.6" cy="397.376" r="14" fill="#dc143c" fill-rule="evenodd" fill-opacity="1" stroke="#000000" stroke-opacity="1" stroke-width="4"/>
<circle clip-path="url(#clip772)" cx="1430.03" cy="397.376" r="14" fill="#dc143c" fill-rule="evenodd" fill-opacity="1" stroke="#000000" stroke-opacity="1" stroke-width="4"/>
<circle clip-path="url(#clip772)" cx="1736.46" cy="397.376" r="14" fill="#dc143c" fill-rule="evenodd" fill-opacity="1" stroke="#000000" stroke-opacity="1" stroke-width="4"/>
<circle clip-path="url(#clip772)" cx="1303.85" cy="1063.39" r="14" fill="#0000ff" fill-rule="evenodd" fill-opacity="1" stroke="#000000" stroke-opacity="1" stroke-width="4"/>
<path clip-path="url(#clip770)" d="
M1474.88 311.54 L1897.48 311.54 L1897.48 207.86 L1474.88 207.86  Z
  " fill="#ffffff" fill-rule="evenodd" fill-opacity="1"/>
<polyline clip-path="url(#clip770)" style="stroke:#000000; stroke-linecap:butt; stroke-linejoin:round; stroke-width:4; stroke-opacity:1; fill:none" points="
  1474.88,311.54 1897.48,311.54 1897.48,207.86 1474.88,207.86 1474.88,311.54 
  "/>
<circle clip-path="url(#clip770)" cx="1548.59" cy="259.7" r="23" fill="#0000ff" fill-rule="evenodd" fill-opacity="1" stroke="#000000" stroke-opacity="1" stroke-width="6.4"/>
<path clip-path="url(#clip770)" d="M1622.29 276.98 L1622.29 275.423 Q1624.98 275.423 1625.6 275.102 Q1626.22 274.756 1626.22 273.126 L1626.22 259.514 Q1626.22 257.637 1625.58 257.192 Q1624.96 256.748 1622.49 256.748 L1622.49 255.167 L1629.55 254.623 L1629.55 273.175 Q1629.55 274.682 1630.1 275.053 Q1630.64 275.423 1633.11 275.423 L1633.11 276.98 Q1627.95 276.831 1627.85 276.831 Q1627.16 276.831 1622.29 276.98 M1624.41 245.804 Q1624.41 244.791 1625.18 243.976 Q1625.97 243.136 1627.08 243.136 Q1628.19 243.136 1628.98 243.902 Q1629.77 244.643 1629.77 245.829 Q1629.77 246.99 1628.98 247.756 Q1628.19 248.497 1627.08 248.497 Q1625.92 248.497 1625.16 247.682 Q1624.41 246.866 1624.41 245.804 Z" fill="#000000" fill-rule="evenodd" fill-opacity="1" /><path clip-path="url(#clip770)" d="M1636.25 276.98 L1636.25 275.423 Q1638.94 275.423 1639.56 275.102 Q1640.18 274.756 1640.18 273.126 L1640.18 259.564 Q1640.18 257.686 1639.51 257.217 Q1638.87 256.748 1636.25 256.748 L1636.25 255.167 L1643.36 254.623 L1643.36 259.934 Q1645.73 254.623 1650.85 254.623 Q1654.65 254.623 1656.16 256.501 Q1657.27 257.761 1657.49 259.169 Q1657.74 260.577 1657.74 264.233 L1657.74 273.892 Q1657.79 274.954 1658.6 275.201 Q1659.42 275.423 1661.69 275.423 L1661.69 276.98 Q1656.53 276.831 1656.01 276.831 Q1655.61 276.831 1650.3 276.98 L1650.3 275.423 Q1653 275.423 1653.61 275.102 Q1654.26 274.756 1654.26 273.126 L1654.26 261.342 Q1654.26 258.773 1653.47 257.266 Q1652.67 255.735 1650.5 255.735 Q1647.88 255.735 1645.78 257.933 Q1643.68 260.132 1643.68 263.838 L1643.68 273.126 Q1643.68 274.756 1644.3 275.102 Q1644.94 275.423 1647.61 275.423 L1647.61 276.98 Q1642.45 276.831 1641.95 276.831 Q1641.56 276.831 1636.25 276.98 Z" fill="#000000" fill-rule="evenodd" fill-opacity="1" /><path clip-path="url(#clip770)" d="M1662.24 256.748 L1662.24 255.636 Q1664.56 255.537 1666.09 253.907 Q1667.65 252.252 1668.16 250.226 Q1668.71 248.2 1668.76 245.853 L1670.02 245.853 L1670.02 255.167 L1677.25 255.167 L1677.25 256.748 L1670.02 256.748 L1670.02 270.804 Q1670.02 276.263 1673.43 276.263 Q1674.88 276.263 1675.85 274.781 Q1676.81 273.274 1676.81 270.606 L1676.81 267.815 L1678.07 267.815 L1678.07 270.705 Q1678.07 273.447 1676.81 275.498 Q1675.55 277.548 1673.06 277.548 Q1672.14 277.548 1671.23 277.301 Q1670.34 277.079 1669.15 276.486 Q1667.99 275.868 1667.25 274.386 Q1666.53 272.879 1666.53 270.705 L1666.53 256.748 L1662.24 256.748 Z" fill="#000000" fill-rule="evenodd" fill-opacity="1" /><path clip-path="url(#clip770)" d="M1682.29 265.839 Q1682.29 261.071 1685.36 257.686 Q1688.42 254.302 1692.82 254.302 Q1697.26 254.302 1699.56 257.192 Q1701.88 260.083 1701.88 264.233 Q1701.88 264.999 1701.69 265.147 Q1701.49 265.295 1700.62 265.295 L1686.49 265.295 Q1686.49 270.458 1688.03 272.879 Q1690.15 276.263 1693.73 276.263 Q1694.23 276.263 1694.82 276.165 Q1695.41 276.066 1696.62 275.646 Q1697.83 275.201 1698.89 274.04 Q1699.96 272.879 1700.57 271.051 Q1700.72 270.335 1701.22 270.359 Q1701.88 270.359 1701.88 270.952 Q1701.88 271.397 1701.39 272.41 Q1700.92 273.398 1700.01 274.583 Q1699.09 275.769 1697.31 276.659 Q1695.56 277.548 1693.44 277.548 Q1688.99 277.548 1685.63 274.188 Q1682.29 270.804 1682.29 265.839 M1686.54 264.233 L1698.55 264.233 Q1698.55 263.171 1698.35 261.985 Q1698.18 260.799 1697.64 259.169 Q1697.12 257.513 1695.88 256.476 Q1694.65 255.438 1692.82 255.438 Q1692 255.438 1691.11 255.784 Q1690.25 256.13 1689.19 256.97 Q1688.12 257.81 1687.38 259.712 Q1686.64 261.614 1686.54 264.233 Z" fill="#000000" fill-rule="evenodd" fill-opacity="1" /><path clip-path="url(#clip770)" d="M1704.75 276.98 L1704.75 275.423 Q1707.44 275.423 1708.06 275.102 Q1708.7 274.756 1708.7 273.126 L1708.7 259.564 Q1708.7 257.686 1708.04 257.217 Q1707.39 256.748 1704.75 256.748 L1704.75 255.167 L1711.79 254.623 L1711.79 260.181 Q1712.51 258.008 1714.01 256.328 Q1715.55 254.623 1718.02 254.623 Q1719.65 254.623 1720.68 255.537 Q1721.75 256.451 1721.75 257.711 Q1721.75 258.823 1721.05 259.391 Q1720.39 259.934 1719.57 259.934 Q1718.66 259.934 1718.02 259.366 Q1717.4 258.773 1717.4 257.761 Q1717.4 257.143 1717.67 256.674 Q1717.97 256.179 1718.19 256.007 Q1718.41 255.834 1718.56 255.784 Q1718.46 255.735 1718.02 255.735 Q1715.22 255.735 1713.62 258.526 Q1712.04 261.293 1712.04 265.246 L1712.04 273.027 Q1712.04 274.485 1712.63 274.954 Q1713.25 275.423 1715.89 275.423 L1716.95 275.423 L1716.95 276.98 Q1714.93 276.831 1710.53 276.831 Q1709.91 276.831 1708.95 276.856 Q1707.99 276.881 1706.73 276.93 Q1705.47 276.98 1704.75 276.98 Z" fill="#000000" fill-rule="evenodd" fill-opacity="1" /><path clip-path="url(#clip770)" d="M1724.51 285.231 Q1727.21 285.231 1727.82 284.885 Q1728.46 284.564 1728.46 282.958 L1728.46 259.267 Q1728.46 257.588 1727.82 257.168 Q1727.21 256.748 1724.51 256.748 L1724.51 255.167 L1731.8 254.623 L1731.8 257.958 Q1734.84 254.623 1738.89 254.623 Q1743.19 254.623 1746.33 257.958 Q1749.46 261.293 1749.46 266.061 Q1749.46 270.878 1746.13 274.213 Q1742.79 277.548 1738.17 277.548 Q1735.65 277.548 1733.95 276.263 Q1732.27 274.954 1731.95 273.991 L1731.95 274.46 L1731.95 282.958 Q1731.95 284.588 1732.59 284.909 Q1733.23 285.231 1735.9 285.231 L1735.9 286.787 Q1730.59 286.639 1730.19 286.639 Q1729.7 286.639 1724.51 286.787 L1724.51 285.231 M1731.95 271.224 Q1731.95 271.99 1732.05 272.261 Q1732.17 272.533 1732.66 273.348 Q1734.67 276.412 1737.93 276.412 Q1737.95 276.412 1737.98 276.412 Q1740.87 276.412 1743.06 273.472 Q1745.26 270.507 1745.26 266.061 Q1745.26 261.812 1743.26 258.847 Q1741.26 255.883 1738.49 255.883 Q1736.52 255.883 1734.79 256.945 Q1733.06 258.008 1731.95 259.934 L1731.95 271.224 Z" fill="#000000" fill-rule="evenodd" fill-opacity="1" /><path clip-path="url(#clip770)" d="M1757.32 274.262 Q1753.98 270.952 1753.98 266.16 Q1753.98 261.342 1757.24 257.835 Q1760.53 254.302 1765.22 254.302 Q1769.82 254.302 1773.1 257.81 Q1776.41 261.293 1776.41 266.16 Q1776.41 270.927 1773.08 274.238 Q1769.77 277.548 1765.17 277.548 Q1760.68 277.548 1757.32 274.262 M1758.18 265.74 Q1758.18 270.656 1759.47 272.879 Q1761.44 276.263 1765.22 276.263 Q1767.1 276.263 1768.66 275.25 Q1770.24 274.238 1771.1 272.533 Q1772.21 270.31 1772.21 265.74 Q1772.21 260.873 1770.88 258.724 Q1768.9 255.438 1765.17 255.438 Q1763.54 255.438 1761.94 256.303 Q1760.36 257.143 1759.39 258.823 Q1758.18 261.046 1758.18 265.74 Z" fill="#000000" fill-rule="evenodd" fill-opacity="1" /><path clip-path="url(#clip770)" d="M1779.55 276.98 L1779.55 275.423 Q1782.24 275.423 1782.86 275.102 Q1783.48 274.756 1783.48 273.126 L1783.48 246.817 Q1783.48 244.939 1782.81 244.47 Q1782.17 244.001 1779.55 244.001 L1779.55 242.42 L1786.81 241.876 L1786.81 273.126 Q1786.81 274.756 1787.46 275.102 Q1788.1 275.423 1790.77 275.423 L1790.77 276.98 Q1790.15 276.98 1788.86 276.93 Q1787.58 276.881 1786.64 276.856 Q1785.7 276.831 1785.16 276.831 Q1784.57 276.831 1779.55 276.98 Z" fill="#000000" fill-rule="evenodd" fill-opacity="1" /><path clip-path="url(#clip770)" d="M1794 272.163 Q1794 267.864 1799.07 265.591 Q1802.11 264.134 1808.38 263.763 L1808.38 261.911 Q1808.38 258.773 1806.73 257.118 Q1805.09 255.438 1803.02 255.438 Q1799.31 255.438 1797.54 257.761 Q1799.04 257.81 1799.59 258.576 Q1800.13 259.317 1800.13 260.083 Q1800.13 261.095 1799.49 261.762 Q1798.87 262.405 1797.81 262.405 Q1796.79 262.405 1796.13 261.787 Q1795.46 261.145 1795.46 260.033 Q1795.46 257.563 1797.68 255.932 Q1799.93 254.302 1803.12 254.302 Q1807.27 254.302 1810.04 257.094 Q1810.9 257.958 1811.32 259.07 Q1811.76 260.181 1811.81 260.923 Q1811.86 261.639 1811.86 263.072 L1811.86 273.175 Q1811.86 273.472 1811.96 273.966 Q1812.06 274.46 1812.51 275.102 Q1812.98 275.72 1813.74 275.72 Q1815.57 275.72 1815.54 272.484 L1815.54 269.643 L1816.83 269.643 L1816.83 272.484 Q1816.83 275.176 1815.4 276.239 Q1813.99 277.276 1812.68 277.276 Q1811 277.276 1809.94 276.041 Q1808.87 274.806 1808.73 273.126 Q1807.96 275.053 1806.21 276.313 Q1804.48 277.548 1802.11 277.548 Q1800.28 277.548 1798.55 277.079 Q1796.84 276.634 1795.41 275.374 Q1794 274.089 1794 272.163 M1797.91 272.113 Q1797.91 273.991 1799.24 275.201 Q1800.57 276.412 1802.45 276.412 Q1804.58 276.412 1806.48 274.781 Q1808.38 273.126 1808.38 269.89 L1808.38 264.826 Q1802.77 265.023 1800.33 267.271 Q1797.91 269.495 1797.91 272.113 Z" fill="#000000" fill-rule="evenodd" fill-opacity="1" /><path clip-path="url(#clip770)" d="M1818.81 276.98 L1818.81 275.423 Q1821.5 275.423 1822.12 275.102 Q1822.73 274.756 1822.73 273.126 L1822.73 259.564 Q1822.73 257.686 1822.07 257.217 Q1821.42 256.748 1818.81 256.748 L1818.81 255.167 L1825.92 254.623 L1825.92 259.934 Q1828.29 254.623 1833.4 254.623 Q1837.21 254.623 1838.72 256.501 Q1839.83 257.761 1840.05 259.169 Q1840.3 260.577 1840.3 264.233 L1840.3 273.892 Q1840.35 274.954 1841.16 275.201 Q1841.98 275.423 1844.25 275.423 L1844.25 276.98 Q1839.09 276.831 1838.57 276.831 Q1838.17 276.831 1832.86 276.98 L1832.86 275.423 Q1835.55 275.423 1836.17 275.102 Q1836.81 274.756 1836.81 273.126 L1836.81 261.342 Q1836.81 258.773 1836.02 257.266 Q1835.23 255.735 1833.06 255.735 Q1830.44 255.735 1828.34 257.933 Q1826.24 260.132 1826.24 263.838 L1826.24 273.126 Q1826.24 274.756 1826.86 275.102 Q1827.5 275.423 1830.17 275.423 L1830.17 276.98 Q1825.01 276.831 1824.51 276.831 Q1824.12 276.831 1818.81 276.98 Z" fill="#000000" fill-rule="evenodd" fill-opacity="1" /><path clip-path="url(#clip770)" d="M1844.79 256.748 L1844.79 255.636 Q1847.12 255.537 1848.65 253.907 Q1850.2 252.252 1850.72 250.226 Q1851.27 248.2 1851.31 245.853 L1852.57 245.853 L1852.57 255.167 L1859.81 255.167 L1859.81 256.748 L1852.57 256.748 L1852.57 270.804 Q1852.57 276.263 1855.98 276.263 Q1857.44 276.263 1858.4 274.781 Q1859.37 273.274 1859.37 270.606 L1859.37 267.815 L1860.63 267.815 L1860.63 270.705 Q1860.63 273.447 1859.37 275.498 Q1858.11 277.548 1855.61 277.548 Q1854.7 277.548 1853.79 277.301 Q1852.9 277.079 1851.71 276.486 Q1850.55 275.868 1849.81 274.386 Q1849.09 272.879 1849.09 270.705 L1849.09 256.748 L1844.79 256.748 Z" fill="#000000" fill-rule="evenodd" fill-opacity="1" /></svg>
